<?xml version="1.0" encoding="UTF-8"?>
<svg id="Layer_1" data-name="Layer 1" xmlns="http://www.w3.org/2000/svg" viewBox="0 0 360 360">
  <path d="M175.38,267.57c-15.55,0-27.44-8.13-30.69-10.6-10.56-8.02-7.85-21.89-7.73-22.47l24.03-78.81v-23.13c-2.11-1.91-2.86-3.75-2.9-3.83l-.5-1.26,1.31-.36c7.27-2.03,17.75-1.52,23.39-1.25l1.97.09c4.97.19,5.65,2.04,5.71,2.82.07.88-.53,1.65-1.42,1.83-.3.11-1.28.96-2.19,1.9v23.19c1.22,3.86,21.14,67,24.56,78.14,3.7,12.06-4.19,21.45-4.53,21.85-10.94,8.94-21.64,11.89-31.02,11.89ZM161.11,129.08c.42.57,1.03,1.29,1.88,2l.44.37-.05,24.79-24.05,78.87s-2.48,12.85,6.84,19.93c4.95,3.76,31.02,21.35,58.52-1.09h0s7.18-8.68,3.89-19.39c-3.5-11.42-24.4-77.63-24.61-78.3l-.06-.37v-24.34l.32-.35c.64-.7,1.66-1.73,2.62-2.39-.52-.18-1.36-.36-2.7-.41l-2-.09c-5.09-.24-14.26-.68-21.06.78Z" style="fill: #2c70b8; stroke-width: 0px;"/>
  <path d="M176.46,248.53c-2.2,0-3.6-.25-3.68-.27-.66-.12-1.1-.76-.98-1.42s.75-1.1,1.42-.98c.03,0,3.09.55,7.29-.07.65-.1,1.29.36,1.39,1.03.1.67-.36,1.29-1.03,1.39-1.67.25-3.17.33-4.41.33Z" style="fill: #2c70b8; stroke-width: 0px;"/>
  <path d="M176.09,229.32c-2.2,0-3.6-.25-3.69-.27-.66-.12-1.1-.76-.98-1.42.12-.66.76-1.1,1.42-.98.03,0,3.1.55,7.29-.07.66-.09,1.29.36,1.39,1.03.1.67-.36,1.29-1.03,1.39-1.67.25-3.16.33-4.41.33Z" style="fill: #2c70b8; stroke-width: 0px;"/>
  <path d="M175.71,211.24c-2.2,0-3.59-.25-3.68-.27-.66-.12-1.1-.76-.98-1.42.12-.67.76-1.1,1.42-.98.03,0,3.09.55,7.29-.07.67-.09,1.29.36,1.39,1.03.1.67-.36,1.29-1.03,1.39-1.67.25-3.17.33-4.41.33Z" style="fill: #2c70b8; stroke-width: 0px;"/>
  <path d="M179.56,181.01c-1.91,0-4-.47-6.2-1.68-8.32-4.58-15.69-.89-16-.73-.6.31-1.33.08-1.64-.52-.31-.6-.08-1.33.52-1.64.36-.19,8.81-4.47,18.31.76,8.1,4.46,14.22-3.26,14.48-3.59.41-.53,1.18-.63,1.71-.22.53.41.63,1.18.22,1.71-.06.08-4.67,5.92-11.39,5.92Z" style="fill: #2c70b8; stroke-width: 0px;"/>
  <path d="M194.63,92.26c-3.59,0-6.5-2.92-6.5-6.5s2.92-6.5,6.5-6.5,6.5,2.92,6.5,6.5-2.92,6.5-6.5,6.5ZM194.63,81.69c-2.24,0-4.06,1.82-4.06,4.06s1.82,4.06,4.06,4.06,4.06-1.82,4.06-4.06-1.82-4.06-4.06-4.06Z" style="fill: #2c70b8; stroke-width: 0px;"/>
  <path d="M176.74,119.5c-6.09,0-11.04-4.95-11.04-11.04s4.95-11.04,11.04-11.04,11.04,4.95,11.04,11.04-4.95,11.04-11.04,11.04ZM176.74,99.85c-4.74,0-8.6,3.86-8.6,8.6s3.86,8.6,8.6,8.6,8.6-3.86,8.6-8.6-3.86-8.6-8.6-8.6Z" style="fill: #2c70b8; stroke-width: 0px;"/>
</svg>