<?xml version="1.0" encoding="UTF-8"?>
<svg id="Layer_1" data-name="Layer 1" xmlns="http://www.w3.org/2000/svg" viewBox="0 0 360 360">
  <path d="M161.59,236.6l-.33-.02c-.37-.03-.79-.02-1.24,0-1.76.03-4.19.08-6.27-1.72-1.18-1.02-2.75-3.05-4.57-5.4-1.72-2.22-3.68-4.75-5.29-6.34-2.07-2.03-5.21-1.98-8.19-1.93-1.18.02-2.29.04-3.36-.06-2.47-.22-4.66-1.78-6.98-3.42-1.67-1.19-3.4-2.41-5.18-3.05-3.94-1.4-4.83-3.88-5.55-5.88-.18-.51-.36-1.01-.6-1.49-1.08-2.21-4.29-5.79-5.35-6.55-.59-.42-3.6-2.65-4.64-5.15-.73-1.76-2.29-3.64-4.65-5.6-2.02-1.68-2.69-3.62-3.34-5.51-.32-.94-.63-1.83-1.1-2.69-.6-1.11-1.45-1.88-2.34-2.69-1.14-1.03-2.31-2.11-3.05-3.88-.69-1.65-1.21-3.18-1.81-4.96-.46-1.35-.97-2.84-1.64-4.64-.95-2.56-.78-3.54-.45-4.55.14-.44.24-.72.02-1.64-.38-1.62-.2-2.81-.04-3.85.15-.99.27-1.77-.11-2.85l-.13-.37c-1.25-3.57-2.09-6.23-1.56-7.86.79-2.41,1.12-4.65.95-6.48l-.05-.52c-.24-2.43-.48-4.94,3.06-6.62,1.27-.6,1.31-1.04,1.42-2.1.07-.71.16-1.59.67-2.54.5-.94.37-2,.21-3.23-.11-.84-.22-1.71-.12-2.61.31-2.95,3.32-4.19,5.73-5.19,1.13-.47,1.72-2.2,2.29-3.86.47-1.36.9-2.65,1.71-3.52,1.08-1.17,2.74-1.51,4.48-1.87,1.45-.3,3.1-.63,4.61-1.49,1.14-.65,1.83-1.07,2.34-1.39,1.06-.65,1.5-.92,3.58-1.79.74-.31,1.47-.98,2.25-1.69,1.9-1.73,4.5-4.1,8.91-1.97,1.34.65,2.56,1.26,3.69,1.82,3.34,1.66,5.76,2.86,7.91,3.48.46.13.94.23,1.42.33,2.79.58,6.26,1.31,8.27,7.77,2.16,6.9,2.84,8.06,4.91,11.02,1.63,2.34,1.78,5.65,1.92,8.57.07,1.42.13,2.76.36,3.72.56,2.33,6.42,6.49,9.17,7.62,2.57,1.06,4.28,3.62,4.59,6.85.07.73.1,1.51.14,2.34.07,1.69.16,3.6.58,5.73.33,1.67.78,2.38,1.34,3.29.44.71.94,1.52,1.4,2.82.67,1.91-.49,4.36-1.61,6.72-.61,1.28-1.62,3.41-1.37,4.01,1.24,2.99-1.23,17.41-1.26,17.55-.22,1.1.76,3.58,1.55,5.56.57,1.42,1.1,2.77,1.34,3.89.57,2.59,1,8.82-.25,11.48-.92,1.95-1.41,5.42-.32,8.43,1.27,3.49-.52,7.66-1.59,10.16l-.3.71c-1.03,2.49-5.38,4.7-5.88,4.95l-.3.15ZM137.14,218.72c2.95,0,6.07.29,8.46,2.65,1.73,1.71,3.65,4.19,5.51,6.58,1.67,2.15,3.25,4.19,4.24,5.05,1.36,1.18,3.01,1.15,4.62,1.12.39,0,.76-.01,1.1,0,1.65-.87,3.97-2.44,4.43-3.55l.31-.74c.93-2.16,2.48-5.78,1.54-8.36-1.34-3.68-.76-7.82.41-10.3.82-1.74.72-6.99.08-9.91-.21-.93-.7-2.19-1.23-3.52-1-2.52-2.03-5.13-1.67-6.93.74-3.73,2.08-14.51,1.4-16.14-.66-1.6.3-3.63,1.42-5.99.83-1.74,1.85-3.9,1.51-4.86-.37-1.05-.76-1.68-1.17-2.35-.61-.98-1.24-2-1.65-4.1-.46-2.32-.55-4.33-.63-6.1-.04-.79-.07-1.52-.13-2.21-.1-1.11-.62-3.81-3.09-4.83-2.24-.93-9.69-5.48-10.61-9.31-.28-1.18-.35-2.64-.42-4.18-.12-2.59-.26-5.52-1.49-7.29-2.33-3.34-3.09-4.82-5.23-11.68-1.59-5.09-3.84-5.57-6.44-6.11-.55-.11-1.08-.23-1.6-.38-2.37-.68-4.86-1.92-8.32-3.64-1.12-.56-2.33-1.16-3.67-1.81-2.92-1.42-4.37-.09-6.2,1.58-.9.82-1.83,1.67-2.96,2.14-1.91.79-2.24,1-3.24,1.61-.53.33-1.24.76-2.42,1.43-1.84,1.05-3.77,1.44-5.33,1.76-1.41.29-2.63.54-3.18,1.13-.45.49-.83,1.59-1.19,2.65-.71,2.08-1.51,4.44-3.67,5.33-2.71,1.12-4.1,1.93-4.24,3.2-.06.62.02,1.31.12,2.04.18,1.44.39,3.06-.48,4.69-.28.52-.33,1.04-.39,1.63-.12,1.21-.28,2.87-2.8,4.06-1.99.95-1.91,1.76-1.68,4.18l.05.53c.2,2.15-.17,4.73-1.06,7.46-.32.98.89,4.44,1.54,6.3l.13.37c.57,1.65.38,2.91.21,4.02-.14.91-.27,1.77,0,2.93.34,1.46.16,2.2-.08,2.95-.17.52-.32.98.42,2.94.68,1.82,1.19,3.34,1.66,4.7.59,1.73,1.1,3.23,1.76,4.81.53,1.27,1.41,2.08,2.44,3.02.96.87,2.04,1.86,2.84,3.33.57,1.05.92,2.07,1.26,3.07.58,1.71,1.09,3.18,2.58,4.42,2.7,2.24,4.45,4.38,5.35,6.54.56,1.36,2.37,3.07,3.8,4.09,1.43,1.02,4.89,4.93,6.13,7.46.27.56.49,1.15.7,1.74.68,1.89,1.22,3.39,4.08,4.41,2.1.75,3.97,2.08,5.78,3.36,2.04,1.45,3.97,2.82,5.79,2.98.94.08,1.99.07,3.1.05.49,0,.98-.02,1.49-.02Z" style="fill: #2c70b8; stroke-width: 0px;"/>
  <path d="M135.61,216.81c-.1,0-.2-.01-.3-.04-4-1.02-14.11-7.68-19.34-18.45-4.69-9.65-7.96-13.05-7.99-13.09-10.44-9.68-10.77-13.78-11.09-17.74-.08-.95-.15-1.86-.36-2.85-.8-3.66,1.6-10.55,3.93-17.22,1.28-3.69,2.5-7.18,2.8-9.21.95-6.46,8.99-13.11,15.58-16.84,6.94-3.94,15.25,2.79,17.15,4.47.17,0,.35,0,.51,0,9.1,0,10.62,6.14,11.63,10.26.17.7.33,1.36.52,1.93.67,2.06,2.82,3.77,4.89,5.43,1.6,1.28,3.1,2.48,4.1,3.92,2.3,3.31,3.54,10.21,4.51,16.43.81,5.15,1.05,15.94-1.58,24.56-2.34,7.66,1.52,20.83,1.56,20.96.19.65-.18,1.33-.82,1.52-.66.2-1.33-.18-1.52-.82-.17-.57-4.11-14-1.55-22.37,2.51-8.23,2.27-18.54,1.5-23.47-.62-3.99-1.93-12.28-4.1-15.41-.79-1.14-2.17-2.24-3.62-3.4-2.35-1.88-4.78-3.83-5.69-6.58-.21-.63-.38-1.35-.57-2.11-1.01-4.11-2.12-8.75-10.17-8.38l-.52.03-.38-.36c-.08-.08-8.5-7.96-14.65-4.47-6.6,3.74-13.6,9.85-14.37,15.07-.33,2.26-1.53,5.69-2.91,9.66-2,5.75-4.5,12.91-3.85,15.9.25,1.15.33,2.18.41,3.17.3,3.66.57,7.11,10.36,16.18.18.18,3.59,3.68,8.49,13.77,4.59,9.46,13.99,16.19,17.75,17.15.65.17,1.05.83.88,1.49-.14.55-.64.92-1.18.92Z" style="fill: #2c70b8; stroke-width: 0px;"/>
  <path d="M140.93,210c-.3,0-.6-.11-.83-.33-7-6.57-20.83-28.95-23.46-34.47-1.49-3.13-1.45-6.27-1.42-9.3.04-2.89.07-5.88-1.21-8.97-3.07-7.39.59-14.01,2.26-15.93,1.52-1.75,4.97-5.36,7.18-6.48,2.42-1.23,8.65-.03,12.82,2.47,3.85,2.31,4.85,4.9,5.74,7.18l.39.98c1.17,2.82-2.39,11.63-3.51,14.26-.26.62-.98.91-1.6.65-.62-.26-.91-.98-.65-1.6,2.11-4.96,4.02-11.12,3.5-12.37-.14-.34-.28-.69-.41-1.03-.85-2.2-1.59-4.09-4.72-5.97-3.83-2.3-9.06-3.09-10.45-2.39-1.64.83-4.75,3.95-6.44,5.9-1.3,1.5-4.43,7.18-1.85,13.4,1.48,3.56,1.44,6.81,1.4,9.94-.04,2.88-.07,5.6,1.18,8.22,2.87,6.02,16.56,27.77,22.92,33.74.49.46.52,1.23.05,1.73-.24.26-.57.39-.89.39Z" style="fill: #2c70b8; stroke-width: 0px;"/>
  <path d="M145.94,201.52l-.77-.04c-.83-.06-1.14-.8-1.36-1.33-.82-1.97-3.34-5.44-6.01-9.11-3.23-4.44-6.57-9.03-7.76-12.13-2.3-6,1.15-11.62,1.3-11.85l1.03-1.64,1.04,1.63c6.92,10.86,13.92,32.15,12.92,33.82l-.38.65ZM132.51,170.28c-.68,1.85-1.33,4.79-.2,7.75,1.07,2.8,4.46,7.46,7.45,11.57.79,1.09,1.57,2.16,2.3,3.18-2.01-6.28-5.4-15.35-9.56-22.5Z" style="fill: #2c70b8; stroke-width: 0px;"/>
  <path d="M109.15,171.87c-2.29,0-4.34-.8-5.98-1.44-.34-.13-.67-.26-.99-.38-.63-.23-.96-.93-.73-1.56.23-.63.93-.96,1.56-.73.33.12.68.26,1.04.4,2.3.9,4.91,1.92,7.74.74.62-.26,1.34.03,1.6.66.26.62-.04,1.34-.66,1.6-1.24.52-2.45.72-3.59.72Z" style="fill: #2c70b8; stroke-width: 0px;"/>
  <path d="M107.37,164.74c-3.31,0-4.58-1.45-4.76-1.68-.41-.53-.32-1.3.21-1.71.52-.41,1.27-.33,1.69.17.09.09,1.78,1.66,7.03.06.65-.2,1.33.17,1.53.81.2.65-.17,1.33-.81,1.52-1.98.6-3.59.83-4.89.83Z" style="fill: #2c70b8; stroke-width: 0px;"/>
  <path d="M110.23,157.49c-3.24,0-6.1-1.76-6.24-1.84-.57-.36-.74-1.11-.39-1.68.36-.57,1.11-.75,1.68-.39.03.02,3.22,1.95,6.11,1.36.66-.14,1.3.28,1.44.95s-.29,1.31-.95,1.44c-.56.12-1.11.17-1.65.17Z" style="fill: #2c70b8; stroke-width: 0px;"/>
  <path d="M110.85,150.77s-.06,0-.09,0c-2.06-.15-4.27-1.32-4.36-1.37-.6-.32-.82-1.06-.5-1.65.31-.59,1.05-.82,1.65-.5.02.01,1.85.98,3.38,1.09.67.05,1.18.63,1.13,1.3-.05.64-.58,1.14-1.22,1.14Z" style="fill: #2c70b8; stroke-width: 0px;"/>
  <path d="M112.4,144.28c-.16,0-.31-.03-.47-.09-2.32-.96-4.14-2.63-4.22-2.7-.5-.46-.53-1.23-.07-1.72.45-.49,1.23-.53,1.72-.07.01.01,1.6,1.45,3.5,2.24.62.26.92.97.66,1.59-.19.47-.65.75-1.13.75Z" style="fill: #2c70b8; stroke-width: 0px;"/>
  <path d="M115.83,139.31c-.33,0-.65-.13-.89-.39-.7-.75-2.54-2.04-3.19-2.48-.56-.37-.71-1.13-.34-1.69.38-.56,1.13-.71,1.7-.34.26.18,2.6,1.75,3.62,2.84.46.49.43,1.27-.06,1.73-.24.22-.54.33-.83.33Z" style="fill: #2c70b8; stroke-width: 0px;"/>
  <path d="M120.33,134.79c-.48,0-.93-.28-1.13-.75-.46-1.1-2.04-3.15-2.61-3.85-.42-.52-.35-1.29.17-1.72.52-.42,1.29-.35,1.72.17.23.28,2.29,2.83,2.97,4.46.26.62-.04,1.34-.66,1.6-.15.06-.31.09-.47.09Z" style="fill: #2c70b8; stroke-width: 0px;"/>
  <path d="M125.9,132.84c-.07,0-.15,0-.22-.02-.66-.12-1.1-.76-.98-1.42.15-.81.4-3.23-.21-4.68-.26-.62.04-1.34.66-1.6.62-.26,1.34.03,1.6.66.99,2.38.42,5.69.36,6.06-.11.59-.62,1-1.2,1Z" style="fill: #2c70b8; stroke-width: 0px;"/>
  <g>
    <path d="M243.6,165.18c-.15,0-.29-.03-.43-.11-.38-.2-.57-.65-.45-1.06,10.82-37.55,32.86-61.83,33.08-62.07.29-.31.76-.39,1.13-.17.37.21.55.65.42,1.06-10.75,34.94-32.83,61.75-33.05,62.02-.18.21-.44.33-.7.33ZM274.15,106.77c-6.02,7.56-19.71,26.61-28.21,52.97,6.05-8.15,19.75-28.2,28.21-52.97Z" style="fill: #2c70b8; stroke-width: 0px;"/>
    <g>
      <rect x="256.23" y="130.57" width="8.16" height="4.66" transform="translate(20.59 300.11) rotate(-61.94)" style="fill: #2c70b8; stroke-width: 0px;"/>
      <path d="M260.95,139.25l-6.27-3.34,4.98-9.35,6.27,3.34-4.98,9.35ZM257.99,134.9l1.96,1.04,2.69-5.04-1.96-1.04-2.69,5.04Z" style="fill: #2c70b8; stroke-width: 0px;"/>
    </g>
    <path d="M220.63,214.12c-.15,0-.29-.03-.43-.11-.38-.2-.57-.65-.45-1.06,10.82-37.55,32.87-61.83,33.09-62.07.29-.31.76-.39,1.13-.17.37.21.55.65.42,1.06-10.75,34.94-32.83,61.75-33.05,62.02-.18.21-.44.33-.7.33ZM251.19,155.71c-6.02,7.56-19.71,26.61-28.21,52.97,6.06-8.15,19.76-28.2,28.21-52.97Z" style="fill: #2c70b8; stroke-width: 0px;"/>
    <g>
      <rect x="233.27" y="179.51" width="8.16" height="4.66" transform="translate(-34.76 305.76) rotate(-61.94)" style="fill: #2c70b8; stroke-width: 0px;"/>
      <path d="M237.99,188.19l-6.27-3.34,4.98-9.35,6.27,3.34-4.98,9.35ZM235.03,183.84l1.96,1.04,2.69-5.04-1.96-1.04-2.69,5.04Z" style="fill: #2c70b8; stroke-width: 0px;"/>
    </g>
    <path d="M198.39,261.83c-.15,0-.29-.03-.43-.11-.38-.2-.57-.65-.45-1.06,10.82-37.55,32.87-61.83,33.09-62.07.29-.31.76-.39,1.13-.17.37.21.55.65.42,1.06-10.75,34.94-32.83,61.75-33.05,62.02-.18.21-.44.33-.7.33ZM228.95,203.42c-6.02,7.56-19.71,26.61-28.21,52.97,6.06-8.15,19.76-28.2,28.21-52.97Z" style="fill: #2c70b8; stroke-width: 0px;"/>
    <g>
      <rect x="211.03" y="227.21" width="8.16" height="4.66" transform="translate(-88.64 311.4) rotate(-61.94)" style="fill: #2c70b8; stroke-width: 0px;"/>
      <path d="M215.75,235.89l-6.27-3.34,4.99-9.35,6.27,3.34-4.99,9.35Z" style="fill: #2c70b8; stroke-width: 0px;"/>
    </g>
    <path d="M206.63,167.19c-.09,0-.17-.01-.26-.04-.42-.12-.69-.52-.66-.95,3.12-38.95,19.88-67.14,20.05-67.42.22-.36.66-.53,1.07-.4.41.13.67.53.62.96-3.57,36.38-19.86,67.06-20.02,67.37-.16.3-.47.48-.81.48ZM225.1,103.84c-4.39,8.61-14.01,30.01-17.09,57.53,4.31-9.2,13.74-31.57,17.09-57.53Z" style="fill: #2c70b8; stroke-width: 0px;"/>
    <g>
      <rect x="212.67" y="129.87" width="8.16" height="4.66" transform="translate(28.27 302.3) rotate(-73.44)" style="fill: #2c70b8; stroke-width: 0px;"/>
      <path d="M218.65,138.3l-6.81-2.02,3.02-10.16,6.81,2.02-3.02,10.16ZM214.88,134.63l2.13.63,1.63-5.48-2.12-.63-1.63,5.48Z" style="fill: #2c70b8; stroke-width: 0px;"/>
    </g>
    <path d="M193.88,219.72c-.09,0-.17-.01-.26-.04-.42-.12-.69-.52-.66-.95,3.12-38.95,19.88-67.14,20.05-67.42.22-.36.66-.53,1.07-.4.41.13.67.53.62.96-3.57,36.38-19.86,67.06-20.03,67.36-.16.3-.47.48-.81.48ZM212.36,156.37c-4.39,8.61-14.01,30-17.09,57.53,4.31-9.2,13.74-31.57,17.09-57.53Z" style="fill: #2c70b8; stroke-width: 0px;"/>
    <g>
      <rect x="199.93" y="182.4" width="8.16" height="4.66" transform="translate(-31.2 327.65) rotate(-73.44)" style="fill: #2c70b8; stroke-width: 0px;"/>
      <path d="M205.91,190.83l-6.81-2.02,3.02-10.16,6.81,2.02-3.02,10.16ZM202.13,187.16l2.13.63,1.63-5.48-2.12-.63-1.63,5.48Z" style="fill: #2c70b8; stroke-width: 0px;"/>
    </g>
    <path d="M182.59,269.62c-.09,0-.17-.01-.26-.04-.42-.12-.69-.52-.66-.95,3.12-38.95,19.88-67.14,20.05-67.42.22-.36.66-.53,1.07-.4.41.13.67.53.62.96-3.57,36.38-19.86,67.06-20.02,67.36-.16.3-.47.48-.81.48ZM201.07,206.28c-4.39,8.61-14.01,30-17.09,57.53,4.31-9.2,13.74-31.57,17.09-57.53Z" style="fill: #2c70b8; stroke-width: 0px;"/>
    <g>
      <rect x="187.65" y="233.59" width="8.16" height="4.66" transform="translate(-89.04 352.48) rotate(-73.44)" style="fill: #2c70b8; stroke-width: 0px;"/>
      <path d="M193.62,242.01l-6.81-2.02,3.02-10.16,6.81,2.02-3.02,10.16ZM189.85,238.34l2.12.63,1.63-5.48-2.13-.63-1.63,5.48Z" style="fill: #2c70b8; stroke-width: 0px;"/>
    </g>
  </g>
</svg>