<?xml version="1.0" encoding="UTF-8"?>
<svg id="Layer_1" data-name="Layer 1" xmlns="http://www.w3.org/2000/svg" viewBox="0 0 360 360">
  <g>
    <path d="M237.45,228.69c-.18,0-.36,0-.54,0-5.03-.16-9.65-2.46-13.15-6.53-4.24,4.15-9.78,6.47-15.06,6.4-4.83-.11-9.1-2.23-12.34-6.13-.43-.52-.36-1.29.16-1.72.52-.42,1.29-.36,1.72.16,2.78,3.34,6.41,5.15,10.52,5.25,4.99.1,10.31-2.36,14.19-6.62.24-.27.6-.43.96-.4.36.02.7.19.92.48,3.13,4.15,7.45,6.52,12.17,6.67,5.15.16,10.25-2.29,14.04-6.72.44-.51,1.21-.57,1.72-.13s.57,1.21.13,1.72c-4.14,4.84-9.74,7.59-15.43,7.59Z" style="fill: #2c70b8; stroke-width: 0px;"/>
    <path d="M154.09,229.28h-.16c-5.13-.05-10.34-2.64-14.45-7.14-4.29,4.47-9.57,6.84-14.81,6.66-5.56-.17-10.8-3.1-14.77-8.27-.41-.54-.31-1.3.22-1.71.53-.41,1.3-.31,1.71.22,3.52,4.58,8.1,7.18,12.91,7.32,4.99.16,9.87-2.29,13.84-6.86.23-.27.57-.42.92-.42h.02c.36,0,.7.17.93.45,3.78,4.6,8.71,7.26,13.51,7.31h.13c4.18,0,8.06-1.96,11.24-5.67.44-.51,1.21-.57,1.72-.13.51.44.57,1.21.13,1.72-3.66,4.27-8.18,6.53-13.09,6.53Z" style="fill: #2c70b8; stroke-width: 0px;"/>
  </g>
  <path d="M216.02,225.14c-.57,0-1.09-.41-1.2-.99l-3.76-19.97c-.67-3.55-1.35-7.21-2.27-10.8-1.14-4.47-2.75-9.27-5.07-15.1-.81-2.03-1.65-4.04-2.49-6.06l-.57-1.37c-.16-.38-.45-.93-.78-1.55-1.24-2.32-2.1-4.07-1.89-5.31.22-1.32,1.16-2.49,2.57-3.21.92-.47,1.87-.7,2.79-.92l.46-.11c7.09-1.74,15.35-6.79,21.56-13.16,1.9-1.95,4.27-5.08,4.84-8.94.13-.89.1-1.52-.11-1.97-.59-1.28-4.74-1.29-6.73-1.29-.8,0-1.49,0-1.99-.05-8-.67-17.4-1.14-26.5.57-1.37.26-2.91.61-3.85,1.57-.21.22-.41.47-.61.72-.63.8-1.42,1.79-2.74,2.01-2.22.4-3.63-1.71-4.54-3.09-2.69-4.04-7.57-5.38-12.29-6.68-.98-.27-1.95-.53-2.88-.82-3.35-1.03-7.78-2.22-12.26-2.32-.57-.02-1.16-.01-1.74-.01-2.64.04-5.34.01-7.79-1.3l-.41-.22c-.54-.3-1.22-.67-1.51-.55-.17.07-.41.44-.51,1.24-.48,3.65,1.02,7.79,4.46,12.3,5.93,7.79,13.6,12.51,21.73,17.5,2.87,1.76,5.84,3.59,8.73,5.56,2.95,2.02,5.3,4.01,7.18,6.11,1.76,1.97,1.76,4.26,1.76,6.48v.34c0,17.37-1.08,32.81-3.29,47.2-.1.67-.7,1.13-1.39,1.02-.67-.1-1.12-.72-1.02-1.39,2.19-14.27,3.26-29.59,3.26-46.83v-.35c0-2,0-3.57-1.13-4.84-1.75-1.95-3.95-3.82-6.74-5.72-2.84-1.94-5.79-3.75-8.63-5.5-8.32-5.12-16.18-9.95-22.39-18.1-3.84-5.05-5.51-9.79-4.94-14.1.27-2.05,1.22-2.86,1.98-3.18,1.4-.59,2.7.13,3.66.67l.37.2c1.9,1.02,4.18,1.03,6.63,1.01.61,0,1.21,0,1.81.01,4.78.11,9.42,1.36,12.92,2.43.9.28,1.85.53,2.81.8,4.91,1.34,10.48,2.87,13.55,7.49.76,1.15,1.59,2.33,2.24,2.22.4-.07.8-.58,1.23-1.12.25-.32.5-.63.77-.91,1.37-1.4,3.28-1.91,5.15-2.26,9.38-1.76,18.99-1.29,27.15-.6.45.04,1.07.04,1.78.04,3.26,0,7.71.01,8.95,2.71.55,1.19.44,2.48.31,3.35-.53,3.57-2.43,7.13-5.51,10.29-5.1,5.24-13.75,11.63-22.73,13.83l-.48.12c-.81.19-1.58.37-2.23.71-.55.28-1.17.81-1.28,1.45-.05.61,1.09,2.74,1.64,3.76.38.71.71,1.33.88,1.76l.57,1.37c.85,2.03,1.69,4.06,2.5,6.1,2.35,5.94,3.99,10.83,5.16,15.4.93,3.66,1.63,7.37,2.3,10.95l3.76,19.97c.12.66-.31,1.3-.97,1.43-.08.01-.15.02-.23.02Z" style="fill: #2c70b8; stroke-width: 0px;"/>
</svg>