<?xml version="1.0" encoding="UTF-8"?>
<svg id="Layer_1" data-name="Layer 1" xmlns="http://www.w3.org/2000/svg" viewBox="0 0 360 360">
  <path d="M243.38,205.2c-.07,0-.13,0-.2-.02-16.13-2.67-34.77-13.98-37.58-32.51-.48-3.18-.21-9.5,2.58-12.9,1.22-1.48,2.76-2.28,4.59-2.36,2.03-.1,3.71.76,4.9,2.46,1.55,2.23,1.88,5.43,1.4,7.92,1.37-.13,3.24-.38,3.66-.52,2.33-.92,4.07-2.67,5-5.07,1.77-4.56,1.09-10.57-1.68-14.95-9.45-14.93-30.04-17.42-45.17-13.41-15.31,4.05-23.16,15.06-31.48,26.71-3.56,4.99-7.24,10.14-11.59,14.85-10.01,10.82-22.97,19.46-37.48,24.99-.63.24-1.34-.08-1.57-.71-.24-.63.08-1.34.71-1.58,14.16-5.39,26.81-13.82,36.56-24.37,4.25-4.6,7.89-9.69,11.4-14.61,8.58-12.02,16.68-23.38,32.84-27.66,16.51-4.37,37.7-1.59,47.86,14.46,3.22,5.08,3.96,11.81,1.89,17.14-1.18,3.04-3.4,5.28-6.4,6.46-.06.02-6.06,1.36-7.04.35-.34-.36-.44-.9-.25-1.35.81-1.9.74-5.3-.65-7.3-.7-1.01-1.61-1.48-2.78-1.42-1.12.05-2.04.53-2.81,1.47-2.16,2.64-2.5,8.01-2.05,10.99,2.63,17.33,20.28,27.94,35.57,30.47.66.11,1.11.74,1,1.4-.1.6-.62,1.02-1.2,1.02Z" style="fill: #2c70b8; stroke-width: 0px;"/>
  <path d="M200.94,227.27c-.18,0-.35-.04-.52-.12-21.06-9.94-40.53-29.98-36.55-52.32.12-.66.75-1.11,1.42-.99.66.12,1.11.75.99,1.42-3.75,21.08,14.98,40.14,35.19,49.69.61.29.87,1.02.58,1.63-.21.44-.65.7-1.1.7Z" style="fill: #2c70b8; stroke-width: 0px;"/>
  <path d="M187.58,235.4c-.19,0-.38-.04-.57-.14-18.66-9.74-39.03-29.16-35-51.86.12-.66.74-1.11,1.42-.99.66.12,1.11.75.99,1.42-3.8,21.39,15.79,39.91,33.72,49.26.6.31.83,1.05.52,1.65-.22.42-.64.66-1.08.66Z" style="fill: #2c70b8; stroke-width: 0px;"/>
  <path d="M171.43,244.14c-.21,0-.43-.05-.62-.17-17.23-10.18-34.3-28.54-30.57-49.51.12-.67.74-1.1,1.42-.99.66.12,1.11.75.99,1.42-3.51,19.74,12.89,37.21,29.41,46.98.58.34.77,1.09.43,1.67-.23.39-.63.6-1.05.6Z" style="fill: #2c70b8; stroke-width: 0px;"/>
  <path d="M213.91,220.29c-.15,0-.31-.03-.46-.09-22.38-8.99-44.5-29.7-40.18-53.94.12-.66.74-1.11,1.42-.99.66.12,1.11.75.99,1.42-2.85,16.05,8.03,38.94,38.69,51.25.62.25.93.96.68,1.59-.19.48-.65.77-1.13.77Z" style="fill: #2c70b8; stroke-width: 0px;"/>
  <path d="M225.01,214.31c-.14,0-.28-.02-.41-.07-26.05-9.41-39.29-27.99-35.43-49.7.12-.67.74-1.11,1.42-.99.66.12,1.11.75.99,1.42-3.63,20.44,9.02,38,33.86,46.97.63.23.96.93.73,1.56-.18.5-.65.81-1.15.81Z" style="fill: #2c70b8; stroke-width: 0px;"/>
  <path d="M135.08,199.22c-.47,0-.92-.28-1.12-.74-.27-.62.02-1.34.64-1.61,5.85-2.53,10.97-6.29,14.82-10.86.71-.85,1.39-1.73,2.07-2.61,1.39-1.8,2.82-3.67,4.57-5.26,2.04-1.86,4.51-3.39,8.03-4.98.54-.24,1.09-.47,1.65-.71,2.1-.88,4.08-1.71,5.51-3.24.67-.72,1.19-1.63,1.73-2.6.87-1.53,1.76-3.12,3.41-4.19,2.84-1.85,6.4-1.04,8.83-.27l.91.29c2.22.73,4.33,1.41,6.31.98,1.6-.35,3.01-1.4,4.5-2.51l.78-.58c.54-.4,1.31-.28,1.71.27.4.54.28,1.31-.26,1.71l-.76.57c-1.63,1.22-3.32,2.49-5.44,2.95-2.65.57-5.16-.25-7.6-1.04l-.89-.29c-3.11-.98-5.26-.98-6.76,0-1.15.75-1.86,2.01-2.62,3.35-.59,1.05-1.2,2.13-2.07,3.06-1.78,1.91-4.11,2.89-6.35,3.83-.53.22-1.07.45-1.59.68-3.27,1.47-5.54,2.88-7.39,4.55-1.59,1.45-2.89,3.15-4.28,4.95-.7.91-1.4,1.81-2.13,2.69-4.09,4.86-9.53,8.85-15.72,11.53-.16.07-.32.1-.48.1Z" style="fill: #2c70b8; stroke-width: 0px;"/>
</svg>