<?xml version="1.0" encoding="UTF-8"?>
<svg id="Layer_1" data-name="Layer 1" xmlns="http://www.w3.org/2000/svg" viewBox="0 0 360 360">
  <path d="M176.53,232.9c-21.11,0-38.28-17.29-38.28-38.55s17.17-38.55,38.28-38.55,38.28,17.29,38.28,38.55-17.17,38.55-38.28,38.55ZM176.53,158.25c-19.76,0-35.84,16.2-35.84,36.11s16.08,36.1,35.84,36.1,35.84-16.2,35.84-36.1-16.08-36.11-35.84-36.11Z" style="fill: #2c70b8; stroke-width: 0px;"/>
  <path d="M176.4,244.88c-28.33,0-51.39-22.96-51.39-51.19s23.05-51.19,51.39-51.19,51.38,22.96,51.38,51.19-23.05,51.19-51.38,51.19ZM176.4,144.95c-26.99,0-48.95,21.87-48.95,48.75s21.96,48.75,48.95,48.75,48.94-21.87,48.94-48.75-21.96-48.75-48.94-48.75Z" style="fill: #2c70b8; stroke-width: 0px;"/>
  <path d="M144.07,234.96h-42.3c-.67,0-1.22-.55-1.22-1.22v-93.55c0-.67.55-1.22,1.22-1.22h43.79c.67,0,1.22.55,1.22,1.22s-.55,1.22-1.22,1.22h-42.57v91.11h41.08c.67,0,1.22.55,1.22,1.22s-.55,1.22-1.22,1.22Z" style="fill: #2c70b8; stroke-width: 0px;"/>
  <path d="M251.71,235.16h-43.2c-.67,0-1.22-.55-1.22-1.22s.55-1.22,1.22-1.22h41.98v-92.38h-67.39c-.67,0-1.22-.55-1.22-1.22s.55-1.22,1.22-1.22h68.61c.67,0,1.22.55,1.22,1.22v94.82c0,.67-.55,1.22-1.22,1.22Z" style="fill: #2c70b8; stroke-width: 0px;"/>
  <path d="M118.27,140.42c-.67,0-1.22-.55-1.22-1.22,0-.83-.02-1.66-.04-2.48-.1-4.58-.21-9.31,3.18-12.77,3.52-3.6,10.3-5.27,21.34-5.27.67,0,1.22.55,1.22,1.22s-.55,1.22-1.22,1.22c-10.2,0-16.61,1.48-19.59,4.54-2.67,2.73-2.58,6.57-2.48,11.01.02.84.04,1.68.04,2.53,0,.67-.55,1.22-1.22,1.22Z" style="fill: #2c70b8; stroke-width: 0px;"/>
  <path d="M234.64,138.4c-.41,0-.81-.21-1.04-.59l-6.1-10.01h-25.88v9.38c0,.67-.55,1.22-1.22,1.22s-1.22-.55-1.22-1.22v-10.6c0-.67.55-1.22,1.22-1.22h27.79c.43,0,.82.22,1.04.59l6.46,10.6c.35.57.17,1.33-.41,1.68-.2.12-.42.18-.63.18Z" style="fill: #2c70b8; stroke-width: 0px;"/>
  <path d="M172.61,139.1c-.67,0-1.22-.55-1.22-1.22,0-.88.02-1.75.04-2.59.1-4.03.18-7.52-2.14-9.9-2.84-2.91-9.15-4.26-19.86-4.26-.67,0-1.22-.55-1.22-1.22s.55-1.22,1.22-1.22c11.57,0,18.23,1.54,21.61,5,3.04,3.12,2.94,7.27,2.84,11.67-.02.83-.04,1.67-.04,2.53,0,.67-.55,1.22-1.22,1.22Z" style="fill: #2c70b8; stroke-width: 0px;"/>
  <path d="M206.41,198.68c-.14,0-.27,0-.41,0-2.87-.16-5.05-1.93-6.21-3.13-2.38,2.2-4.81,3.21-7.29,3-2.65-.22-4.62-1.82-5.7-2.96-2.23,2.16-4.57,3.19-7.04,3.09-4.37-.19-7.24-4.03-7.36-4.2-.4-.54-.28-1.3.26-1.7.54-.4,1.3-.29,1.71.26.02.03,2.32,3.07,5.52,3.21,2.03.16,4.07-1.02,6.07-3.29.25-.28.62-.45.99-.41.38.02.72.22.93.54.02.03,1.93,2.81,4.84,3.04,1.98.14,4.11-.92,6.25-3.2.25-.27.62-.41.97-.38.36.02.7.21.91.51.02.03,2.2,3.03,5.29,3.18,2,.11,4.03-1.01,6.04-3.29.45-.5,1.22-.55,1.72-.11.51.45.55,1.22.11,1.72-2.41,2.74-4.97,4.12-7.61,4.12Z" style="fill: #2c70b8; stroke-width: 0px;"/>
  <path d="M165.08,211.54h0c-4.47,0-7.7-4.12-7.83-4.29-.41-.53-.31-1.3.22-1.71.53-.41,1.3-.32,1.71.21.03.03,2.64,3.34,5.9,3.34h.01c1.87,0,3.69-1.13,5.4-3.34.24-.3.48-.49.98-.47.38,0,.74.19.97.49.02.03,2.32,3.07,5.52,3.21,1.96.13,4.07-1.02,6.07-3.29.25-.28.6-.46.99-.41.38.02.72.22.93.54.02.03,1.93,2.81,4.84,3.04,1.97.14,4.11-.92,6.25-3.2.25-.27.6-.4.97-.38.36.02.7.21.91.51.02.03,2.2,3.03,5.29,3.18,1.99.09,4.03-1,6.04-3.29.45-.5,1.22-.55,1.72-.11.51.45.55,1.22.11,1.72-2.54,2.88-5.25,4.26-8.02,4.11-2.87-.16-5.05-1.93-6.21-3.13-2.38,2.2-4.83,3.21-7.29,3-2.65-.22-4.62-1.82-5.7-2.96-2.23,2.16-4.55,3.16-7.04,3.09-2.9-.13-5.14-1.86-6.35-3.06-1.95,2.11-4.1,3.18-6.4,3.18Z" style="fill: #2c70b8; stroke-width: 0px;"/>
  <path d="M149.71,180.57c-.2,0-.41-.05-.6-.16-.59-.33-.8-1.07-.47-1.66.96-1.72,2.1-3.36,3.38-4.9.74-.88,1.52-1.72,2.32-2.49,2.5-2.42,5.35-4.41,8.48-5.91,2.48-1.19,5.11-2.05,7.82-2.56,3.87-.73,7.94-.74,11.79-.02.66.12,1.1.76.98,1.42-.12.66-.77,1.1-1.42.98-3.56-.66-7.33-.66-10.89.02-2.5.47-4.92,1.27-7.22,2.37-2.89,1.38-5.53,3.22-7.83,5.46-.74.71-1.46,1.49-2.14,2.3-1.18,1.42-2.23,2.94-3.12,4.53-.22.4-.64.62-1.06.62Z" style="fill: #2c70b8; stroke-width: 0px;"/>
  <path d="M145.73,195.85c-.67,0-1.22-.55-1.22-1.22,0-2.86.37-5.7,1.11-8.45.17-.65.84-1.03,1.5-.87.65.17,1.04.84.87,1.5-.68,2.54-1.03,5.17-1.03,7.82,0,.67-.55,1.22-1.22,1.22Z" style="fill: #2c70b8; stroke-width: 0px;"/>
</svg>