<?xml version="1.0" encoding="UTF-8"?>
<svg id="Layer_1" data-name="Layer 1" xmlns="http://www.w3.org/2000/svg" viewBox="0 0 360 360">
  <g>
    <path d="M130.45,166.72c-.12,0-.24-.02-.35-.05-.65-.2-1.01-.88-.82-1.52,2-6.63,6.83-11.89,14.36-15.62.25-.12.42-.21.52-.26,3.79-2.37,8.1-3.05,12.27-3.7l1.61-.26c1.62-.26,3.2-.3,4.73-.34.93-.02,1.85-.05,2.79-.12.88-.07,1.74-.28,2.64-.51.92-.23,1.86-.47,2.89-.57,2.5-.7,6.13.19,9.05.91.87.21,1.67.41,2.35.54,1.55.3,3.02.56,4.44.81,4.56.8,8.86,1.55,13.8,3.4,5.66,2.12,8.44,4.7,10.11,6.25.42.39.93.87,1.12.95.61.26.94.96.71,1.57-.23.61-.87.95-1.49.74-.65-.22-1.22-.74-2-1.47-1.53-1.42-4.09-3.8-9.3-5.75-4.73-1.77-8.73-2.47-13.37-3.28-1.44-.25-2.92-.51-4.48-.81-.71-.14-1.56-.35-2.47-.57-2.55-.63-6.05-1.48-7.88-.91l-.26.05c-.88.07-1.73.29-2.63.51-.96.24-1.96.49-3.04.57-.98.08-1.95.1-2.92.12-1.51.04-2.94.07-4.39.31l-1.63.26c-4.11.65-7.99,1.26-11.36,3.36-.12.08-.37.21-.73.38-6.9,3.42-11.31,8.17-13.11,14.14-.16.53-.64.87-1.17.87Z" style="fill: #2c70b8; stroke-width: 0px;"/>
    <path d="M171.06,205.11c-5.65,0-9.41-1.24-12.34-3.99-3.14-2.95-4.75-4.82-6.05-6.33-2.85-3.31-4.29-4.97-18.51-13.55-3.69-2.23-3.99-4.54-4.22-6.4-.15-1.2-.27-2.14-1.22-3.16-.46-.49-.43-1.27.06-1.72.49-.46,1.26-.43,1.72.06,1.48,1.6,1.68,3.15,1.85,4.52.21,1.67.38,3,3.06,4.61,14.56,8.78,16.08,10.54,19.1,14.05,1.26,1.46,2.84,3.29,5.88,6.15,2.76,2.59,6.56,3.57,12.73,3.27,1.07-.05,2.13-.04,3.17-.03,3.25.04,6.07.06,8.38-1.83,3.12-2.57,4.97-5.07,6.83-9.22.27-.62,1-.9,1.61-.62.62.27.89,1,.62,1.61-2,4.48-4.11,7.31-7.51,10.11-3,2.47-6.56,2.43-9.96,2.39-1,0-2.01-.02-3.03.03-.76.04-1.48.06-2.18.06Z" style="fill: #2c70b8; stroke-width: 0px;"/>
  </g>
  <path d="M192.88,192.79c-.14,0-.28-.02-.41-.07-.63-.23-.96-.93-.73-1.56,1.3-3.6,6.04-6.2,11.06-8.96,2.34-1.28,4.76-2.61,6.72-4,3.78-2.69,5.15-7.19,5.17-7.23.19-.64.87-1.01,1.52-.83.64.19,1.02.87.83,1.51-.06.21-1.6,5.34-6.09,8.53-2.07,1.48-4.56,2.84-6.96,4.16-4.4,2.42-8.96,4.91-9.94,7.65-.18.5-.65.81-1.15.81Z" style="fill: #2c70b8; stroke-width: 0px;"/>
  <path d="M111.36,166.72c-.47,0-.93-.28-1.12-.74-1.95-4.6-11.37-27.77-5.41-32.82,1.85-1.57,3.6-2.1,5.21-1.58,3.1,1,4.25,5.61,4.68,7.35l-1.11.6,1.19-.3c3.38,13.48,3.88,21.53,1.49,23.93-.48.48-1.25.48-1.73,0s-.48-1.25,0-1.73c1.21-1.21,1.39-7.6-2.13-21.61l-.08-.31c-.83-3.34-1.86-5.22-3.06-5.61-.75-.25-1.72.14-2.88,1.12-3.37,2.86,1.53,19.27,6.08,30.01.26.62-.03,1.34-.65,1.6-.16.07-.32.1-.48.1Z" style="fill: #2c70b8; stroke-width: 0px;"/>
  <path d="M111.56,134.4l-5.28-2.11-.15-.61c-.06-.24-1.36-5.9,6.15-12.04,3.96-3.24,11.32-3.96,11.64-3.99l6.14-.57-5.46,2.87c-.1.06-10.51,5.62-12.72,15.07l-.32,1.39ZM108.44,130.52l1.43.57c1.64-5.24,5.35-9.22,8.48-11.81-1.64.52-3.31,1.24-4.53,2.24-4.97,4.07-5.43,7.64-5.39,9Z" style="fill: #2c70b8; stroke-width: 0px;"/>
  <path d="M145.14,191.21h-.01c-.14,0-14.47-.2-32.25-2.71l-.72-.1-.26-.67c-.18-.47-1.72-4.7-.57-7.18.37-.81,1-1.38,1.81-1.67,1.8-.63,7.15-1.67,11.76-2.01-11.31-5.21-13.66-7.17-13.76-8.75-.2-3.18,3.05-6.36,3.42-6.71l.56-.53.72.28c7.7,2.98,12.33,1.67,12.38,1.66.64-.18,1.32.17,1.52.82.2.64-.16,1.32-.8,1.52-.22.06-5.1,1.51-13.21-1.43-.89,1-2.23,2.83-2.15,4.24.41.64,3.65,2.84,16.56,8.59,2.39,1.07,2.96,1.32,2.51,2.44-.45,1.11-1.58.7-2.12.49-2.83-1.03-13.78.71-16.57,1.7-.14.05-.28.13-.4.39-.45.96-.08,3.07.4,4.61,17.27,2.39,31.05,2.58,31.19,2.58.67,0,1.21.56,1.21,1.24,0,.67-.55,1.21-1.22,1.21Z" style="fill: #2c70b8; stroke-width: 0px;"/>
  <path d="M112.12,187.38c-.22,0-.44-.06-.64-.18-3.81-2.36-22.74-14.46-20.98-21.32.55-2.15,1.58-3.47,3.07-3.94,2.85-.88,6.11,1.91,7.34,2.97l.65.55c8.83,7.33,12.54,11.94,12.02,14.95-.11.67-.75,1.11-1.41,1-.66-.11-1.11-.75-1-1.41.12-.69-.33-3.66-11.17-12.66l-.61-.51c-2.38-2.04-4.07-2.88-5.09-2.56-.78.25-1.21,1.34-1.44,2.21-.97,3.77,11.05,13.17,19.9,18.64.57.35.75,1.11.4,1.68-.23.37-.63.58-1.04.58Z" style="fill: #2c70b8; stroke-width: 0px;"/>
  <path d="M91.57,167.65l-.88-.67c-.24-.18-5.74-4.56-1.71-14.96,1.63-4.21,6.19-8.64,6.39-8.83l5.24-5.06-3.31,6.5c-.05.09-4.75,9.49-1.5,17.48l.3.73-4.54,4.81ZM92.92,149.89c-.67.98-1.27,2.02-1.65,3.02-2.46,6.34-.89,9.85.18,11.32l1.83-1.94c-1.54-4.36-1.16-8.88-.35-12.4Z" style="fill: #2c70b8; stroke-width: 0px;"/>
  <path d="M132.48,214.18c-.8,0-2.73-.86-3.95-2.22-1.01-1.12-1.47-2.46-1.32-3.86.28-2.64,7.08-5.39,13.47-7.41-6.11-.18-13.47.51-17.59.89-2.56.24-3.38.31-3.79.25-1.26-.18-1.97-1.72-2.22-3.11-.41-2.31.2-5.34,3.16-6.94,4.18-2.26,25.16-3.4,27.54-3.52.77-.08,1.25.48,1.28,1.16.04.67-.48,1.25-1.16,1.28-9.12.47-23.71,1.72-26.5,3.23-1.13.61-1.78,1.57-1.96,2.86-.16,1.21.18,2.24.41,2.63.51-.03,1.73-.14,3-.26,6.24-.58,17.84-1.66,24.4-.22l4.88,1.07-4.83,1.3c-9.05,2.43-17.15,5.69-17.69,7.11-.22,2.12,2.58,3.26,2.97,3.34,3.51-.35,24.19-4.45,25.58-8.47.22-.64.91-.98,1.55-.76s.98.91.76,1.55c-2.23,6.49-27.76,10.11-28.01,10.11ZM119.95,199.54h.02-.02Z" style="fill: #2c70b8; stroke-width: 0px;"/>
  <path d="M102.29,209.49c-.65,0-1.29-.13-1.87-.47-1.13-.67-1.72-1.93-1.75-3.75-.11-5.54,15.14-11.07,19.82-12.63.64-.21,1.33.13,1.55.77.21.64-.13,1.33-.77,1.55-8.77,2.93-18.2,7.69-18.15,10.26,0,.52.1,1.42.56,1.7.36.21,1.35.36,3.96-1l.61-.31c9.91-4.93,10.53-6.98,10.55-7.34.04-.67.65-1.21,1.29-1.14.67.04,1.19.62,1.14,1.29-.15,2.47-3.82,5.37-11.9,9.38l-.51.26c-.89.46-2.76,1.44-4.53,1.44Z" style="fill: #2c70b8; stroke-width: 0px;"/>
  <path d="M101.5,226.28l-2.93-2.63c-.56-.51-5.51-5.05-5.65-8.79-.26-6.89,5.55-10.71,5.79-10.87l1.05-.67,3.22,5.23-.47.66c-3.8,5.35-1.96,13.16-1.94,13.24l.93,3.83ZM99.05,206.83c-1.42,1.27-3.84,4.03-3.69,7.94.05,1.22,1.1,2.9,2.33,4.41-.15-2.96.16-7.13,2.38-10.7l-1.01-1.65Z" style="fill: #2c70b8; stroke-width: 0px;"/>
  <path d="M124.73,229.55c-.98,0-1.96-.5-2.9-1.5-3.43-3.61,3.25-16.34,5.37-20.16.33-.59,1.07-.8,1.66-.47.59.33.8,1.07.47,1.66-3.96,7.1-7.2,15.74-5.74,17.29.5.52.95.77,1.24.73.33-.07,1.01-.54,1.88-2.9l.22-.57c3.57-9.2,2.64-10.75,2.52-10.89-.42-.52-.34-1.29.19-1.72.52-.42,1.29-.34,1.72.19,1.4,1.74.74,5.85-2.15,13.31l-.18.47c-.43,1.16-1.5,4.06-3.7,4.52-.2.04-.4.06-.6.06Z" style="fill: #2c70b8; stroke-width: 0px;"/>
  <path d="M132.68,240.11c-1.04,0-6.63-.11-8.89-2.4-4.32-4.39-2.79-10.4-2.72-10.65l.32-1.2,5.44,1.56.1.8c.69,5.67,6.48,9.62,6.54,9.66l3.27,2.2-3.94.04h-.11ZM123.24,228.93c-.14,1.68,0,4.74,2.29,7.07.67.67,2.1,1.11,3.61,1.37-1.8-1.85-3.86-4.61-4.52-8.05l-1.38-.4Z" style="fill: #2c70b8; stroke-width: 0px;"/>
  <path d="M140.41,165.54c-.39,0-.78-.19-1.02-.54-.37-.56-.26-1.38.3-1.76.56-.37,1.27-.29,1.65.27l.09.13c.37.56.22,1.32-.34,1.69-.21.14-.44.21-.68.21Z" style="fill: #2c70b8; stroke-width: 0px;"/>
  <path d="M146.66,160.64c-.4,0-.78-.19-1.02-.55-.37-.56-.26-1.38.3-1.76.57-.37,1.28-.28,1.65.28l.08.13c.37.56.22,1.32-.35,1.69-.21.14-.44.2-.67.2Z" style="fill: #2c70b8; stroke-width: 0px;"/>
  <path d="M153.42,156.93c-.4,0-.79-.2-1.03-.56-.36-.57-.25-1.39.32-1.75.57-.36,1.28-.27,1.65.3l.08.13c.36.57.21,1.32-.36,1.69-.21.13-.43.2-.66.2Z" style="fill: #2c70b8; stroke-width: 0px;"/>
  <path d="M152.07,162.5c-.4,0-.78-.19-1.02-.55-.37-.56-.26-1.38.3-1.76.57-.37,1.28-.28,1.65.28l.08.13c.37.56.22,1.32-.35,1.69-.21.14-.44.2-.67.2Z" style="fill: #2c70b8; stroke-width: 0px;"/>
  <path d="M158.49,158.28c-.39,0-.77-.19-1.01-.53-.38-.56-.28-1.38.28-1.76.56-.38,1.28-.3,1.65.26l.09.13c.38.56.23,1.32-.32,1.7-.21.14-.45.21-.69.21Z" style="fill: #2c70b8; stroke-width: 0px;"/>
  <path d="M202.9,165.71c-.23,0-.47-.06-.67-.2-.56-.37-.72-1.13-.35-1.69s1.17-.78,1.73-.41c.56.37.76,1.07.39,1.63l-.08.13c-.23.36-.62.55-1.02.55Z" style="fill: #2c70b8; stroke-width: 0px;"/>
  <path d="M196.65,160.81c-.23,0-.47-.07-.68-.21-.56-.37-.71-1.13-.34-1.69.37-.56,1.18-.78,1.74-.4.56.37.76,1.07.38,1.63l-.09.13c-.24.35-.62.54-1.02.54Z" style="fill: #2c70b8; stroke-width: 0px;"/>
  <path d="M189.9,157.09c-.24,0-.48-.07-.69-.21-.56-.38-.7-1.14-.32-1.7.38-.55,1.18-.77,1.74-.39s.74,1.08.37,1.63l-.09.13c-.24.35-.62.53-1.01.53Z" style="fill: #2c70b8; stroke-width: 0px;"/>
  <path d="M191.25,162.67c-.23,0-.46-.06-.66-.2-.57-.37-.73-1.12-.36-1.69.37-.57,1.16-.79,1.73-.43.57.37.77,1.06.4,1.62l-.08.13c-.23.36-.63.56-1.03.56Z" style="fill: #2c70b8; stroke-width: 0px;"/>
  <path d="M184.83,158.45c-.23,0-.47-.06-.67-.2-.56-.37-.72-1.13-.35-1.69s1.17-.78,1.73-.41.76,1.07.39,1.63l-.08.13c-.23.36-.62.55-1.02.55Z" style="fill: #2c70b8; stroke-width: 0px;"/>
  <path d="M131.22,166.01l-1.27-.84c-4.34-2.86-9.5-6.74-9.5-8.96,0-.92.41-14.4,1.46-16.72.66-1.45,2.86-2.05,4.6-2.31.52-.08,5.22-.71,6.72,1,1.69,1.93,2.29,6.1-.36,10.7-1.73,3-2.65,5.52-3.03,6.71l4.11,3.25-2.72,7.16ZM128.97,139.44c-.64,0-1.38.05-2.18.17-1.72.26-2.54.73-2.67.92-.64,1.42-1.23,12.69-1.23,15.69.26.87,3.69,3.67,7.14,6.06l.99-2.62-3.97-3.15.19-.76c.04-.15.92-3.59,3.51-8.08,2.18-3.78,1.55-6.84.64-7.87-.21-.16-1.13-.35-2.42-.35Z" style="fill: #2c70b8; stroke-width: 0px;"/>
  <path d="M133.54,141.39c-.07,0-.15,0-.23-.02-.67-.1-1.13-.72-1.03-1.38.07-.51.45-.9.93-1.01.31-.27.94-1.06,1.46-1.7,2.4-2.99,6.01-7.49,10.16-6.21,1.83.57,4.16.68,6.34.6-2.64-1.1-5.07-2.55-5.13-3.86-.01-.25.02-1.51,1.86-1.69,2.4-.22,7.63.59,11.12,1.22-5.32-5.31-11.54-5.69-12.88-5.71h-.15c-10.69,0-19.26,17.21-19.35,17.39-.3.61-1.03.85-1.64.56-.6-.3-.85-1.03-.56-1.64.38-.77,9.35-18.75,21.54-18.75h.18c1.73.02,10.69.59,17.01,9.29l1.86,2.55-3.09-.64c-2.33-.48-8-1.53-11.59-1.8,2.2,1.11,5.59,2.43,7.11,2.43l.22,2.42c-.34.07-8.46,1.56-13.59-.03-2.52-.78-5.67,3.09-7.54,5.41-1.35,1.68-2.08,2.59-3.03,2.59Z" style="fill: #2c70b8; stroke-width: 0px;"/>
  <path d="M233.53,165.54c-.16,0-.32-.03-.48-.1-.62-.26-.91-.98-.65-1.6,4.55-10.74,9.45-27.14,6.08-30.01-1.16-.98-2.12-1.36-2.88-1.12-1.2.39-2.23,2.27-3.06,5.6l-.08.31c-3.52,14.01-3.34,20.4-2.13,21.61.48.48.48,1.25,0,1.73s-1.25.48-1.73,0c-2.4-2.4-1.9-10.45,1.49-23.93h1.26s-1.19-.31-1.19-.31c.43-1.73,1.58-6.34,4.68-7.34,1.6-.52,3.36.01,5.2,1.58,5.96,5.05-3.46,28.23-5.41,32.82-.2.47-.65.74-1.12.74Z" style="fill: #2c70b8; stroke-width: 0px;"/>
  <path d="M233.34,133.21l-.32-1.38c-2.2-9.45-12.61-15.01-12.72-15.07l-5.46-2.87,6.14.57c.31.03,7.68.75,11.64,3.99,7.51,6.14,6.21,11.81,6.15,12.05l-.15.61-5.28,2.11ZM237.58,130.2h.02-.02ZM237.58,130.2h.02-.02ZM226.54,118.1c3.13,2.59,6.84,6.57,8.48,11.81l1.43-.57c.04-1.37-.41-4.93-5.38-9-1.22-.99-2.89-1.72-4.53-2.24Z" style="fill: #2c70b8; stroke-width: 0px;"/>
  <path d="M199.75,190.03c-.67,0-1.21-.54-1.22-1.21,0-.67.53-1.23,1.21-1.24.14,0,13.92-.19,31.19-2.58.48-1.54.85-3.65.4-4.61-.12-.26-.27-.35-.4-.39-2.78-.98-13.73-2.73-16.57-1.7-.54.2-1.68.62-2.12-.49-.46-1.12.11-1.37,2.51-2.44,12.91-5.75,16.15-7.96,16.6-8.79.05-1.25-1.3-3.05-2.19-4.04-8.12,2.94-13,1.5-13.21,1.43-.64-.2-1-.88-.8-1.53.2-.64.88-1.01,1.53-.8.04,0,4.66,1.32,12.37-1.66l.72-.28.56.53c.37.35,3.62,3.52,3.42,6.71-.1,1.58-2.45,3.54-13.76,8.75,4.61.34,9.96,1.38,11.76,2.01.81.29,1.43.86,1.81,1.67,1.15,2.48-.38,6.71-.56,7.18l-.26.68-.72.1c-17.78,2.51-32.1,2.71-32.25,2.71h-.01Z" style="fill: #2c70b8; stroke-width: 0px;"/>
  <path d="M232.77,186.19c-.41,0-.81-.21-1.04-.58-.36-.57-.18-1.33.4-1.68,8.84-5.47,20.87-14.87,19.9-18.64-.22-.87-.66-1.97-1.44-2.21-1.03-.33-2.72.52-5.01,2.49l-.67.56c-10.85,9.01-11.31,11.97-11.19,12.67.11.66-.33,1.29-1,1.41-.65.11-1.29-.33-1.41-1-.51-3.01,3.2-7.62,12.04-14.96l.56-.47c1.3-1.12,4.54-3.94,7.41-3.04,1.49.47,2.52,1.79,3.07,3.94,1.76,6.86-17.17,18.97-20.98,21.32-.2.12-.42.18-.64.18Z" style="fill: #2c70b8; stroke-width: 0px;"/>
  <path d="M253.32,166.46l-4.54-4.81.3-.73c3.25-7.99-1.45-17.39-1.5-17.48l-3.31-6.49,5.24,5.06c.19.19,4.75,4.62,6.39,8.83,4.04,10.39-1.47,14.77-1.71,14.95l-.87.67ZM251.62,161.11l1.83,1.93c1.07-1.47,2.64-4.98.18-11.32-.39-1-.99-2.04-1.66-3.02.81,3.52,1.19,8.04-.35,12.4Z" style="fill: #2c70b8; stroke-width: 0px;"/>
  <path d="M212.42,213c-.25,0-25.78-3.62-28.01-10.11-.22-.64.12-1.33.76-1.55.64-.22,1.33.12,1.55.76,1.38,4.02,22.07,8.12,25.77,8.47.19-.07,2.99-1.21,2.76-3.38-.54-1.37-8.64-4.63-17.68-7.06l-4.83-1.3,4.88-1.07c6.56-1.44,18.16-.36,24.4.22,1.26.12,2.46.23,3.01.26.23-.39.57-1.42.41-2.62-.17-1.28-.83-2.24-1.96-2.85-2.79-1.51-17.38-2.76-26.5-3.23-.67-.03-1.19-.61-1.16-1.28.04-.67.54-1.21,1.28-1.16,2.38.12,23.37,1.26,27.54,3.52,2.96,1.6,3.58,4.64,3.16,6.95-.25,1.38-.96,2.92-2.22,3.1-.42.05-1.25-.02-3.79-.25-4.13-.38-11.48-1.07-17.59-.89,6.39,2.02,13.19,4.77,13.47,7.41.15,1.41-.31,2.74-1.31,3.86-1.22,1.35-3.15,2.22-3.95,2.22Z" style="fill: #2c70b8; stroke-width: 0px;"/>
  <path d="M242.6,208.31c-1.77,0-3.62-.96-4.46-1.4l-.58-.29c-8.07-4.01-11.74-6.91-11.89-9.38-.04-.67.47-1.25,1.14-1.29.77-.06,1.25.47,1.29,1.14.02.36.64,2.42,10.55,7.34l.55.27c2.56,1.33,3.6,1.29,4.03,1.03.46-.27.55-1.18.56-1.7.05-2.58-9.38-7.34-18.15-10.26-.64-.21-.98-.91-.77-1.55.22-.64.91-.98,1.55-.77,4.68,1.56,19.93,7.09,19.82,12.63-.04,1.82-.62,3.08-1.75,3.75-.57.34-1.22.47-1.87.47Z" style="fill: #2c70b8; stroke-width: 0px;"/>
  <path d="M243.38,225.1l.93-3.83c.02-.08,1.86-7.89-1.94-13.24l-.47-.66,3.22-5.23,1.05.67c.25.16,6.05,3.98,5.8,10.87-.14,3.74-5.09,8.28-5.65,8.79l-2.94,2.63ZM244.83,207.29c2.22,3.57,2.53,7.73,2.38,10.7,1.23-1.51,2.28-3.19,2.33-4.4.15-3.91-2.28-6.67-3.7-7.94l-1.01,1.65Z" style="fill: #2c70b8; stroke-width: 0px;"/>
  <path d="M220.16,228.37c-.2,0-.4-.02-.6-.06-2.21-.46-3.28-3.36-3.68-4.46l-.21-.55c-2.92-7.55-3.56-11.52-2.14-13.29.42-.53,1.19-.61,1.72-.19.52.42.61,1.19.19,1.72-.12.15-1.04,1.68,2.51,10.87l.2.53c.89,2.43,1.57,2.9,1.9,2.97.29.04.74-.21,1.24-.73,1.47-1.55-1.78-10.19-5.74-17.28-.33-.59-.12-1.33.47-1.66.59-.33,1.33-.12,1.66.47,2.13,3.81,8.8,16.54,5.37,20.15-.95,1-1.92,1.5-2.9,1.5Z" style="fill: #2c70b8; stroke-width: 0px;"/>
  <path d="M212.22,238.93h-.11l-3.94-.03,3.27-2.2c.06-.04,5.84-3.99,6.54-9.66l.1-.8,5.43-1.56.32,1.21c.07.25,1.6,6.26-2.72,10.65-2.26,2.29-7.84,2.4-8.89,2.4ZM220.27,228.14c-.66,3.43-2.72,6.2-4.52,8.04,1.51-.26,2.95-.7,3.61-1.37,2.3-2.33,2.43-5.39,2.29-7.07l-1.38.4Z" style="fill: #2c70b8; stroke-width: 0px;"/>
  <path d="M213.67,164.83l-2.72-7.16,4.11-3.25c-.38-1.19-1.3-3.72-3.03-6.71-2.66-4.61-2.05-8.78-.37-10.7,1.5-1.72,6.18-1.08,6.71-1,1.74.26,3.95.86,4.61,2.31,1.05,2.32,1.46,15.8,1.46,16.72,0,2.22-5.17,6.1-9.5,8.96l-1.27.84ZM213.87,158.47l.99,2.62c3.45-2.39,6.88-5.2,7.15-6.15,0-2.91-.6-14.18-1.25-15.62-.12-.16-.94-.63-2.67-.89-2.38-.37-4.28-.05-4.62.21-.88,1.01-1.51,4.06.67,7.85,2.59,4.49,3.47,7.94,3.51,8.08l.19.76-3.97,3.14Z" style="fill: #2c70b8; stroke-width: 0px;"/>
  <path d="M211.35,140.21c-.95,0-1.67-.9-3.02-2.58-1.86-2.32-5-6.2-7.54-5.41-5.13,1.59-13.25.1-13.59.03l.22-2.42c1.5,0,4.86-1.29,7.06-2.41-3.68.27-9.25,1.31-11.54,1.78l-3.09.64,1.86-2.55c6.32-8.69,15.28-9.26,17.01-9.29h.18c12.19,0,21.16,17.99,21.54,18.75.3.61.05,1.34-.56,1.63-.61.3-1.34.05-1.64-.56-.09-.18-8.67-17.39-19.34-17.39h-.15c-1.34.02-7.57.41-12.88,5.71,3.5-.63,8.73-1.45,11.12-1.22,1.83.17,1.87,1.43,1.86,1.68-.06,1.31-2.48,2.76-5.13,3.87,2.16.07,4.51-.03,6.34-.6,4.16-1.3,7.77,3.23,10.17,6.21.52.65,1.15,1.43,1.45,1.7.47.11.85.5.93,1.01.1.67-.37,1.29-1.03,1.38-.08,0-.15.02-.23.02Z" style="fill: #2c70b8; stroke-width: 0px;"/>
</svg>