<?xml version="1.0" encoding="UTF-8"?>
<svg id="Layer_1" data-name="Layer 1" xmlns="http://www.w3.org/2000/svg" viewBox="0 0 360 360">
  <path d="M155.79,194.88c-7.37,0-13.16-5.48-15.35-7.89-4.97,5.24-10.2,7.75-15.59,7.48-9.14-.47-15.2-8.81-15.45-9.16-.39-.55-.26-1.31.28-1.7.54-.39,1.31-.27,1.7.28.06.08,5.65,7.75,13.6,8.14,4.87.25,9.84-2.34,14.57-7.7l.98-1.11.9,1.17c.06.08,6.32,8.03,14.35,8.03h.01c4.68,0,9.13-2.71,13.24-8.03l.99-1.28.96,1.3c.05.08,5.57,7.42,13.44,7.76,5.04.22,9.97-2.42,14.75-7.84l1.05-1.19.88,1.32c.05.07,4.67,6.85,11.9,7.44,4.98.4,10.07-2.15,15.18-7.6l1.02-1.09.87,1.22c.05.07,5.28,7.33,12.92,7.73,5,.26,9.89-2.38,14.71-7.83.45-.51,1.22-.55,1.72-.11.51.45.55,1.22.11,1.72-5.34,6.05-10.91,8.97-16.69,8.66-6.9-.37-11.9-5.32-13.85-7.62-5.34,5.32-10.77,7.79-16.2,7.34-6.44-.54-10.93-5.06-12.78-7.29-5,5.26-10.29,7.78-15.7,7.57-7.02-.31-12.2-5.21-14.28-7.54-4.35,5.18-9.13,7.8-14.23,7.8Z" style="fill: #2c70b8; stroke-width: 0px;"/>
  <path d="M243.6,194.78c-.17,0-.35-.04-.52-.12-.61-.29-.87-1.01-.58-1.63.49-1.04.43-1.53.41-1.65-.36-1.49-4.65-7.47-6.58-8.51l-.91-.5c-.54-.3-1.16-.65-1.35-.67l-1.45,1.49-.6-1.91c-.2-.68-.63-1.58-.94-1.79-.17-.12-.37-.28-.59-.45-.36-.29-1.38-1.03-1.69-1.03l-1.6,1.59-.43-2.21s-.31-1.34-1.46-2.07l-.47-.31c-3.09-2.02-3.88-2.01-4.08-1.81l-.96.94-.84-1.05c-1.49-1.85-5.29-5.49-6.94-4.29l-1.88,1.37-.06-2.33h0s-.38-1.35-4.05-2c-4.74-.83-8.19-5.55-10.04-8.08-.29-.39-.52-.71-.71-.94l-.43-.53c-1.33-1.65-3.8-4.68-5.63-5.87-.5-.18-2-.8-3.08-1.89-.91-.86-14.28-10.02-22.49-15.58l-.24-.21c-.82-.94-3.42-3.47-5.58-3.87-1.57-.29-8.78-.16-14.56-.06-7.43.13-9.54.14-10.2-.05-.79-.23-1.6-.73-2.22-1.18-1.72,2.49-6.01,8.68-8.3,12.06l2,1.39.11.44c2.09,8.03,6.23,21.41,8.45,23.12,2.26,1.74,3.75,2.47,4.74,2.95.52.25.91.45,1.22.67l23.68,16.44.14.27s1.25,2.4,3.23,3.15c.63.24.95.94.71,1.57-.24.63-.94.95-1.57.71-2.4-.91-3.91-3.22-4.39-4.03l-23.2-16.1c-.22-.16-.52-.29-.9-.48-1.08-.53-2.71-1.32-5.16-3.21-3.41-2.62-8.04-19.57-9.2-24.01l-3.24-2.25.67-1c2.49-3.72,9.74-14.16,9.74-14.16l.8-1.15,1.03.95c.52.47,1.6,1.3,2.34,1.51.63.11,5.32.03,9.47-.04,7.74-.13,13.36-.21,15.05.1,3.14.58,6.23,3.85,6.86,4.55,3.9,2.64,21.65,14.71,22.73,15.81.84.85,2.25,1.34,2.26,1.34l.25.12c2.19,1.35,4.79,4.56,6.34,6.47l.43.52c.21.25.47.61.79,1.04,1.65,2.26,4.72,6.46,8.49,7.12,3.27.57,4.77,1.77,5.47,2.76,3.12-.71,6.77,2.88,8.28,4.58,1.87-.51,4.28,1.07,5.97,2.18l.45.29c1.03.66,1.66,1.56,2.03,2.3,1.24-.03,2.6.98,3.34,1.57.18.14.33.27.47.36.61.42,1.06,1.13,1.37,1.78.87-.09,1.79.42,2.77.97l.88.49c2.59,1.4,7.3,8.03,7.79,10.1.22.91.03,1.98-.57,3.26-.21.44-.65.7-1.1.7Z" style="fill: #2c70b8; stroke-width: 0px;"/>
  <path d="M120,142.96l-8.36-5.58.54-.98c.18-.33,4.56-8.19,11.98-17.02l.72-.85,8.21,5.7-13.09,18.73ZM114.88,136.6l4.49,2.99,10.32-14.76-4.37-3.03c-5.39,6.54-9.09,12.52-10.44,14.8Z" style="fill: #2c70b8; stroke-width: 0px;"/>
  <path d="M133.69,154.8c-.43,0-.85-.23-1.07-.64-2.44-4.51-3.06-8.16-3.09-8.31-.11-.67.34-1.29,1-1.4.65-.1,1.29.34,1.41,1,0,.03.6,3.42,2.83,7.55.32.59.1,1.33-.49,1.65-.18.1-.38.15-.58.15Z" style="fill: #2c70b8; stroke-width: 0px;"/>
  <path d="M138.26,169.73c-.25,0-.51-.08-.72-.24-.54-.4-.66-1.16-.26-1.71.22-.3,22.23-30.29,26.02-36.48.36-.58,1.11-.76,1.68-.41.57.35.76,1.1.41,1.68-3.84,6.28-25.22,35.42-26.13,36.65-.24.33-.61.5-.98.5Z" style="fill: #2c70b8; stroke-width: 0px;"/>
  <path d="M162.4,186.83c-.24,0-.48-.07-.69-.22-.56-.38-.69-1.14-.31-1.7.18-.26,18.22-26.39,25.43-37.01.38-.56,1.14-.7,1.7-.33.56.38.7,1.14.33,1.7-7.21,10.63-25.26,36.76-25.44,37.02-.24.34-.62.53-1,.53Z" style="fill: #2c70b8; stroke-width: 0px;"/>
  <path d="M216.59,194.06c-.25,0-.5-.07-.71-.23-.55-.39-.67-1.16-.28-1.7,2.01-2.81,3.7-5.2,4.57-6.53.37-.56,1.13-.72,1.69-.35.56.37.72,1.13.35,1.69-.88,1.34-2.59,3.76-4.63,6.61-.24.33-.61.51-.99.51Z" style="fill: #2c70b8; stroke-width: 0px;"/>
  <path d="M206.23,191.77c-.25,0-.49-.07-.71-.23-.55-.39-.68-1.15-.29-1.7,3.08-4.33,5.94-7.49,6.07-7.62.46-.5,1.23-.53,1.72-.08.5.45.53,1.23.08,1.73-.03.03-2.89,3.18-5.88,7.39-.24.34-.61.51-.99.51Z" style="fill: #2c70b8; stroke-width: 0px;"/>
  <path d="M195.56,190.45c-.16,0-.32-.03-.47-.09-.62-.26-.91-.98-.65-1.6,1.21-2.9,2.46-5.65,4.39-7.45.49-.46,1.27-.43,1.73.06.46.49.43,1.27-.06,1.73-1.58,1.47-2.7,3.96-3.8,6.6-.2.47-.65.75-1.13.75Z" style="fill: #2c70b8; stroke-width: 0px;"/>
  <path d="M183.81,194.4c-.32,0-.65-.13-.88-.38-.47-.49-.45-1.26.04-1.73,1.22-1.16,2.43-2.97,3.58-5.39.54-1.13,1.02-2.16,1.46-3.1,2.45-5.26,3.79-8.16,7.52-10.56.56-.36,1.32-.2,1.69.36.37.57.2,1.32-.36,1.69-3.13,2.02-4.3,4.53-6.62,9.54-.44.96-.93,1.99-1.47,3.13-1.29,2.69-2.67,4.75-4.1,6.11-.24.22-.54.34-.84.34Z" style="fill: #2c70b8; stroke-width: 0px;"/>
  <path d="M154.97,222.78c-7.37,0-13.16-5.48-15.35-7.88-4.96,5.24-10.18,7.78-15.59,7.48-9.14-.47-15.2-8.81-15.45-9.16-.39-.55-.26-1.31.28-1.7.54-.39,1.31-.27,1.7.28.06.08,5.65,7.75,13.6,8.15,4.93.25,9.84-2.34,14.57-7.7l.98-1.11.9,1.17c.06.08,6.32,8.03,14.35,8.03h.01c4.68,0,9.13-2.71,13.24-8.03l.99-1.28.96,1.3c.05.08,5.57,7.42,13.44,7.76,5.1.24,9.97-2.42,14.75-7.84l1.05-1.19.88,1.32c.05.07,4.67,6.85,11.9,7.44,5,.4,10.07-2.15,15.18-7.6l1.02-1.09.87,1.22c.05.07,5.28,7.33,12.92,7.73,4.97.28,9.89-2.38,14.71-7.83.45-.51,1.22-.55,1.72-.11.51.45.55,1.22.11,1.72-5.34,6.05-10.89,8.97-16.69,8.66-6.9-.37-11.9-5.32-13.85-7.62-5.34,5.32-10.76,7.79-16.2,7.34-6.44-.54-10.93-5.06-12.78-7.29-5,5.26-10.3,7.78-15.7,7.57-7.02-.31-12.2-5.21-14.28-7.54-4.35,5.18-9.13,7.8-14.23,7.8Z" style="fill: #2c70b8; stroke-width: 0px;"/>
</svg>