<?xml version="1.0" encoding="UTF-8"?>
<svg id="Layer_1" data-name="Layer 1" xmlns="http://www.w3.org/2000/svg" viewBox="0 0 360 360">
  <g>
    <g>
      <path d="M198.85,192.07c-.07,0-.15,0-.22-.02-.66-.12-1.11-.75-.99-1.42.71-3.97,1.05-8.25,1.05-13.09,0-20.38-8.45-34.59-16.04-34.59-2.52,0-4.73.97-6.59,2.88-3.22,3.32-6.95,11.08-6.43,29.19.02.67-.51,1.24-1.19,1.26-.64.01-1.24-.51-1.26-1.19-.43-15.01,2.03-25.72,7.12-30.96,2.33-2.4,5.14-3.62,8.34-3.62,10.02,0,18.48,16.96,18.48,37.03,0,4.99-.36,9.41-1.09,13.52-.1.59-.62,1.01-1.2,1.01Z" style="fill: #2c70b8; stroke-width: 0px;"/>
      <path d="M203.6,191.56c-.07,0-.15,0-.22-.02-.66-.12-1.11-.75-.99-1.42.71-3.98,1.05-8.26,1.05-13.09,0-17.36-4.15-28.21-13.47-35.17-.54-.4-.65-1.17-.25-1.71s1.17-.65,1.71-.25c9.86,7.37,14.45,19.17,14.45,37.13,0,4.98-.36,9.4-1.09,13.52-.1.59-.62,1.01-1.2,1.01Z" style="fill: #2c70b8; stroke-width: 0px;"/>
      <path d="M225.43,187.87c-.07,0-.15,0-.22-.02-.66-.12-1.1-.76-.98-1.42.7-3.85.51-16.16-.15-20.73-2.66-18.39-16.77-25.48-25.5-24.51-.68.08-1.28-.4-1.35-1.08-.08-.67.41-1.27,1.08-1.35,9.94-1.14,25.27,6.37,28.2,26.59.69,4.79.88,17.38.13,21.51-.11.59-.62,1-1.2,1Z" style="fill: #2c70b8; stroke-width: 0px;"/>
      <path d="M251.6,181.07s-.09,0-.13,0c-.67-.07-1.16-.67-1.09-1.34.51-4.87-.09-12.94-.65-16.87-2.2-15.21-12.15-21.09-16.33-22.92-1.65-.72-2.48-1.3-3.02-1.69-.64-.46-.71-.5-2.01-.35-.62.06-1.27-.41-1.35-1.08-.07-.67.41-1.27,1.08-1.35,2.04-.23,2.63.03,3.69.78.49.35,1.17.83,2.59,1.45,4.55,1.99,15.39,8.38,17.77,24.81.58,4.05,1.2,12.4.66,17.47-.07.63-.6,1.09-1.21,1.09Z" style="fill: #2c70b8; stroke-width: 0px;"/>
      <path d="M271.12,175.54c-.05,0-.11,0-.17-.01-.67-.09-1.14-.71-1.04-1.37.42-3.15.81-6.21.89-9.06.07-2.42.02-4.91-.13-7.6-.53-9.09-6.73-17.49-15.8-21.4-.8-.35-1.62-.65-2.46-.92-1.83-.58-3.97-.25-6.05.06-.56.08-1.11.17-1.65.23l-8.15,1.01c-5.66.7-9.94,1.54-15.06,3.78-.9.39-1.69.74-2.58.82-.8.07-1.55-.08-2.22-.22l-.25-.05c-3.19-.64-7.73-.77-12.16-.33-2.2.22-4.39.51-6.59.8-1.09.14-2.17.29-3.26.42-2.02.25-3.97.44-5.91.63-1.94.19-3.87.38-5.89.63-.67.09-1.28-.39-1.36-1.06-.08-.67.39-1.28,1.06-1.36,2.03-.25,3.99-.44,5.95-.63,1.93-.19,3.85-.38,5.85-.62,1.08-.13,2.16-.28,3.24-.42,2.22-.29,4.45-.59,6.67-.81,4.65-.45,9.47-.32,12.88.37l.26.05c.55.11,1.06.22,1.51.18.5-.04,1.04-.28,1.61-.53,5.6-2.44,10.06-3.33,15.94-4.05l8.15-1.01c.52-.06,1.05-.15,1.58-.23,2.35-.36,4.78-.72,7.15.03.91.29,1.81.62,2.69,1,9.91,4.27,16.68,13.49,17.27,23.5.16,2.77.21,5.32.14,7.81-.08,2.97-.48,6.1-.91,9.32-.08.61-.61,1.06-1.21,1.06Z" style="fill: #2c70b8; stroke-width: 0px;"/>
      <path d="M195.52,193.87c-.54,0-1.11-.13-1.66-.52-1.01-.71-1.71-1.69-2.34-2.56-1.13-1.58-1.78-2.4-3.35-2.25-.47.04-.94.18-1.41.32-.99.28-2.12.6-3.32.28-2.12-.57-2.73-2.45-3.22-3.95-.35-1.07-.65-1.99-1.33-2.37-.36-.2-.88-.16-1.48-.11-.69.05-1.47.11-2.29-.16-.64-.21-.99-.9-.78-1.54.21-.64.9-.99,1.54-.78.35.12.81.08,1.34.04.82-.06,1.84-.14,2.84.41,1.53.84,2.06,2.46,2.48,3.75.48,1.48.77,2.15,1.53,2.35.56.15,1.24-.04,2.02-.27.59-.17,1.19-.34,1.86-.4,2.99-.26,4.42,1.69,5.55,3.26.56.78,1.09,1.51,1.76,1.99.2.14.48.09,1.22-.14l.27-.08c.39-.12.82-.18,1.24-.24.2-.03.39-.05.58-.09l47.61-9.35c.89-.18,1.8-.4,2.72-.63,2.99-.74,6.08-1.51,9.21-.82,1.83.41,3.65.95,5.42,1.47,4.02,1.19,7.81,2.3,11.8,2.06,1.69-.11,5.77-.64,7.02-3.25.29-.61,1.03-.86,1.63-.57.61.29.86,1.02.57,1.63-1.75,3.63-6.43,4.45-9.06,4.62-4.42.28-8.61-.96-12.66-2.15-1.72-.51-3.51-1.04-5.25-1.42-2.57-.57-5.37.13-8.09.8-.96.24-1.91.47-2.84.66l-47.61,9.35c-.23.04-.47.08-.71.11-.3.04-.61.08-.88.16l-.24.07c-.46.14-1.05.33-1.69.33Z" style="fill: #2c70b8; stroke-width: 0px;"/>
      <path d="M157.62,226.49c-19.58,0-39.26-1.55-58.91-4.64-6.79-1.07-13.92-2.44-19.82-6.31-3.32-2.18-5.33-4.71-5.98-7.52-.45-1.95-.07-4.12,1.03-5.82.29-.45.62-.85.98-1.2-4.1-1.59-7.86-4-11.01-7.07-5.02-4.89-7.96-12.68-3.88-18.1,2-2.65,5.21-3.94,7.78-4.98l23.81-9.61c-.26-1.03-.22-2.15.15-3.27.62-1.91,2.13-3.6,3.93-4.4,2.6-1.15,5.89-1,9.53.45,1.13.45,2.23.98,3.33,1.51,1.58.76,3.07,1.49,4.66,1.97,4.79,1.45,9.59.63,14.68-.23,4.03-.69,8.2-1.39,12.39-.89,9.37,1.14,18.69,7.11,23.74,15.22.36.57.18,1.33-.39,1.68-.57.36-1.32.18-1.68-.39-4.67-7.51-13.29-13.04-21.96-14.09-3.83-.47-7.65.18-11.69.87-5.14.87-10.45,1.78-15.79.16-1.77-.54-3.42-1.33-5.01-2.1-1.05-.51-2.1-1.01-3.17-1.44-2.1-.84-5.13-1.6-7.63-.49-1.19.53-2.19,1.65-2.6,2.92-.22.67-.36,1.65.17,2.59.18.31.21.67.1,1.01s-.37.6-.7.73l-24.94,10.07c-2.42.98-5.15,2.08-6.75,4.19-3.2,4.25-.52,10.83,3.63,14.88,3.53,3.44,7.91,5.99,12.65,7.37.54.16.9.66.88,1.22-.02.56-.43,1.03-.98,1.15-1.09.22-1.79.99-2.18,1.6-.73,1.14-1,2.66-.7,3.95.5,2.17,2.17,4.2,4.94,6.02,5.49,3.6,12.33,4.91,18.87,5.94,41.21,6.49,82.52,6.13,122.8-1.07,8.79-1.57,14.93-5.09,20.53-11.76.96-1.14,1.9-2.39,2.25-3.79,1.23-4.87-6.47-8.83-12.09-11.73-1.67-.86-3.11-1.6-4.17-2.29-.57-.37-.72-1.12-.36-1.69.37-.56,1.13-.72,1.69-.36.95.62,2.35,1.34,3.96,2.17,6.35,3.27,15.04,7.75,13.34,14.5-.47,1.87-1.6,3.4-2.75,4.76-5.92,7.05-12.7,10.93-21.97,12.59-21.33,3.81-42.95,5.72-64.69,5.72Z" style="fill: #2c70b8; stroke-width: 0px;"/>
    </g>
    <path d="M299.79,186c-3.95,0-7.71-1.11-11.36-2.19-1.72-.51-3.51-1.04-5.25-1.42-.66-.15-1.07-.8-.93-1.46.15-.65.8-1.07,1.46-.93,1.83.41,3.65.95,5.42,1.47,4.02,1.19,7.8,2.3,11.8,2.06,1.69-.11,5.77-.64,7.02-3.25.29-.61,1.02-.86,1.63-.57.61.29.86,1.02.57,1.63-1.75,3.63-6.43,4.46-9.06,4.63-.43.03-.87.04-1.3.04Z" style="fill: #2c70b8; stroke-width: 0px;"/>
  </g>
  <path d="M157.47,153.76c-.16,0-.33-.03-.48-.1-.35-.15-8.63-3.73-11.94-7.29-1.45-1.55-2.13-3.14-2.03-4.72.1-1.5.91-2.93,2.36-4.14,1.09-.91,2.6-1.31,4.13-1.06,1.76.28,3.29,1.32,4.3,2.93,1.76,2.8,4.71,12.4,4.84,12.8.14.45,0,.95-.35,1.27-.23.21-.52.31-.82.31ZM148.61,138.82c-.64,0-1.23.2-1.68.57-.93.78-1.43,1.59-1.48,2.42-.05.88.41,1.86,1.38,2.91,1.92,2.06,5.98,4.25,8.63,5.55-1.09-3.33-2.73-7.99-3.72-9.58-.64-1.01-1.57-1.65-2.62-1.82-.17-.03-.34-.04-.51-.04Z" style="fill: #2c70b8; stroke-width: 0px;"/>
</svg>