<?xml version="1.0" encoding="UTF-8"?>
<svg id="Layer_1" data-name="Layer 1" xmlns="http://www.w3.org/2000/svg" viewBox="0 0 360 360">
  <path d="M169.21,225.12h-63.4l.1-64.83q.43-1.02,62.1-.47h1.21v65.3ZM108.25,222.67h58.52v-60.43c-21.6-.19-52.38-.4-58.52-.31v60.74Z" style="fill: #2c70b8; stroke-width: 0px;"/>
  <path d="M121.39,224.84c-.67,0-1.22-.55-1.22-1.22v-61.78c0-.67.55-1.22,1.22-1.22s1.22.55,1.22,1.22v61.78c0,.67-.55,1.22-1.22,1.22Z" style="fill: #2c70b8; stroke-width: 0px;"/>
  <path d="M153.09,225.12c-.67,0-1.22-.55-1.22-1.22v-62.32c0-.67.55-1.22,1.22-1.22s1.22.55,1.22,1.22v62.32c0,.67-.55,1.22-1.22,1.22Z" style="fill: #2c70b8; stroke-width: 0px;"/>
  <path d="M130.33,224.84c-.67,0-1.22-.55-1.22-1.22v-61.78c0-.67.55-1.22,1.22-1.22s1.22.55,1.22,1.22v61.78c0,.67-.55,1.22-1.22,1.22Z" style="fill: #2c70b8; stroke-width: 0px;"/>
  <path d="M144.42,224.58c-.67,0-1.22-.55-1.22-1.22v-62.32c0-.67.55-1.22,1.22-1.22s1.22.55,1.22,1.22v62.32c0,.67-.55,1.22-1.22,1.22Z" style="fill: #2c70b8; stroke-width: 0px;"/>
  <path d="M167.72,195.59h-62.35l21.75-34.92c.36-.57,1.11-.74,1.68-.39.57.36.75,1.11.39,1.68l-19.43,31.19h57.95c.67,0,1.22.55,1.22,1.22s-.55,1.22-1.22,1.22Z" style="fill: #2c70b8; stroke-width: 0px;"/>
  <path d="M132.5,194.5c-.2,0-.4-.05-.59-.15-.59-.32-.81-1.07-.48-1.66l17.34-31.7c.32-.59,1.07-.81,1.66-.48.59.32.81,1.07.48,1.66l-17.34,31.7c-.22.41-.64.63-1.07.63Z" style="fill: #2c70b8; stroke-width: 0px;"/>
  <path d="M134.8,161.99h-18.7v-11.93h18.7v11.93ZM118.55,159.55h13.81v-7.04h-13.81v7.04Z" style="fill: #2c70b8; stroke-width: 0px;"/>
  <path d="M160.27,161.99h-18.7v-11.93h18.7v11.93ZM144.02,159.55h13.81v-7.04h-13.81v7.04Z" style="fill: #2c70b8; stroke-width: 0px;"/>
  <path d="M131.97,162.02l21.82-78.06h5.76l-20.56,77.95-7.03.11ZM155.64,86.4l-20.44,73.12,1.91-.03,19.27-73.09h-.74Z" style="fill: #2c70b8; stroke-width: 0px;"/>
  <path d="M157.3,162.08l21.82-78.06h5.76l-20.55,77.95-7.03.1ZM180.97,86.47l-20.44,73.12,1.91-.03,19.27-73.1h-.74Z" style="fill: #2c70b8; stroke-width: 0px;"/>
  <path d="M106.63,166.19h-14.09v-6.64h13.98l35.94-37.15c.47-.48,1.24-.5,1.73-.03.48.47.5,1.24.03,1.73l-36.66,37.9h-12.57v1.76h11.65c.67,0,1.22.55,1.22,1.22s-.55,1.22-1.22,1.22Z" style="fill: #2c70b8; stroke-width: 0px;"/>
  <path d="M140.83,154.2c-.31,0-.61-.11-.84-.34-.49-.47-.5-1.24-.04-1.72l28.65-29.87c.46-.49,1.24-.51,1.72-.04.49.47.5,1.24.04,1.72l-28.65,29.87c-.24.25-.56.38-.88.38Z" style="fill: #2c70b8; stroke-width: 0px;"/>
  <path d="M277.4,225.47H85.91c-.67,0-1.22-.55-1.22-1.22s.55-1.22,1.22-1.22h191.49c.67,0,1.22.55,1.22,1.22s-.55,1.22-1.22,1.22Z" style="fill: #2c70b8; stroke-width: 0px;"/>
  <path d="M111.43,243.58c-5.7,0-10.21-4.08-12.09-6.09-3.91,4.05-8.05,6-12.29,5.77-7.32-.38-12.16-7.04-12.36-7.32-.39-.55-.26-1.31.28-1.7.54-.4,1.31-.27,1.7.28.04.06,4.38,6,10.52,6.31,3.83.19,7.6-1.82,11.27-5.98l.98-1.11.91,1.17c.05.06,4.9,6.23,11.1,6.23h.01c3.6,0,7.04-2.1,10.22-6.23l.98-1.28.96,1.3c.04.06,4.32,5.74,10.39,6,3.85.13,7.7-1.88,11.41-6.09l1.05-1.19.88,1.31c.04.05,3.62,5.29,9.18,5.74,3.83.33,7.77-1.67,11.74-5.9l1.02-1.09.87,1.22c.04.06,4.1,5.67,9.98,5.98,3.8.22,7.63-1.85,11.37-6.08.45-.5,1.22-.55,1.72-.11.51.45.55,1.22.11,1.72-4.26,4.83-8.74,7.15-13.35,6.9-5.32-.29-9.23-3.97-10.91-5.88-4.2,4.11-8.46,6.02-12.77,5.66-4.96-.41-8.47-3.76-10.05-5.61-3.93,4.06-8.18,6-12.37,5.84-5.41-.24-9.45-3.87-11.23-5.81-3.42,3.99-7.19,6.01-11.22,6.01Z" style="fill: #2c70b8; stroke-width: 0px;"/>
  <path d="M204.98,243.53h0c-5.7,0-10.21-4.08-12.09-6.09-3.91,4.05-8.04,6.01-12.29,5.77-7.32-.38-12.16-7.04-12.37-7.32-.39-.55-.26-1.31.28-1.7.54-.39,1.31-.27,1.7.28.04.06,4.38,6,10.52,6.31,3.83.19,7.6-1.82,11.26-5.97l.98-1.11.91,1.17c.05.06,4.9,6.23,11.09,6.23h.01c3.6,0,7.04-2.1,10.22-6.23l.98-1.28.96,1.3c.04.06,4.32,5.74,10.39,6,3.85.21,7.7-1.88,11.41-6.09l1.05-1.19.88,1.31c.04.05,3.62,5.29,9.18,5.74,3.79.29,7.77-1.67,11.74-5.9l1.02-1.09.87,1.22c.04.06,4.1,5.67,9.98,5.98,3.81.14,7.63-1.85,11.37-6.08.45-.5,1.22-.55,1.72-.11.51.45.55,1.22.11,1.72-4.26,4.83-8.84,7.15-13.35,6.9-5.33-.29-9.23-3.97-10.91-5.88-4.2,4.11-8.46,6.03-12.77,5.66-4.96-.41-8.47-3.76-10.05-5.61-3.94,4.06-8.14,6.06-12.37,5.83-5.41-.24-9.45-3.87-11.23-5.8-3.43,3.99-7.19,6.01-11.22,6.01Z" style="fill: #2c70b8; stroke-width: 0px;"/>
  <path d="M111,259.82c-5.7,0-10.21-4.08-12.09-6.09-3.91,4.05-8.04,5.99-12.29,5.77-7.32-.38-12.16-7.04-12.37-7.32-.39-.55-.26-1.31.28-1.7.54-.39,1.31-.27,1.7.28.04.06,4.38,6,10.52,6.31,3.82.16,7.6-1.82,11.26-5.97l.98-1.11.91,1.17c.05.06,4.9,6.23,11.09,6.23h.01c3.6,0,7.03-2.1,10.22-6.23l.98-1.28.96,1.3c.04.06,4.32,5.74,10.39,6,3.9.21,7.7-1.88,11.41-6.09l1.05-1.19.88,1.31c.04.05,3.62,5.29,9.18,5.74,3.8.32,7.77-1.67,11.74-5.9l1.02-1.09.87,1.22c.04.06,4.1,5.67,9.98,5.98,3.82.15,7.63-1.85,11.37-6.08.45-.51,1.22-.55,1.72-.11.51.45.55,1.22.11,1.72-4.26,4.83-8.75,7.13-13.35,6.9-5.33-.29-9.23-3.97-10.91-5.88-4.2,4.12-8.46,6.03-12.77,5.66-4.96-.41-8.47-3.76-10.05-5.61-3.94,4.06-8.17,6.05-12.37,5.83-5.41-.24-9.45-3.87-11.23-5.8-3.42,3.99-7.19,6.01-11.22,6.01Z" style="fill: #2c70b8; stroke-width: 0px;"/>
  <path d="M204.55,259.77c-5.7,0-10.21-4.08-12.09-6.09-3.91,4.05-8.08,6.01-12.29,5.77-7.32-.38-12.16-7.04-12.37-7.32-.39-.55-.26-1.31.28-1.7.54-.39,1.31-.27,1.7.28.04.06,4.38,6,10.52,6.31,3.83.18,7.6-1.82,11.27-5.98l.98-1.11.91,1.17c.05.06,4.9,6.23,11.1,6.23h.01c3.6,0,7.04-2.1,10.22-6.23l.98-1.28.96,1.3c.04.06,4.32,5.74,10.39,6,3.87.15,7.7-1.88,11.4-6.09l1.05-1.19.88,1.31c.04.05,3.62,5.29,9.18,5.74,3.84.31,7.77-1.67,11.74-5.9l1.02-1.09.87,1.22c.04.06,4.1,5.67,9.98,5.98,3.79.22,7.63-1.85,11.37-6.08.45-.5,1.22-.55,1.72-.11.51.45.55,1.22.11,1.72-4.26,4.83-8.72,7.13-13.35,6.9-5.32-.29-9.23-3.97-10.91-5.88-4.21,4.12-8.5,6.01-12.77,5.66-4.96-.41-8.47-3.76-10.05-5.61-3.93,4.06-8.11,6.01-12.36,5.84-5.41-.24-9.45-3.87-11.23-5.81-3.42,3.99-7.19,6.01-11.22,6.01Z" style="fill: #2c70b8; stroke-width: 0px;"/>
  <path d="M240.27,225.13c-.62,0-1.15-.47-1.21-1.1-.07-.67.42-1.27,1.09-1.34,14.42-1.47,17.37-8.74,17.97-11.69h-74.4l6.25,5.9-1.83.69c-2.13.8-1.58,4.91-1.58,4.95.1.67-.36,1.29-1.02,1.39-.65.11-1.29-.35-1.39-1.02-.03-.21-.65-4.43,1.6-6.64l-8.17-7.72h83.14v1.22c0,.13-.23,13.29-20.32,15.34-.04,0-.08,0-.13,0Z" style="fill: #2c70b8; stroke-width: 0px;"/>
  <path d="M235.96,217.68h-48.25c-.67,0-1.22-.55-1.22-1.22s.55-1.22,1.22-1.22h48.25c.67,0,1.22.55,1.22,1.22s-.55,1.22-1.22,1.22Z" style="fill: #2c70b8; stroke-width: 0px;"/>
  <path d="M259.1,211.01c-.67,0-1.22-.55-1.22-1.22v-5.84h-8.24v-5.88h-8.54v11.33c0,.67-.55,1.22-1.22,1.22s-1.22-.55-1.22-1.22v-13.77h13.43v5.88h8.24v8.28c0,.67-.55,1.22-1.22,1.22Z" style="fill: #2c70b8; stroke-width: 0px;"/>
  <g>
    <rect x="193.59" y="198.1" width="6.28" height="6.28" style="fill: #2c70b8; stroke-width: 0px;"/>
    <path d="M201.09,205.59h-8.72v-8.72h8.72v8.72ZM194.81,203.15h3.83v-3.83h-3.83v3.83Z" style="fill: #2c70b8; stroke-width: 0px;"/>
  </g>
  <g>
    <rect x="205.02" y="198.1" width="6.28" height="6.28" style="fill: #2c70b8; stroke-width: 0px;"/>
    <path d="M212.52,205.59h-8.72v-8.72h8.72v8.72ZM206.24,203.15h3.83v-3.83h-3.83v3.83Z" style="fill: #2c70b8; stroke-width: 0px;"/>
  </g>
  <g>
    <rect x="216.03" y="198.1" width="6.28" height="6.28" style="fill: #2c70b8; stroke-width: 0px;"/>
    <path d="M223.52,205.59h-8.72v-8.72h8.72v8.72ZM217.25,203.15h3.83v-3.83h-3.83v3.83Z" style="fill: #2c70b8; stroke-width: 0px;"/>
  </g>
  <g>
    <rect x="227.08" y="198.1" width="6.28" height="6.28" style="fill: #2c70b8; stroke-width: 0px;"/>
    <path d="M234.58,205.59h-8.72v-8.72h8.72v8.72ZM228.3,203.15h3.83v-3.83h-3.83v3.83Z" style="fill: #2c70b8; stroke-width: 0px;"/>
  </g>
  <g>
    <rect x="204.87" y="186.62" width="6.28" height="6.28" style="fill: #2c70b8; stroke-width: 0px;"/>
    <path d="M212.37,194.12h-8.72v-8.72h8.72v8.72ZM206.09,191.68h3.83v-3.83h-3.83v3.83Z" style="fill: #2c70b8; stroke-width: 0px;"/>
  </g>
  <g>
    <rect x="215.88" y="186.62" width="6.28" height="6.28" style="fill: #2c70b8; stroke-width: 0px;"/>
    <path d="M223.38,194.12h-8.72v-8.72h8.72v8.72ZM217.1,191.68h3.83v-3.83h-3.83v3.83Z" style="fill: #2c70b8; stroke-width: 0px;"/>
  </g>
</svg>