<?xml version="1.0" encoding="UTF-8"?>
<svg id="Layer_1" data-name="Layer 1" xmlns="http://www.w3.org/2000/svg" viewBox="0 0 360 360">
  <path d="M197.21,109.52c-.5,0-.95-.3-1.14-.78-1.22-3.15-2.67-5.58-4.42-7.43-4.22-4.45-9.93-4.41-16.95-3.9-2.94.21-6.26.45-8.61,2.52-.51.45-1.28.39-1.72-.11-.45-.51-.4-1.28.11-1.72,2.97-2.62,6.9-2.9,10.05-3.13,6.04-.43,13.54-.98,18.89,4.65,1.21,1.28,2.29,2.79,3.25,4.56.25-1.57.38-3.18.38-4.8,0-13.03-8.29-23.63-18.49-23.63s-18.49,10.6-18.49,23.63c0,2.64.34,5.23,1.01,7.71.18.65-.21,1.32-.86,1.5-.66.18-1.32-.21-1.5-.86-.73-2.68-1.09-5.49-1.09-8.35,0-14.37,9.39-26.07,20.93-26.07s20.93,11.7,20.93,26.07c0,2.79-.35,5.53-1.04,8.16l-.02.78c-.02.58-.44,1.07-1.02,1.17-.07.01-.14.02-.21.02Z" style="fill: #2c70b8; stroke-width: 0px;"/>
  <path d="M179.77,133.3c-.2,0-.4,0-.6-.02-3.65-.17-5.56-1.89-7.99-4.06l-.44-.4c-4.44-3.95-7.28-9.61-7.8-15.52-.06-.67.44-1.26,1.11-1.32.63-.05,1.26.44,1.32,1.11.47,5.3,3.02,10.37,6.99,13.91l.45.4c2.23,1.99,3.7,3.31,6.48,3.44,5.52.26,7.87-4.04,8.77-6.64.34-.98.98-1.9,1.6-2.78.61-.87,1.24-1.76,1.41-2.52l.26-1.04c.32-1.27.69-2.7.59-3.8-.06-.67.43-1.27,1.1-1.33.67-.05,1.27.43,1.33,1.1.14,1.52-.28,3.17-.65,4.63l-.24.99c-.28,1.22-1.05,2.31-1.79,3.37-.55.78-1.07,1.52-1.29,2.18-1.84,5.3-5.68,8.29-10.6,8.29Z" style="fill: #2c70b8; stroke-width: 0px;"/>
  <path d="M139.05,222.38c-.18,0-.36-.04-.53-.12-.61-.3-.86-1.03-.56-1.63.44-.91.82-1.86,1.19-2.79.27-.68.35-1.16.27-1.52-.04-.19-.09-.36-.14-.52-.14-.5-.31-1.07-.27-1.81.02-.36.08-.72.15-1.08.05-.28.11-.56.11-.84,0-.31,0-.62-.01-.93-.02-.87-.04-1.77.11-2.71.17-1.1.85-1.81,1.4-2.38.17-.18.34-.35.49-.54.57-.73,1.12-1.59,1.67-2.61,1.06-1.96,1.85-4.07,2.49-5.88,1.25-3.55,2.18-7.6,2.84-12.39.5-3.6.69-6.49.62-9.11-.21-6.84-2.2-13.62-4.14-20.17-1.26-4.26-2.56-8.67-3.37-13.1-.13-.69-.39-2.13.43-3.26.51-.69,1.23-1.02,1.86-1.28,2.84-1.14,5.83-1.92,8.88-2.3.33-.04.88-.11,1.45.14,1.29.57,1.35,2.05,1.37,2.6.17,4.6,1.33,9.09,2.49,13.29l.55,1.96c.43,1.55.87,3.1,1.27,4.66.09.33.15.76.22,1.21.08.55.22,1.47.41,1.76.73,1.08,2.98,12.01,3.15,12.83l9.93-.86,23.6-1.84c2.35-.18,4.7-.35,7.06-.51.05-.49-.03-1.36-.06-1.73-.03-.34-.05-.63-.05-.83v-4.74c0-3.16,0-6.32.03-9.48.05-6.32.15-12.64.3-18.96,0-.39.02-1.05.43-1.64.44-.62,1.34-1.25,3.18-.78,2.68.69,4.68,1.38,6.29,2.17.19.09.47.2.79.32,1.55.6,3.3,1.28,3.66,2.65.2.74.03,1.44-.1,1.94-.84,3.45-1.39,7.1-1.69,11.17-.14,1.88-.22,3.78-.23,5.67,0,.99.07,17.32.45,20.62.51,4.46,1.03,8.91,1.57,13.36l.8,6.56c.05.39.08.83.1,1.31.05.95.13,2.13.43,2.74.3.6.06,1.34-.55,1.64-.61.3-1.34.05-1.64-.55-.53-1.06-.61-2.46-.69-3.69-.02-.42-.05-.81-.09-1.15l-.8-6.56c-.54-4.46-1.06-8.91-1.58-13.37-.41-3.61-.47-20.76-.47-20.92.02-1.94.1-3.9.24-5.83.31-4.2.89-7.98,1.76-11.56.06-.27.15-.6.11-.74-.21-.24-1.59-.78-2.18-1-.4-.16-.74-.29-.98-.41-1.44-.71-3.35-1.36-5.83-2-.31-.08-.5-.08-.6-.09.04.04.03.15.03.21-.15,6.31-.25,12.62-.3,18.92-.03,3.15-.04,6.31-.04,9.46v4.73c0,.15.03.37.05.63.14,1.55.2,2.89-.52,3.72-.32.37-.76.59-1.25.63-2.49.17-4.98.35-7.47.54l-33.75,2.63c-.27.02-.85.07-1.4-.26-.76-.46-.91-1.3-.97-1.62-.37-2.04-2.39-11.08-2.83-12.03-.45-.65-.61-1.73-.75-2.68-.05-.36-.1-.7-.17-.97-.4-1.55-.83-3.08-1.26-4.61l-.55-1.97c-1.2-4.34-2.39-8.99-2.58-13.84,0-.2-.02-.33-.04-.42-.02,0-.03,0-.05,0-2.83.36-5.61,1.08-8.27,2.14-.25.1-.67.27-.8.45-.2.28-.06,1.04,0,1.37.79,4.31,2.07,8.65,3.31,12.86,1.98,6.7,4.02,13.63,4.24,20.78.08,2.75-.12,5.77-.64,9.51-.68,4.95-1.65,9.16-2.95,12.86-.67,1.9-1.5,4.12-2.64,6.23-.62,1.14-1.24,2.11-1.89,2.95-.2.26-.42.5-.65.73-.43.45-.7.74-.75,1.07-.11.72-.1,1.48-.08,2.27,0,.33.02.66.01.99,0,.43-.07.86-.16,1.28-.05.25-.1.5-.11.75-.01.34.06.61.18,1.02.06.21.12.41.17.64.2.86.08,1.81-.35,2.91-.42,1.06-.82,2.07-1.29,3.03-.21.43-.65.69-1.1.69Z" style="fill: #2c70b8; stroke-width: 0px;"/>
  <path d="M197.19,133.95c-.28,0-.57-.1-.8-.3-1.76-1.53-3.22-3.34-4.33-5.39-.31-.58-.65-1.28-.81-2.07-.11-.53-.12-1.08-.13-1.63l-.08-5.35c-.01-.67.52-1.23,1.2-1.24h.02c.67,0,1.21.53,1.22,1.2l.08,5.36c0,.4,0,.79.08,1.18.1.48.33.95.57,1.4.97,1.79,2.23,3.37,3.77,4.71.51.44.57,1.21.12,1.72-.24.28-.58.42-.92.42Z" style="fill: #2c70b8; stroke-width: 0px;"/>
  <path d="M117.53,219.53c-.6,0-1.13-.45-1.21-1.06-.26-1.97.61-3.74,1.39-5.29.18-.37.37-.74.53-1.11,1.19-2.62,1.29-5.47,1.39-8.48.04-1.03.07-2.06.15-3.08.15-1.97.71-3.54,1.65-4.69-.26-.84-.48-1.72-.64-2.63-1.38-7.47.67-15.26,2.49-22.13,1.92-7.29,4.45-14.49,6.9-21.46.45-1.28.91-2.58,1.65-3.79.99-1.62,2.49-3.03,4.34-4.08,1.13-.63,2.26-.96,3.35-1.27.62-.18,1.24-.35,1.85-.59.63-.25,1.34.06,1.58.69.25.63-.06,1.34-.69,1.58-.69.27-1.38.47-2.07.67-1,.29-1.95.56-2.83,1.05-1.49.84-2.69,1.96-3.46,3.23-.6.99-1,2.12-1.42,3.31-2.43,6.94-4.95,14.1-6.85,21.3-1.75,6.62-3.73,14.13-2.45,21.07.19,1.04.46,2.04.79,2.97.16.47.03.98-.34,1.31-.81.73-1.29,1.96-1.43,3.66-.08.98-.11,1.98-.15,2.97-.11,3.12-.22,6.35-1.6,9.41-.18.4-.38.79-.57,1.19-.67,1.36-1.31,2.65-1.15,3.88.09.67-.38,1.28-1.05,1.37-.05,0-.11,0-.16,0Z" style="fill: #2c70b8; stroke-width: 0px;"/>
  <path d="M237.48,198.78c-.06,0-.12,0-.19-.01-.67-.1-1.13-.72-1.02-1.39.72-4.77,1.16-9.64,1.31-14.47.08-2.55.08-5.23-.82-7.65-.2-.53-.43-1.04-.67-1.55-.33-.72-.66-1.43-.9-2.18-.29-.89-.45-1.78-.6-2.64-.07-.41-.15-.82-.23-1.22-.42-1.9-1.17-3.8-1.84-5.47-1.09-2.74-2.2-5.46-3.31-8.19-1.14-2.8-2.28-5.6-3.4-8.41-.33-.82-.63-1.59-1.09-2.22-1.27-1.76-3.47-2.33-5.81-2.93-.64-.16-1.27-.33-1.87-.51-.64-.2-1.01-.88-.81-1.53.2-.65.88-1.01,1.53-.81.57.17,1.16.33,1.76.48,2.53.65,5.4,1.39,7.18,3.87.63.88,1.01,1.83,1.38,2.75,1.12,2.8,2.25,5.6,3.39,8.39,1.11,2.74,2.23,5.47,3.32,8.21.7,1.76,1.49,3.75,1.95,5.85.09.43.17.87.25,1.3.15.82.29,1.59.52,2.32.21.66.51,1.29.8,1.92.26.57.52,1.14.74,1.73,1.05,2.83,1.05,5.9.97,8.57-.15,4.93-.6,9.9-1.34,14.77-.09.6-.61,1.04-1.2,1.04Z" style="fill: #2c70b8; stroke-width: 0px;"/>
  <path d="M68.93,266.35c-.23,0-.44-.04-.65-.12-.5-.21-.86-.63-1-1.2-.18-.71,0-1.53.47-2.24.54-.81,1.24-1.48,1.92-2.13.34-.33.67-.65.97-.98,1.03-1.14,1.77-2.12,2.33-3.1,1.13-1.96,2.04-4.2,2.88-7.03,1.38-4.65,2.57-10.18.9-15.95-1.4-4.85-3.89-9.35-8.08-14.59-.88-1.11-1.74-2.01-2.69-2.82-.38-.33-.52-.86-.36-1.33.17-.47.61-.8,1.11-.81,5.5-.17,12.69-.24,19.61.73,5.72.8,11.75,2.55,18.44,5.33.62.26.92.98.66,1.6-.26.62-.98.91-1.6.66-6.49-2.71-12.33-4.4-17.84-5.17-5.6-.78-11.44-.87-16.34-.78.3.34.6.7.9,1.08,4.34,5.43,7.04,10.33,8.52,15.43,1.84,6.37.57,12.33-.91,17.32-.89,3.02-1.88,5.42-3.1,7.55-.65,1.14-1.49,2.26-2.64,3.53-.3.33-.64.66-.98.99,2.47-1.58,4.68-3.08,6.71-4.55l.42-.31c2.2-1.6,4.28-3.1,6.08-5.01.92-.98,1.8-1.99,2.67-3.01,1.61-1.88,3.27-3.83,5.25-5.48,2.71-2.28,5.53-3.66,8.38-4.1l.77-.1c.77-.1,1.5-.19,2.05-.48.58-.32,1.33-.09,1.65.51.32.59.09,1.33-.51,1.65-.95.51-1.98.64-2.89.75l-.7.1c-2.41.37-4.83,1.57-7.19,3.56-1.82,1.53-3.35,3.31-4.96,5.2-.9,1.05-1.8,2.1-2.75,3.1-1.96,2.07-4.23,3.71-6.42,5.31l-.42.31c-2.71,1.97-5.72,3.98-9.22,6.13-.53.32-1.02.49-1.47.49Z" style="fill: #2c70b8; stroke-width: 0px;"/>
  <path d="M170.77,275.18c-.35,0-.71,0-1.06-.02-.65-.03-1.17-.56-1.17-1.21v-1.04c-.01-.44.22-.85.6-1.08,1.7-.98,3.46-1.99,4.8-3.37.8-.82,2.08-2.79,2.2-3.61-.04,0-.07-.01-.1-.02-1.95-.29-3.92-.5-5.89-.71-4.9-.53-9.96-1.07-14.72-2.82-.63-.23-.96-.93-.72-1.57.23-.63.94-.96,1.57-.72,4.47,1.65,9.38,2.17,14.13,2.69,2,.21,4,.43,5.99.72.35.05,1,.15,1.51.63.3.28.65.78.67,1.58.05,2.32-2.88,5.5-2.9,5.53-.97.99-2.07,1.79-3.2,2.51,7.65-.54,14.54-4.59,21.22-8.52l1-.58c.82-.48,1.9-.66,2.85-.82.37-.06.72-.12,1.01-.19,1.38-.34,2.75-.7,4.12-1.06,1.5-.39,2.99-.78,4.48-1.15,1.27-.31,2.53-.61,3.78-.89,4.84-1.12,9.41-2.18,13.94-4.2,3.6-1.6,7.13-3.58,10.54-5.49,1.1-.62,2.2-1.23,3.31-1.84l1.6-.87c4.06-2.21,8.26-4.49,11.59-7.65,3.73-3.54,6.11-5.55,11.73-5.62,5.07-.07,10.44-1.72,15.96-4.91,3.87-2.24,7.27-4.96,10.87-7.84l1.66-1.32c.54-.43,1.24-.9,2.01-1.41,1.96-1.31,4.54-3.02,5.15-4.82-2.82,0-5.75.33-8.6.64-1.49.16-2.98.32-4.44.44-.41.03-.87-.17-1.11-.54-.25-.37-.27-.84-.07-1.24,1.82-3.54,3.88-7.55,7.2-10.43.85-.74,1.65-1.43,1.62-2.03-.03-.73-1.31-1.28-2.57-1.49-2.62-.44-5.33-.62-7.95-.78l-23.08-1.47c-3.53-.23-16.92,1.26-21.67,2.15-11.11,2.09-22.28,5.3-31.87,8.15-2.79.83-5.56,1.65-8.4,2.11-3.79.6-7.62.53-11.32.47-1.88-.04-3.75-.07-5.62-.02l-1.47.03c-3.45.06-7.64.13-10.41,1.88,1.39,1.14,2.74,2.7,3.26,5,.15.63-.23,1.27-.86,1.45-8.53,2.4-18.08,4.02-29.17,4.93-4.48.37-9.25.64-15.02.84-2.43.09-4.85.15-7.28.21-.54.01-1.16-.01-1.81-.04-1.55-.07-3.3-.14-4.32.4-.6.31-1.34.08-1.65-.52-.31-.6-.08-1.34.52-1.65,1.61-.84,3.71-.75,5.56-.67.58.02,1.13.04,1.65.04,2.42-.06,4.84-.12,7.25-.21,5.73-.2,10.46-.47,14.9-.83,10.4-.86,19.41-2.34,27.48-4.51-.55-1.22-1.56-2.28-3.19-3.37-.3-.21-.5-.53-.53-.9-.03-.36.1-.72.35-.98,3.33-3.33,8.82-3.42,13.23-3.5l1.45-.03c1.91-.05,3.82-.02,5.73.02,3.59.06,7.31.13,10.89-.44,2.69-.43,5.38-1.23,7.99-2.01,9.76-2.89,20.99-6.12,32.21-8.23,4.51-.85,18.3-2.46,22.28-2.19l23.07,1.47c2.68.17,5.46.35,8.21.81,2.8.48,4.52,1.9,4.6,3.8.07,1.78-1.31,2.98-2.32,3.85-2.5,2.18-4.25,5.06-5.74,7.85.71-.07,1.43-.15,2.15-.23,3.37-.37,6.83-.75,10.23-.63.59.02,1.09.47,1.17,1.06.49,3.67-3.45,6.3-6.32,8.21-.71.47-1.35.9-1.84,1.29l-1.65,1.32c-3.51,2.81-7.15,5.72-11.18,8.05-5.89,3.4-11.66,5.16-17.15,5.24-4.73.06-6.61,1.65-10.08,4.95-3.56,3.38-7.91,5.74-12.1,8.02l-1.59.87c-1.1.6-2.2,1.22-3.29,1.83-3.46,1.94-7.03,3.94-10.74,5.59-4.75,2.11-9.42,3.2-14.38,4.35-1.24.29-2.49.58-3.75.89-1.48.36-2.96.75-4.45,1.14-1.39.36-2.77.73-4.16,1.07-.35.09-.77.16-1.2.23-.7.12-1.58.26-2.01.52l-.99.58c-7.47,4.39-15.18,8.92-24.18,8.92ZM176.33,264.89h.02-.02Z" style="fill: #2c70b8; stroke-width: 0px;"/>
  <path d="M124.64,241.7c-.6,0-1.12-.44-1.21-1.05-.31-2.24-1.2-4.37-2.58-6.17-.74-.96-1.71-1.59-2.47-1.6h-.02c-.47,0-.89.24-1.29.73-.26.32-.47.73-.69,1.18-.3.59-.64,1.27-1.18,1.86-.57.61-1.14.91-1.76.92h-.02c-.88,0-1.45-.59-1.87-1.02-.21-.22-.45-.47-.61-.51-.31-.12-.99.78-1.32,1.26-1.43,2.07-3.05,3.44-4.83,4.12-.62.24-1.34-.07-1.58-.7-.24-.63.07-1.34.7-1.58,1.31-.5,2.55-1.58,3.67-3.19.66-.95,1.96-2.83,4.02-2.26.8.22,1.32.77,1.71,1.17.04.04.08.08.12.12.3-.34.54-.8.78-1.29.26-.51.55-1.09.97-1.61,1.09-1.35,2.33-1.64,3.19-1.64h.05c1.52.02,3.16.97,4.38,2.55,1.64,2.13,2.7,4.66,3.06,7.32.09.67-.37,1.29-1.04,1.38-.06,0-.11.01-.17.01ZM113.21,235.16h0Z" style="fill: #2c70b8; stroke-width: 0px;"/>
  <path d="M118.08,250.88c-.07,0-.14,0-.21,0-2.03-.06-4.07-.58-5.88-1.5l-.55-.29c-.61-.33-1.18-.64-1.73-.72-.55-.09-1.19.05-1.86.19-.59.12-1.19.25-1.85.27-.78,0-1.27-.11-1.74-.39-.8-.48-1.22-1.37-1.05-2.22.13-.66.75-1.1,1.43-.96.55.11.95.57.98,1.11.06.01.16.02.31.01.47-.01.95-.12,1.42-.22.82-.17,1.74-.36,2.72-.22.97.15,1.8.59,2.53.98l.5.26c1.49.76,3.17,1.19,4.84,1.24.78.05,1.22-.14,1.32-.31.34-.58,1.08-.78,1.67-.45.58.34.78,1.09.45,1.67-.41.7-1.31,1.53-3.29,1.53ZM105.6,246.7s0,0,0,0c0,0,0,0,0,0Z" style="fill: #2c70b8; stroke-width: 0px;"/>
  <path d="M114.9,249.31c-.25,0-.5-.08-.72-.24-.54-.4-.66-1.16-.26-1.71.31-.41.63-.82.96-1.22.53-.65,1.03-1.26,1.42-1.93.35-.58,1.1-.77,1.67-.42.58.35.77,1.09.42,1.67-.48.81-1.06,1.53-1.62,2.22-.3.37-.6.74-.88,1.13-.24.33-.61.5-.98.5Z" style="fill: #2c70b8; stroke-width: 0px;"/>
  <path d="M152.78,136.59c-.46,0-.9-.26-1.11-.7-.41-.87.07-1.83,1.02-3.58.19-.35.46-.85.57-1.11-.48-3.04.68-6.29,3.06-8.54,1.98-1.87,6.33-4.12,9.38-3,.63.23.96.93.73,1.57-.23.64-.94.96-1.57.73-1.86-.68-5.31,1.01-6.86,2.48-1.82,1.72-2.72,4.3-2.29,6.57.12.63-.21,1.25-.87,2.47-.26.49-.74,1.37-.85,1.74.07.52-.2,1.04-.69,1.27-.17.08-.34.11-.52.11ZM153.88,134.86h0s0,0,0,0Z" style="fill: #2c70b8; stroke-width: 0px;"/>
  <path d="M148.86,258.39c-.18,0-.35-.04-.52-.12-9.49-4.5-11.17-5.55-11.59-5.97-.67-.46-4.54-2.14-7.96-3.52-.62-.25-.93-.97-.67-1.59s.97-.93,1.59-.67c7.16,2.9,8.45,3.72,8.81,4.1.81.57,6.1,3.19,10.87,5.45.61.29.87,1.02.58,1.63-.21.44-.65.7-1.1.7Z" style="fill: #2c70b8; stroke-width: 0px;"/>
</svg>