<?xml version="1.0" encoding="UTF-8"?>
<svg id="Layer_1" data-name="Layer 1" xmlns="http://www.w3.org/2000/svg" viewBox="0 0 360 360">
  <g>
    <path d="M245.84,209.98c-.2,0-.41-.05-.59-.16-.59-.33-.8-1.07-.47-1.66l16.47-29.58c-8.94-.24-20.74,2.32-35.45,5.46-12.01,2.56-25.62,5.46-41.06,7.62-30.8,4.31-58.78-.53-66.08-2l3.47,17.08c.13.66-.29,1.3-.95,1.44-.65.13-1.3-.29-1.44-.95l-3.84-18.9c-.08-.41.05-.83.35-1.12.3-.29.73-.41,1.13-.31.32.07,31.81,7.27,67.03,2.34,15.35-2.15,28.92-5.04,40.89-7.59,15.99-3.41,28.63-6.08,38.07-5.41.42.03.79.27.99.64.2.37.19.81,0,1.17l-17.42,31.3c-.22.4-.64.63-1.07.63Z" style="fill: #2c70b8; stroke-width: 0px;"/>
    <path d="M162.2,201.73c-24.11,0-49.06-5.16-49.36-5.22-.66-.14-1.08-.78-.94-1.45.14-.66.79-1.1,1.45-.94.37.08,37.48,7.74,64.57,4.27,23.1-2.96,44.99-7.14,58.57-11.18,11.36-3.38,19.39-4.36,23.16-4.65.67-.06,1.26.45,1.31,1.13.05.67-.45,1.26-1.13,1.31-3.68.28-11.51,1.24-22.65,4.55-13.7,4.07-35.74,8.28-58.96,11.26-5.09.65-10.54.92-16.02.92Z" style="fill: #2c70b8; stroke-width: 0px;"/>
    <path d="M180.87,190.63c-.67,0-1.22-.55-1.22-1.22v-25.84c0-.67.55-1.22,1.22-1.22h23.63c.37,0,.72.17.95.46.23.29.32.67.24,1.03l-5.32,23.92c-.15.66-.79,1.07-1.46.93-.66-.15-1.07-.8-.93-1.46l4.99-22.44h-20.88v24.62c0,.67-.55,1.22-1.22,1.22Z" style="fill: #2c70b8; stroke-width: 0px;"/>
    <path d="M224.28,183.1c-.1,0-.21-.01-.31-.04-.65-.17-1.04-.84-.87-1.5l4.46-16.77h-23.07c-.67,0-1.21-.54-1.22-1.21s.53-1.22,1.2-1.23l33.23-.61-4.17-4.17-27.83.72-26.51,5.44c-.11.02-.22.03-.33.02l-14.32-1.03c-.67-.05-1.18-.63-1.13-1.31.05-.67.63-1.18,1.31-1.13l14.16,1.02,26.56-5.43,28.57-.76c.3-.01.66.12.89.36l6.57,6.57c.35.35.45.87.27,1.32-.18.45-.62.75-1.11.76l-10.4.19-4.76,17.88c-.15.55-.64.91-1.18.91Z" style="fill: #2c70b8; stroke-width: 0px;"/>
    <path d="M212.91,156.38c-.67,0-1.22-.55-1.22-1.22v-34.26c0-.67.55-1.22,1.22-1.22s1.22.55,1.22,1.22v34.26c0,.67-.55,1.22-1.22,1.22Z" style="fill: #2c70b8; stroke-width: 0px;"/>
    <path d="M217.64,134.96h-11.66c-.67,0-1.22-.55-1.22-1.22s.55-1.22,1.22-1.22h11.66c.67,0,1.22.55,1.22,1.22s-.55,1.22-1.22,1.22Z" style="fill: #2c70b8; stroke-width: 0px;"/>
    <path d="M217.19,128.47c-.67,0-1.22-.55-1.22-1.22v-5.32c0-.67.55-1.22,1.22-1.22s1.22.55,1.22,1.22v5.32c0,.67-.55,1.22-1.22,1.22Z" style="fill: #2c70b8; stroke-width: 0px;"/>
    <path d="M217.19,147.07c-.67,0-1.22-.55-1.22-1.22v-5.32c0-.67.55-1.22,1.22-1.22s1.22.55,1.22,1.22v5.32c0,.67-.55,1.22-1.22,1.22Z" style="fill: #2c70b8; stroke-width: 0px;"/>
    <path d="M164.33,191.96c-.67,0-1.22-.55-1.22-1.22v-30.42c0-.08,0-.17.03-.25l8.57-41.05c.12-.57.62-.97,1.19-.97h6.35c.56,0,1.05.38,1.18.92l10.04,39.87c.17.65-.23,1.32-.88,1.48-.66.17-1.32-.23-1.48-.88l-9.81-38.95h-4.4l-8.34,39.96v30.29c0,.67-.55,1.22-1.22,1.22Z" style="fill: #2c70b8; stroke-width: 0px;"/>
    <path d="M189.29,120.64h-.04l-28.65-1.03c-.67-.03-1.2-.59-1.18-1.26.03-.67.66-1.13,1.26-1.18l28.65,1.03c.67.03,1.2.59,1.18,1.26-.02.66-.57,1.18-1.22,1.18Z" style="fill: #2c70b8; stroke-width: 0px;"/>
    <path d="M134.06,211.47c-3.79,0-6.83-2.52-8.29-4.01-2.68,2.67-5.51,3.98-8.44,3.79-5.2-.27-8.63-4.98-8.77-5.18-.39-.55-.26-1.31.28-1.7.54-.39,1.31-.27,1.7.28.03.04,2.9,3.97,6.92,4.17,2.5.12,4.98-1.21,7.41-3.97l.98-1.1.91,1.17s3.25,4.12,7.3,4.12h.01c2.34,0,4.59-1.39,6.7-4.12l.98-1.28.96,1.3s2.86,3.79,6.83,3.96c2.5.13,5.05-1.25,7.51-4.04l1.04-1.18.88,1.31s2.39,3.48,6.01,3.77c2.52.22,5.1-1.12,7.73-3.93l1.02-1.09.87,1.22s2.71,3.74,6.55,3.94c2.5.11,5-1.23,7.48-4.04.45-.5,1.22-.55,1.72-.11.51.45.55,1.22.11,1.72-3.01,3.41-6.26,5.05-9.46,4.86-3.52-.19-6.17-2.46-7.48-3.86-2.87,2.71-5.8,3.95-8.77,3.72-3.26-.27-5.64-2.32-6.88-3.67-2.69,2.67-5.53,3.92-8.48,3.82-3.57-.16-6.29-2.38-7.67-3.8-2.35,2.61-4.93,3.94-7.7,3.94Z" style="fill: #2c70b8; stroke-width: 0px;"/>
    <path d="M198.2,211.43h0c-3.79,0-6.83-2.52-8.29-4.01-2.68,2.67-5.53,3.93-8.45,3.79-5.2-.27-8.63-4.98-8.77-5.18-.39-.55-.26-1.31.28-1.7.54-.39,1.31-.27,1.7.28.03.04,2.9,3.97,6.93,4.17,2.5.12,4.98-1.21,7.41-3.97l.98-1.1.91,1.17s3.25,4.12,7.3,4.12h.01c2.34,0,4.6-1.39,6.7-4.12l.98-1.28.96,1.3s2.86,3.79,6.83,3.96c2.49.13,5.05-1.25,7.51-4.04l1.04-1.18.88,1.31s2.39,3.48,6.01,3.77c2.51.22,5.1-1.12,7.74-3.93l1.02-1.09.87,1.22s2.71,3.74,6.55,3.94c2.46.1,5-1.23,7.48-4.04.45-.5,1.22-.55,1.72-.11.51.45.55,1.22.11,1.72-3,3.41-6.2,5.05-9.46,4.86-3.52-.19-6.17-2.46-7.48-3.86-2.88,2.71-5.83,3.94-8.77,3.72-3.26-.27-5.64-2.32-6.88-3.67-2.69,2.67-5.53,3.92-8.48,3.82-3.57-.16-6.29-2.38-7.67-3.8-2.35,2.61-4.94,3.93-7.7,3.93Z" style="fill: #2c70b8; stroke-width: 0px;"/>
    <path d="M133.77,232.38c-3.79,0-6.83-2.52-8.29-4.01-2.68,2.67-5.48,3.94-8.44,3.79-5.2-.27-8.63-4.98-8.77-5.18-.39-.55-.26-1.31.28-1.7.54-.39,1.31-.27,1.7.28.03.04,2.9,3.97,6.93,4.17,2.46.12,4.98-1.21,7.41-3.97l.98-1.1.91,1.16s3.25,4.12,7.3,4.12h.01c2.34,0,4.6-1.39,6.7-4.12l.98-1.28.96,1.3s2.86,3.79,6.83,3.96c2.52.04,5.05-1.26,7.51-4.04l1.04-1.18.88,1.31s2.39,3.48,6.01,3.77c2.52.23,5.1-1.12,7.73-3.93l1.02-1.09.87,1.22s2.71,3.74,6.56,3.94c2.5.1,5-1.23,7.48-4.04.45-.5,1.22-.55,1.72-.11.51.45.55,1.22.11,1.72-3,3.4-6.18,5-9.46,4.86-3.52-.19-6.17-2.46-7.48-3.86-2.87,2.71-5.79,3.96-8.77,3.72-3.26-.27-5.64-2.32-6.88-3.67-2.69,2.67-5.58,3.97-8.48,3.82-3.57-.16-6.29-2.38-7.67-3.79-2.35,2.61-4.94,3.93-7.7,3.93Z" style="fill: #2c70b8; stroke-width: 0px;"/>
    <path d="M197.9,232.35h0c-3.79,0-6.83-2.52-8.29-4.01-2.68,2.67-5.5,3.99-8.44,3.79-5.2-.27-8.63-4.98-8.77-5.18-.39-.55-.26-1.31.28-1.7.54-.39,1.31-.27,1.7.28.03.04,2.9,3.97,6.92,4.17,2.48.13,4.98-1.21,7.41-3.97l.98-1.1.91,1.17s3.25,4.12,7.3,4.12h.01c2.34,0,4.6-1.39,6.7-4.12l.98-1.28.96,1.3s2.86,3.79,6.83,3.96c2.53.11,5.05-1.25,7.51-4.04l1.04-1.18.88,1.31s2.39,3.48,6.01,3.77c2.52.23,5.1-1.12,7.74-3.93l1.02-1.09.87,1.22s2.71,3.74,6.55,3.94c2.48.1,5-1.23,7.48-4.04.45-.5,1.22-.55,1.72-.11.51.45.55,1.22.11,1.72-3,3.4-6.2,5.07-9.46,4.86-3.52-.19-6.17-2.46-7.48-3.86-2.87,2.71-5.83,3.94-8.77,3.72-3.26-.27-5.64-2.32-6.88-3.67-2.69,2.67-5.55,3.93-8.48,3.82-3.57-.16-6.29-2.38-7.67-3.8-2.35,2.61-4.94,3.94-7.7,3.94Z" style="fill: #2c70b8; stroke-width: 0px;"/>
    <path d="M131.7,191.22c-.22,0-.44-.06-.64-.18-.57-.35-.75-1.11-.4-1.68l12.17-19.78h37.6c.67,0,1.22.55,1.22,1.22s-.55,1.22-1.22,1.22h-36.23l-11.46,18.61c-.23.37-.63.58-1.04.58Z" style="fill: #2c70b8; stroke-width: 0px;"/>
  </g>
  <path d="M122.91,189.37c-.38,0-.76-.18-1-.52-.72-1.03-1.28-2.19-1.82-3.3-.35-.72-.7-1.45-1.09-2.12-1.06-1.84-2.22-3.65-3.45-5.38-2.46-3.48-5.25-6.75-8.27-9.72-.48-.47-.49-1.24-.02-1.73.47-.48,1.24-.49,1.73-.02,3.13,3.06,6.01,6.45,8.56,10.05,1.27,1.79,2.47,3.66,3.57,5.56.42.73.8,1.5,1.18,2.28.52,1.08,1.01,2.09,1.62,2.97.39.55.25,1.31-.3,1.7-.21.15-.46.22-.7.22Z" style="fill: #2c70b8; stroke-width: 0px;"/>
  <path d="M91.95,189.77c-.81,0-1.64-.2-2.44-.59-.61-.3-.86-1.03-.57-1.63.3-.61,1.03-.86,1.63-.57,1.04.51,2.01.45,2.89-.14,1.49-.99,2.97-3.81,2.68-8.73-.27-4.5.73-7.85,2.98-9.95,2.01-1.87,5-2.65,8.43-2.2.67.09,1.14.7,1.05,1.37-.09.67-.71,1.13-1.37,1.05-1.56-.21-4.47-.28-6.45,1.56-1.69,1.58-2.43,4.27-2.21,8.02.3,5.05-1.1,9.13-3.76,10.9-.89.6-1.87.9-2.87.9Z" style="fill: #2c70b8; stroke-width: 0px;"/>
</svg>