<?xml version="1.0" encoding="UTF-8"?>
<svg id="Layer_1" data-name="Layer 1" xmlns="http://www.w3.org/2000/svg" viewBox="0 0 360 360">
  <path d="M220.64,283.02c-2.97,0-6.06-.56-9.15-1.69-4.58-1.68-8.17-4.45-12.06-7.62-3.75-3.07-6.73-5.85-9.11-8.5-2.65-2.95-5.19-6.2-7.77-9.92l-.41-.6c-2.15-3.08-4.59-6.57-4.45-10.74.18-5.15,2.91-10.45,5.84-15.4h0s.57-.95.57-.95c3.04-5.08,6.98-9.84,11.7-14.15,5.38-4.91,11.77-10.22,19.57-11.06,9.37-1.01,16.77,5.49,20.37,9.46,11.59,12.79,15.44,32.07,9.81,49.12-2.57,7.77-6.84,14.01-12.35,18.05-3.61,2.64-7.95,3.99-12.57,3.99ZM217.33,204.72c-.56,0-1.12.03-1.69.09-7.08.77-13.1,5.79-18.19,10.44-4.55,4.15-8.33,8.72-11.25,13.6l-.56.94h0c-2.63,4.45-5.34,9.63-5.5,14.24-.11,3.35,1.98,6.36,4.01,9.26l.42.6c2.52,3.64,5,6.8,7.58,9.68,2.3,2.56,5.19,5.26,8.84,8.24,3.72,3.03,7.13,5.67,11.35,7.22,7.09,2.59,14.17,1.87,19.43-1.98,5.1-3.73,9.07-9.56,11.48-16.85,5.36-16.23,1.71-34.56-9.3-46.71-3.06-3.38-9.12-8.77-16.61-8.77ZM184.59,229.17h.02-.02Z" style="fill: #2c70b8; stroke-width: 0px;"/>
  <path d="M190.82,259.43c-2.27,0-4.48-.6-6.25-1.72-.57-.36-.74-1.12-.38-1.68.36-.57,1.12-.74,1.68-.38,3.73,2.36,10.03,1.67,12.88-2.79,2.69-4.21,2.25-9.99.61-13.85-1-2.37-2.64-4.2-4.62-5.15-3.12-1.51-9.27-2.17-11.42.27-.45.51-1.22.56-1.72.11-.51-.45-.56-1.22-.11-1.72,3.09-3.51,10.42-2.73,14.31-.86,2.51,1.21,4.57,3.48,5.81,6.4,1.88,4.45,2.37,11.16-.81,16.12-2.32,3.62-6.23,5.26-9.99,5.26Z" style="fill: #2c70b8; stroke-width: 0px;"/>
  <path d="M193.62,268.15c-.66,0-1.2-.53-1.22-1.19-.02-.67.52-1.23,1.19-1.25,4.32-.11,7.91-.7,10.97-1.79,3.71-1.32,6.74-3.43,8.78-6.1,1.95-2.55,3.13-5.78,3.42-9.34.26-3.19-.2-6.6-1.34-10.15-1.58-4.9-4.16-8.91-7.46-11.59-5.27-4.29-12.36-4.68-17.37-4.25-.66.04-1.26-.44-1.32-1.11s.44-1.26,1.11-1.32c5.46-.47,13.22-.02,19.13,4.79,3.66,2.98,6.51,7.38,8.24,12.73,1.25,3.85,1.74,7.58,1.45,11.09-.33,4.03-1.68,7.7-3.91,10.63-2.33,3.05-5.75,5.44-9.9,6.92-3.31,1.18-7.15,1.81-11.73,1.93h-.03Z" style="fill: #2c70b8; stroke-width: 0px;"/>
  <path d="M212.26,278.39c-2.38,0-4.72-.31-7.08-.67-.67-.1-1.12-.72-1.02-1.39.1-.67.71-1.12,1.39-1.02,4.57.7,8.71,1.15,13.19-.39,4.09-1.41,7.8-3.96,10.71-7.35,4.03-4.69,6.58-11.06,7.19-17.91,1.15-12.92-3.58-26-12.04-33.32-6.41-5.54-16.96-8.39-24.71-3.13-.56.37-1.32.23-1.7-.33-.38-.56-.23-1.32.33-1.7,8.78-5.95,20.57-2.84,27.68,3.31,9.04,7.81,14.09,21.7,12.88,35.38-.65,7.36-3.41,14.21-7.77,19.28-3.2,3.73-7.27,6.52-11.77,8.07-2.5.86-4.91,1.17-7.28,1.17Z" style="fill: #2c70b8; stroke-width: 0px;"/>
  <path d="M247.61,299.23c-1.05,0-1.98-.43-2.7-.81-2.1-1.13-3.83-2.68-5.24-4.04-4.17-4.01-7.75-8.6-10.62-13.63-.33-.59-.13-1.33.46-1.67.57-.33,1.33-.13,1.67.46,2.76,4.83,6.19,9.23,10.19,13.08,1.3,1.25,2.87,2.66,4.71,3.65.49.26,1.12.55,1.65.52.35-.03.43-.14.46-.18.18-.25.27-.96-.04-2.21-1.06-4.34-2.22-8.76-3.46-13.13l-.67-2.44c-.9-3.33-1.84-6.77-3.23-9.88-.27-.62,0-1.34.62-1.61.62-.27,1.34,0,1.61.62,1.46,3.29,2.42,6.82,3.35,10.23l.67,2.42c1.24,4.4,2.41,8.84,3.47,13.21.45,1.85.33,3.26-.35,4.21-.35.48-1.02,1.09-2.24,1.19-.11,0-.21.01-.32.01Z" style="fill: #2c70b8; stroke-width: 0px;"/>
  <path d="M197.74,213.87c-.54,0-1.03-.36-1.18-.9l-2.95-10.95-4.2-17.62c-.02-.1-2.11-14.06-2.12-14.14-.52-3.5-.93-6.86-1.19-9.98-.2-2.3-.23-4.54-.24-6.42v-1.88c-.03-4.14-.06-8.41.38-12.64.47-4.61,1.39-9.44,2.71-14.35.21-.8.89-1.67,2.91-1.26.83.16,1.56.26,2.3.31,1.56.11,3.03-.02,4.38-.36.69-.18,1.33-.57,1.96-1.22.31-.32.6-.67.89-1.01l.18-.23c.3-.41.8-1.09,1.66-1.13.34,0,.88.06,1.38.64.72.83,1.1,2,1.09,3.3-.02,1.55-.5,2.94-.98,4.28-.19.54-.38,1.09-.53,1.63-3.8,13.65-2.52,28.66-.75,41.54.81,5.91,2.28,11.65,3.74,16.97.34,1.25.69,2.58,1.05,3.96,1,3.84,2.04,7.82,3.29,11.12.24.63-.08,1.34-.71,1.57-.63.23-1.34-.08-1.57-.71-1.29-3.42-2.35-7.46-3.37-11.36-.36-1.36-.7-2.68-1.04-3.93-1.49-5.4-2.98-11.23-3.81-17.29-1.8-13.13-3.1-28.44.82-42.52.16-.6.37-1.19.58-1.79.42-1.21.83-2.36.84-3.5,0-.31-.03-.6-.1-.86-.31.37-.6.71-.91,1.02-.94.96-1.99,1.59-3.11,1.88-1.61.41-3.35.55-5.15.43-.84-.06-1.68-.17-2.5-.33-.11-.02-.22-.05-.32-.06-1.22,4.62-2.07,9.16-2.52,13.5-.42,4.09-.4,8.3-.37,12.37v1.88c.02,1.84.05,4.01.24,6.22.26,3.06.66,6.37,1.17,9.83.03.19,2.1,14.03,2.1,14.03l4.17,17.48,2.94,10.92c.18.65-.21,1.32-.86,1.5-.1.03-.21.04-.32.04Z" style="fill: #2c70b8; stroke-width: 0px;"/>
  <path d="M198.68,177.87c-8.79,0-8.79-1.38-8.79-2.2,0-.67.55-1.22,1.22-1.22.37,0,.71.17.93.43.72.24,3.11.54,6.64.54.67,0,1.22.55,1.22,1.22s-.55,1.22-1.22,1.22ZM192.33,175.67h0s0,0,0,0ZM192.33,175.67h0Z" style="fill: #2c70b8; stroke-width: 0px;"/>
  <path d="M198.82,186.57c-9.07,0-9.07-1.51-9.07-2.32,0-.67.55-1.22,1.22-1.22.4,0,.75.19.97.48.65.23,2.91.61,6.88.61.67,0,1.22.55,1.22,1.22s-.55,1.22-1.22,1.22ZM192.19,184.25h.02-.02Z" style="fill: #2c70b8; stroke-width: 0px;"/>
  <path d="M176.22,142.28h-.02c-6.37-.09-12.73-.6-19.44-1.56-49.59-7.08-62.07.49-62.19.57-.57.36-1.32.2-1.69-.37-.36-.57-.2-1.32.37-1.69.52-.33,13.36-8.14,63.85-.93,6.61.94,12.87,1.45,19.13,1.53.67,0,1.21.57,1.2,1.24,0,.67-.55,1.2-1.22,1.2Z" style="fill: #2c70b8; stroke-width: 0px;"/>
  <path d="M253.81,146.84c-6.23,0-13.55-.67-24.84-2.03-6.41-.77-12.58-1.13-18.75-1.06h-.01c-.67,0-1.21-.54-1.22-1.21,0-.67.54-1.23,1.21-1.23,6.33-.07,12.55.3,19.07,1.08,25.11,3.02,30.29,2.6,48.08-1.1.65-.15,1.31.28,1.44.95.14.66-.29,1.31-.95,1.44-10.09,2.1-16.2,3.17-24.03,3.17Z" style="fill: #2c70b8; stroke-width: 0px;"/>
  <path d="M143.7,71.45c-3.59,0-6.5-2.92-6.5-6.5s2.92-6.5,6.5-6.5,6.5,2.92,6.5,6.5-2.92,6.5-6.5,6.5ZM143.7,60.89c-2.24,0-4.06,1.82-4.06,4.06s1.82,4.06,4.06,4.06,4.06-1.82,4.06-4.06-1.82-4.06-4.06-4.06Z" style="fill: #2c70b8; stroke-width: 0px;"/>
  <path d="M152.96,110.42c-3.59,0-6.5-2.92-6.5-6.5s2.92-6.5,6.5-6.5,6.5,2.92,6.5,6.5-2.92,6.5-6.5,6.5ZM152.96,99.86c-2.24,0-4.06,1.82-4.06,4.06s1.82,4.06,4.06,4.06,4.06-1.82,4.06-4.06-1.82-4.06-4.06-4.06Z" style="fill: #2c70b8; stroke-width: 0px;"/>
</svg>