<?xml version="1.0" encoding="UTF-8"?>
<svg id="Layer_1" data-name="Layer 1" xmlns="http://www.w3.org/2000/svg" viewBox="0 0 360 360">
  <path d="M228.29,153.94c-.15,0-.31-.03-.45-.09-4.35-1.73-16.46-9.6-16.97-9.94-.57-.37-.72-1.12-.36-1.69.37-.57,1.13-.72,1.69-.36.09.05,5.79,3.76,10.73,6.65-3.65-4.3-8.38-10.34-9.47-13.99-.19-.65.18-1.33.82-1.52.66-.19,1.32.18,1.52.82,1.63,5.46,13.26,17.92,13.38,18.05.39.42.44,1.05.12,1.52-.23.34-.62.53-1.01.53Z" style="fill: #2c70b8; stroke-width: 0px;"/>
  <path d="M224.48,150.11c-.57,0-1.08-.4-1.19-.99l-3.7-18.9c-.13-.66.3-1.3.96-1.43.65-.13,1.3.3,1.43.96l3.7,18.9c.13.66-.3,1.3-.96,1.43-.08.02-.16.02-.24.02Z" style="fill: #2c70b8; stroke-width: 0px;"/>
  <path d="M232.67,176.63c-.38,0-.75-.17-.99-.5-6-8.26-5.7-13.02-5.48-16.49.02-.37.05-.72.06-1.06.06-1.72.86-3.67,1.87-6.13,1.14-2.8,2.57-6.29,3.22-10.43,1.09-6.96-1.05-9.76-1.07-9.79-.41-.52-.34-1.29.18-1.71.52-.42,1.27-.36,1.7.16.12.14,2.88,3.53,1.6,11.72-.69,4.42-2.18,8.06-3.37,10.98-.88,2.15-1.64,4.01-1.68,5.3-.01.36-.04.73-.06,1.12-.19,3.1-.46,7.35,5.02,14.9.4.55.28,1.31-.27,1.71-.22.16-.47.23-.72.23Z" style="fill: #2c70b8; stroke-width: 0px;"/>
  <path d="M231.23,149.59c-.16,0-.33-.03-.49-.1-.62-.27-.9-.99-.62-1.61,1.81-4.09,6.25-12.52,6.43-12.87.32-.6,1.06-.82,1.65-.51.6.31.83,1.05.51,1.65-.05.09-4.59,8.7-6.36,12.72-.2.46-.65.73-1.12.73Z" style="fill: #2c70b8; stroke-width: 0px;"/>
  <path d="M228.67,183.54c-.2,0-.42-.03-.68-.12-2.02-.72-4.57-4.72-7.79-12.23-3.31-7.71-6.67-9.71-9.93-11.64-1.95-1.15-3.79-2.25-5.38-4.42-.4-.54-.28-1.31.26-1.71.54-.4,1.31-.28,1.71.26,1.3,1.77,2.86,2.69,4.66,3.77,3.26,1.93,7.31,4.33,10.93,12.77,3.9,9.11,5.88,10.63,6.28,10.86.43-.04.93.21,1.16.65.31.6.09,1.34-.51,1.65-.14.07-.38.16-.71.16ZM228.24,181.21s0,0,0,0c0,0,0,0,0,0ZM228.25,181.21h0,0Z" style="fill: #2c70b8; stroke-width: 0px;"/>
  <path d="M214.44,161.18c-.45,0-.89-.26-1.1-.69-1.72-3.57-.14-9.6.04-10.27.18-.65.85-1.03,1.5-.85.65.18,1.03.85.86,1.5-.44,1.59-1.32,6.24-.2,8.57.29.61.04,1.34-.57,1.63-.17.08-.35.12-.53.12Z" style="fill: #2c70b8; stroke-width: 0px;"/>
  <path d="M221.32,220.22h-.03c-.67-.01-1.21-.57-1.19-1.25.07-3.27.7-4.6,1.36-6,.55-1.17,1.13-2.38,1.55-5.15.72-4.71,4.2-6.65,6.83-7.23-.7-2.21-1.96-6.68-2.49-11.53-.57-5.25,1.97-9.31,4.01-12.57.73-1.17,1.42-2.27,1.88-3.28.69-1.53,1.66-2.9,2.77-4.5,1.94-2.78,4.15-5.94,5.88-11.19,2.62-7.98-1.54-21.7-1.58-21.84-.2-.64.16-1.33.81-1.52.64-.2,1.33.16,1.52.81.18.59,4.43,14.6,1.56,23.32-1.84,5.6-4.25,9.05-6.19,11.83-1.05,1.5-1.95,2.79-2.55,4.11-.53,1.16-1.26,2.33-2.04,3.57-1.94,3.09-4.14,6.6-3.66,11,.7,6.41,2.81,12.34,2.83,12.4.13.37.08.78-.14,1.1-.22.32-.59.52-.98.53-.21,0-5.27.21-6.06,5.36-.48,3.12-1.19,4.62-1.76,5.83-.62,1.31-1.06,2.25-1.12,5-.01.67-.56,1.19-1.22,1.19Z" style="fill: #2c70b8; stroke-width: 0px;"/>
  <path d="M244.99,157.19c-.52,0-1.01-.34-1.17-.87-.2-.64.17-1.33.82-1.52,3.37-1.02,5.34-5.87,5.66-8.98.23-2.2-2.62-6.86-4.47-9.27-.41-.54-.31-1.3.23-1.71s1.3-.31,1.71.23c.55.72,5.35,7.14,4.95,11.01-.38,3.66-2.66,9.63-7.38,11.06-.12.04-.24.05-.35.05Z" style="fill: #2c70b8; stroke-width: 0px;"/>
  <path d="M251.27,143.07c-.67,0-1.22-.55-1.22-1.22,0-4.57,3.12-8.87,3.25-9.05.4-.55,1.17-.66,1.71-.26.54.4.66,1.16.26,1.71-.03.04-2.78,3.85-2.78,7.61,0,.67-.55,1.22-1.22,1.22Z" style="fill: #2c70b8; stroke-width: 0px;"/>
  <path d="M231.47,202.83c-.41,0-.82-.21-1.05-.6-.35-.58-.16-1.33.42-1.67,1.93-1.15,3.77-2.12,5.4-2.98,5.72-3.02,9.18-4.84,9.34-10.26.26-8.39,3.06-14.23,7.5-15.62,2.89-.9,3.25-4.6,2.89-9.86-.42-6.11,5.21-8.59,5.44-8.69.62-.26,1.34.02,1.6.64.26.62-.02,1.34-.64,1.6-.17.07-4.27,1.92-3.97,6.28.26,3.74.73,10.69-4.6,12.36-3.35,1.05-5.56,6.17-5.79,13.36-.21,6.84-4.81,9.27-10.65,12.34-1.62.86-3.4,1.79-5.28,2.92-.2.12-.41.17-.62.17Z" style="fill: #2c70b8; stroke-width: 0px;"/>
  <path d="M257.18,162.99c-.67,0-1.21-.53-1.22-1.2-.12-6.25-1.58-10.84-1.78-11.27-.37-.56-.2-1.28.37-1.65.56-.38,1.35-.18,1.72.39.46.68,2.02,5.92,2.14,12.48.01.67-.52,1.23-1.2,1.24h-.02Z" style="fill: #2c70b8; stroke-width: 0px;"/>
  <path d="M254.89,174.22c-.49,0-.96-.3-1.14-.79-.24-.63.08-1.34.71-1.58.91-.34,1.93-.6,3-.86,3.13-.78,6.69-1.65,8.54-5.2,1.28-2.45.98-5.35.69-8.15-.29-2.83-.57-5.51.84-7.55.38-.56,1.14-.7,1.7-.31.56.38.69,1.14.31,1.7-.9,1.3-.67,3.44-.42,5.91.31,3.01.67,6.43-.95,9.53-2.36,4.52-6.66,5.59-10.12,6.44-1,.25-1.95.48-2.72.78-.14.05-.29.08-.43.08Z" style="fill: #2c70b8; stroke-width: 0px;"/>
  <path d="M268.65,164.8c-.19,0-.39-.05-.57-.14-.6-.31-.83-1.05-.51-1.65.11-.21,2.81-5.24,7.24-5.24.67,0,1.22.55,1.22,1.22s-.55,1.22-1.22,1.22c-2.92,0-5.06,3.9-5.08,3.93-.22.42-.64.65-1.08.65Z" style="fill: #2c70b8; stroke-width: 0px;"/>
  <path d="M217.46,219.74h-.05c-.67-.03-1.19-.59-1.17-1.26,0-.04.05-2.8-2.01-9.88-.88-3.05-.88-6.31-.88-9.47,0-4.81.01-8.97-2.95-11.42-1.43-1.18-3.4-2.38-5.5-3.64-5.54-3.35-12.36-7.48-12.8-14-.93-.23-2.24-.75-3.27-1.94-1.28-1.48-1.76-3.55-1.44-6.14.08-.67.7-1.16,1.36-1.06.67.08,1.14.69,1.06,1.36-.23,1.86.05,3.28.85,4.22,1.03,1.21,2.67,1.29,2.68,1.29.32.01.63.15.86.39.22.24.34.56.33.88-.24,5.72,6.07,9.54,11.64,12.91,2.17,1.32,4.22,2.56,5.79,3.85,3.86,3.19,3.85,8.33,3.84,13.31,0,2.98,0,6.07.78,8.79,2.2,7.59,2.11,10.53,2.1,10.65-.03.66-.57,1.17-1.22,1.17Z" style="fill: #2c70b8; stroke-width: 0px;"/>
  <path d="M214.2,207.42c-.34,0-.68-.14-.92-.42-.02-.03-2.3-2.59-8.41-6.28-1.86-1.12-4.2-1.92-6.47-2.7-5.29-1.81-11.3-3.87-11.86-10.68-.4-4.81-2.79-5.65-5.55-6.61-1.64-.57-3.34-1.17-4.39-2.7-.38-.56-.23-1.32.32-1.7.56-.37,1.32-.23,1.7.32.59.87,1.79,1.29,3.17,1.77,2.8.98,6.65,2.33,7.18,8.71.44,5.22,4.97,6.77,10.22,8.57,2.39.82,4.86,1.66,6.94,2.92,6.49,3.92,8.89,6.65,8.99,6.77.44.51.38,1.28-.13,1.72-.23.2-.52.3-.8.3Z" style="fill: #2c70b8; stroke-width: 0px;"/>
  <path d="M212.27,190.03c-.42,0-.83-.22-1.06-.62-.33-.58-.13-1.32.44-1.66.14-.08,2.64-1.73,1.83-6.97-.28-1.79-.73-3.27-1.13-4.56-.96-3.1-1.79-5.79,1.8-8.76.52-.43,1.29-.36,1.72.16s.36,1.29-.16,1.72c-2.33,1.93-1.97,3.08-1.03,6.15.41,1.31.91,2.94,1.21,4.91,1.08,7.03-2.85,9.36-3.01,9.46-.19.11-.4.16-.61.16Z" style="fill: #2c70b8; stroke-width: 0px;"/>
  <path d="M204.4,182.9c-.31,0-.61-.12-.84-.35-.26-.26-2.53-2.79-2.41-11.27.03-1.83.14-3.31.23-4.58.32-4.33.42-5.63-3.68-10.43-.44-.51-.38-1.29.13-1.72.52-.44,1.28-.38,1.72.13,4.75,5.56,4.6,7.64,4.26,12.2-.09,1.22-.2,2.65-.22,4.43-.11,7.38,1.7,9.51,1.72,9.53.44.5.41,1.26-.07,1.71-.24.22-.54.34-.84.34Z" style="fill: #2c70b8; stroke-width: 0px;"/>
  <path d="M193.31,170.23c-.18,0-.37-.04-.54-.13-.6-.3-.85-1.03-.55-1.64.03-.05,2.47-5.12,0-10.28-.29-.61-.03-1.34.57-1.63.6-.29,1.34-.04,1.63.57,3,6.26.11,12.17,0,12.42-.21.43-.64.67-1.09.67Z" style="fill: #2c70b8; stroke-width: 0px;"/>
  <path d="M202.25,174.82c-.5,0-.96-.31-1.14-.8-.23-.63.09-1.33.72-1.57,1.41-.52,5.07-2.4,5-4.73-.02-.67.51-1.24,1.18-1.26h.04c.66,0,1.2.52,1.22,1.18.15,4.57-6.32,7-6.6,7.1-.14.05-.28.07-.42.07Z" style="fill: #2c70b8; stroke-width: 0px;"/>
  <path d="M187.52,184c-.39,0-.77-.18-1-.53-.38-.55-.25-1.3.3-1.69.25-.18,2.22-1.79.56-5.38-.28-.61-.01-1.34.6-1.62.61-.28,1.34-.02,1.62.6,2.06,4.46,0,7.44-1.38,8.4-.21.15-.45.22-.69.22Z" style="fill: #2c70b8; stroke-width: 0px;"/>
  <path d="M190.59,196.41c-5.69,0-8.54-1.68-10.88-3.07-2.7-1.59-4.48-2.65-9.87-.61-.62.23-1.33-.08-1.57-.71-.24-.63.08-1.34.71-1.57,6.49-2.45,9.15-.88,11.98.79,2.48,1.47,5.28,3.14,11.91,2.64.64-.06,1.26.46,1.31,1.13.05.67-.46,1.26-1.13,1.31-.87.06-1.68.1-2.45.1Z" style="fill: #2c70b8; stroke-width: 0px;"/>
  <path d="M193.59,208.17c-.27,0-.55,0-.83-.02-4.24-.25-6.77-1.95-8.79-3.32-2.18-1.47-3.74-2.53-6.86-1.67-.64.19-1.32-.2-1.5-.85-.18-.65.2-1.32.85-1.5,4.2-1.18,6.58.44,8.89,2,1.96,1.33,3.99,2.7,7.57,2.91,7.44.36,11.38-6.34,11.54-6.63.33-.58,1.07-.8,1.66-.46.59.33.79,1.07.46,1.66-.19.33-4.54,7.89-12.98,7.89Z" style="fill: #2c70b8; stroke-width: 0px;"/>
  <path d="M200.07,198.12c-.26,0-.52-.08-.74-.25-.54-.41-.64-1.17-.24-1.71.14-.18,3.07-4.28-.68-8.75-.43-.52-.37-1.29.15-1.72.52-.43,1.29-.37,1.72.15,4.03,4.79,2.26,9.8.76,11.79-.24.32-.6.48-.97.48Z" style="fill: #2c70b8; stroke-width: 0px;"/>
  <path d="M177.61,191.84c-.1,0-.21-.01-.32-.04-.18-.05-4.3-1.26-5.11-7.79-.08-.67.39-1.28,1.06-1.36.66-.1,1.28.39,1.36,1.06.6,4.82,3.25,5.71,3.36,5.74.64.2,1.01.88.82,1.51-.16.53-.64.88-1.16.88Z" style="fill: #2c70b8; stroke-width: 0px;"/>
  <path d="M177.65,211.41c-.19,0-.39-.05-.57-.14-.6-.31-.82-1.05-.51-1.65,2.35-4.44,10.28-4.08,11.17-4.03.67.04,1.19.62,1.14,1.29-.04.67-.54,1.21-1.29,1.14-2-.12-7.49.15-8.87,2.74-.22.41-.64.65-1.08.65Z" style="fill: #2c70b8; stroke-width: 0px;"/>
  <path d="M243.86,195.98c-.27,0-.55-.09-.78-.28-.52-.43-.59-1.2-.16-1.72,1.25-1.51,7.69-9,12.21-7.74,1.33.37,2.89,1.07,4.54,1.8,2.84,1.27,6.74,3,8.14,2.08.57-.36,1.32-.21,1.69.36.37.57.21,1.32-.36,1.69-2.52,1.64-6.56-.16-10.47-1.9-1.56-.7-3.04-1.35-4.2-1.68-2.18-.62-6.98,3.68-9.67,6.94-.24.29-.59.44-.94.44Z" style="fill: #2c70b8; stroke-width: 0px;"/>
  <path d="M254.8,188.65c-.67,0-1.22-.55-1.22-1.22,0-.67.55-1.22,1.22-1.22,1.47,0,5.66-.44,7.33-2.38.61-.72.83-1.59.67-2.67-.1-.67.36-1.29,1.02-1.39.68-.09,1.29.35,1.39,1.02.28,1.81-.14,3.36-1.23,4.64-2.74,3.2-8.91,3.23-9.18,3.23Z" style="fill: #2c70b8; stroke-width: 0px;"/>
  <path d="M155.87,226.12c-6.49,0-13.54-.44-21.44-1.56-49.59-7.08-62.07.49-62.19.57-.57.36-1.32.2-1.69-.37s-.2-1.32.37-1.69c.52-.33,13.37-8.13,63.85-.93,21.35,3.05,36.48.96,51.12-1.07,13.94-1.92,28.35-3.92,48.04-1.55,25.12,3.02,30.29,2.6,48.08-1.1.65-.15,1.3.28,1.44.95.14.66-.29,1.31-.95,1.44-18.13,3.77-23.39,4.21-48.87,1.14-19.38-2.33-33.63-.36-47.42,1.54-9.41,1.3-19.03,2.63-30.36,2.63Z" style="fill: #2c70b8; stroke-width: 0px;"/>
  <path d="M155.76,234.62c-14.21,0-23.55-2.22-23.68-2.25-.66-.16-1.06-.82-.9-1.47s.81-1.05,1.47-.9c.18.05,18.45,4.37,42.79.72l5.71-.86c18.63-2.83,27.98-4.25,43.06-2.88.67.06,1.17.66,1.11,1.33-.06.67-.69,1.15-1.33,1.11-14.8-1.34-24.04.06-42.47,2.86l-5.71.86c-7.32,1.1-14.11,1.49-20.04,1.49Z" style="fill: #2c70b8; stroke-width: 0px;"/>
  <path d="M145.73,139.98c-3.59,0-6.5-2.92-6.5-6.5s2.92-6.5,6.5-6.5,6.5,2.92,6.5,6.5-2.92,6.5-6.5,6.5ZM145.73,129.42c-2.24,0-4.06,1.82-4.06,4.06s1.82,4.06,4.06,4.06,4.06-1.82,4.06-4.06-1.82-4.06-4.06-4.06Z" style="fill: #2c70b8; stroke-width: 0px;"/>
  <path d="M154.99,178.95c-3.59,0-6.5-2.92-6.5-6.5s2.92-6.5,6.5-6.5,6.5,2.92,6.5,6.5-2.92,6.5-6.5,6.5ZM154.99,168.39c-2.24,0-4.06,1.82-4.06,4.06s1.82,4.06,4.06,4.06,4.06-1.82,4.06-4.06-1.82-4.06-4.06-4.06Z" style="fill: #2c70b8; stroke-width: 0px;"/>
  <path d="M168.54,224.69c-.67,0-1.22-.55-1.22-1.22,0-2.56-11.11-9.96-17.2-10.72-6.3-.79-8.22-5.38-12.42-15.45l-.87-2.07c-3.71-8.85-9.87-9.46-17.66-10.22-1.71-.17-3.46-.34-5.26-.61-3.93-.57-5.41,1.5-7.91,5.55-2.52,4.08-5.66,9.17-13.61,11.2-13.34,3.42-12.19,18.22-12.14,18.84.06.67-.44,1.26-1.11,1.33-.67.04-1.26-.43-1.33-1.11-.02-.17-1.41-17.49,13.96-21.43,6.99-1.79,9.72-6.22,12.14-10.12,2.39-3.87,4.67-7.52,10.34-6.68,1.75.26,3.47.43,5.14.59,7.92.78,15.4,1.51,19.67,11.71l.87,2.08c4.33,10.36,5.78,13.38,10.47,13.96,6.23.78,19.34,8.43,19.34,13.14,0,.67-.55,1.22-1.22,1.22Z" style="fill: #2c70b8; stroke-width: 0px;"/>
  <path d="M133.49,208.65c-.29,0-.57-.1-.8-.3-1.59-1.39-2.69-3.82-3.86-6.39-1.16-2.55-2.35-5.2-3.85-6.19-2.48-1.65-7.04-1.76-8.57-1.66-.71.08-1.25-.47-1.29-1.14-.04-.67.47-1.25,1.14-1.29.26-.02,6.42-.37,10.08,2.07,2.08,1.39,3.42,4.35,4.72,7.22,1,2.22,2.04,4.51,3.24,5.56.51.44.56,1.21.11,1.72-.24.28-.58.42-.92.42Z" style="fill: #2c70b8; stroke-width: 0px;"/>
</svg>