<?xml version="1.0" encoding="UTF-8"?>
<svg id="Layer_1" data-name="Layer 1" xmlns="http://www.w3.org/2000/svg" viewBox="0 0 360 360">
  <g>
    <path d="M184.07,250.92c-5.85,0-11.74-.72-17.56-2.19-18.52-4.66-34.11-16.25-43.91-32.63-2.95-4.92-5.29-10.18-6.97-15.61-.2-.64.16-1.33.8-1.53.65-.21,1.33.16,1.53.81,1.62,5.25,3.89,10.32,6.73,15.08,9.46,15.83,24.53,27.02,42.41,31.52,17.88,4.5,36.45,1.76,52.27-7.7,15.99-9.56,27.23-24.8,31.64-42.9.16-.65.83-1.05,1.47-.9.66.16,1.06.82.9,1.47-4.57,18.75-16.2,34.52-32.76,44.42-11.23,6.72-23.8,10.16-36.56,10.16Z" style="fill: #2c70b8; stroke-width: 0px;"/>
    <path d="M258.61,211.88c-.47,0-.93-.28-1.12-.74l-6.07-14.19-14.2,6.07c-.62.26-1.34-.02-1.6-.64-.26-.62.02-1.34.64-1.6l16.44-7.03,7.03,16.44c.26.62-.02,1.34-.64,1.6-.16.07-.32.1-.48.1Z" style="fill: #2c70b8; stroke-width: 0px;"/>
  </g>
  <g>
    <path d="M114.14,171.45s-.09,0-.13,0c-.67-.07-1.16-.67-1.08-1.34,2.05-19.18,11.5-36.36,26.6-48.36,30.85-24.52,75.91-19.38,100.44,11.48,6.33,7.97,10.81,16.98,13.31,26.77.17.65-.23,1.32-.88,1.49-.66.17-1.32-.23-1.49-.88-2.41-9.46-6.74-18.15-12.86-25.85-23.69-29.8-67.21-34.77-97-11.09-14.58,11.59-23.71,28.18-25.69,46.71-.07.63-.6,1.09-1.21,1.09Z" style="fill: #2c70b8; stroke-width: 0px;"/>
    <path d="M113.95,172.59l-9.14-15.37c-.34-.58-.16-1.33.42-1.67.58-.35,1.33-.16,1.67.42l7.89,13.27,13.27-7.89c.58-.35,1.33-.16,1.67.42.34.58.16,1.33-.43,1.67l-15.37,9.14Z" style="fill: #2c70b8; stroke-width: 0px;"/>
  </g>
  <path d="M180.49,214.57c-.07,0-.15,0-.23-.01q-1.35-.12-6.52-38.99c-1.27-9.57-2.65-19.97-3.57-26.42-.71,3.96-1.62,9.3-2.51,14.55-5.64,33.04-5.72,33.04-7.2,33.11-2.02.03-2.78-1.87-5.13-8.67-1.61-4.67-2.73-4.64-4.78-4.6-.66.01-1.37.07-2.11.13-3.54.29-7.97.64-9.93-3.21-2.42-4.75-3.45-5.92-5.25-5.97-1.18-.03-1.6.57-3.09,3.11-.46.78-.98,1.67-1.63,2.65-2.19,3.32-4.9,3.92-8.8,3.87-3.7-.07-14.06-.02-14.07-.02v-2.44s10.39-.04,14.11.02c3.75.06,5.28-.58,6.72-2.77.62-.93,1.12-1.79,1.56-2.54,1.44-2.45,2.61-4.34,5.26-4.32,3.45.09,5.09,2.82,7.37,7.3,1.13,2.22,3.84,2.18,7.55,1.88.79-.06,1.55-.12,2.26-.14,3.79-.07,5.46,1.37,7.14,6.24.62,1.78,1.53,4.43,2.22,5.94,1.12-4.92,3.55-19.16,5.39-30q3.74-21.92,4.91-22.05,1.47-.16,6.01,34.01c1.46,11,3.17,23.85,4.27,31.34.3-1.65.66-3.49,1.09-5.42,2.22-9.85,3.08-14.86,3.49-17.27.42-2.45.54-3.48,1.99-3.38.86.05,10.93.09,14.74.1.18,0,6.57.55,8.6-3.8l2.94-5.91c.94-1.89,2.95-4.14,5.51-4.26,1.31-.08,3.21.43,4.88,3.12,1.17,1.88,1.73,3.22,2.33,4.63.19.46.39.93.61,1.43.5,1.12,2.77,4.74,10.75,4.03,1.63-.15,2.71-.64,3.86-1.17,1.6-.73,3.42-1.55,6.64-1.44,2.31.1,3.42.72,4.41,1.26,1.14.63,2.36,1.27,6.17,1.23q6.66-.1,7.12.35l-.86.87h-1.22,1.22l-.17,1.21c-.07,0-.82-.06-6.05.01-4.52.06-6.03-.78-7.39-1.54-.89-.49-1.59-.88-3.32-.95-2.66-.12-3.98.5-5.52,1.21-1.23.57-2.62,1.2-4.66,1.39-9.6.85-12.52-3.97-13.19-5.47-.23-.52-.44-1.01-.63-1.48-.58-1.38-1.08-2.57-2.15-4.29-.84-1.35-1.83-2.06-2.69-1.97-1.4.06-2.76,1.55-3.44,2.91l-2.93,5.87c-2.74,5.89-10.59,5.2-10.92,5.18-.34,0-10.87-.03-13.97-.09-.06.34-.15.81-.24,1.34-.41,2.43-1.28,7.48-3.52,17.4-.74,3.28-1.25,6.33-1.63,8.56-.59,3.49-.73,4.3-1.78,4.3Z" style="fill: #2c70b8; stroke-width: 0px;"/>
</svg>