<?xml version="1.0" encoding="UTF-8"?>
<svg id="icon-humanuses" data-name="icon-humanuses" xmlns="http://www.w3.org/2000/svg" viewBox="0 0 146.4 146.4">
  <defs>
    <style>
      .cls-1 {
        fill: #2c70b8;
        stroke-width: 0px;
      }
    </style>
  </defs>
  <g id="Layer_1-2" data-name="Layer 1">
    <g>
      <g>
        <path class="cls-1" d="M111.36,123.64c-.3,0-.6-.11-.83-.33-3.65-3.41-5.87-4.98-9.41-5.27-6.33-.52-17.95,2-24.88,3.5-2.48.54-4.26.93-5.08,1.01-4.72.51-7.48-1.28-9.7-2.71-1.21-.78-2.26-1.46-3.41-1.63-2.5-.39-14.72-5.47-28.11-11.1-4.46-1.87-8.32-3.5-8.93-3.69-1.66-.52-2.75-1.6-3.05-3.02-.45-2.1.86-4.4,2.36-5.75.68-.61,1.38-1.02,2.07-1.23-.15-1.29-.16-3.19.73-4.75.68-1.19,1.74-1.98,3.15-2.35,4.17-1.09,19.56,3.99,21.3,4.58.64.21.98.91.77,1.55-.21.64-.9,1-1.55.77-6.31-2.11-17.29-5.21-19.9-4.53-.76.2-1.3.59-1.65,1.2-.95,1.66-.24,4.32-.23,4.35.12.44,0,.9-.33,1.21-.33.32-.79.42-1.23.28-.21-.08-.81.11-1.5.74-1.12,1-1.81,2.47-1.61,3.41.04.21.18.82,1.4,1.21.69.21,3.61,1.44,9.14,3.77,9.4,3.95,25.13,10.56,27.53,10.93,1.66.26,2.97,1.1,4.36,1.99,2.09,1.34,4.24,2.73,8.12,2.33.68-.07,2.51-.47,4.82-.97,7.06-1.53,18.87-4.1,25.6-3.55,4.23.35,6.88,2.18,10.87,5.92.49.46.52,1.23.06,1.73-.24.26-.57.39-.89.39Z"/>
        <path class="cls-1" d="M74.63,107.64c-.15,0-.31-.03-.46-.09-.05-.02-5.48-2.18-13.01-1.5-5.57.52-8.52-.59-10.66-1.4-1.02-.38-1.83-.69-2.71-.77-.91-.08-8.95-.93-9.2-5.19-.12-2,.12-4.74,1.9-6.38,1.2-1.1,2.85-1.53,4.91-1.24,2.61.36,4.79-.04,6.71-.4,1.82-.34,3.39-.63,4.92-.22.39.1.8.23,1.23.36,2.56.78,5.75,1.76,11.75-.13,1.12-.35,2.23-.72,3.32-1.08,6.08-2.02,11.82-3.92,17.25-2.27,1.49-.34,7.13-1.32,14.68,1.42,10.79,3.91,18.07,7.85,21.63,11.7.44.22,1.92.79,3.13,1.26,3.82,1.47,5.09,2.01,5.59,2.49.49.47.5,1.24.03,1.73-.47.49-1.24.5-1.73.03-.41-.29-3.14-1.34-4.78-1.97-3.23-1.24-3.64-1.43-3.95-1.78-3.25-3.59-10.23-7.35-20.76-11.16-7.91-2.86-13.49-1.29-13.55-1.28-.24.07-.49.06-.73-.01-4.76-1.59-10.24.24-16.05,2.16-1.11.37-2.23.74-3.36,1.1-6.72,2.11-10.46.97-13.2.13-.4-.12-.78-.24-1.14-.33-1.01-.26-2.33-.02-3.86.26-2,.37-4.49.83-7.49.41-1.31-.19-2.29.03-2.92.61-1.14,1.05-1.19,3.24-1.12,4.45.07,1.21,3.33,2.57,6.98,2.9,1.22.11,2.25.5,3.35.92,2.02.76,4.53,1.71,9.58,1.25,8.15-.75,13.91,1.58,14.15,1.68.62.26.92.97.67,1.59-.19.47-.65.76-1.13.76Z"/>
        <rect class="cls-1" x="29.92" y="87.71" width="2.44" height="18.19" transform="translate(-70.55 97.26) rotate(-72.42)"/>
      </g>
      <g>
        <path class="cls-1" d="M58.85,84.4c-.38,0-.77-.03-1.16-.11-1.33-.29-2.39-1.12-2.84-2.23-.85-2.08.84-3.62,1.86-4.54.26-.24.51-.46.7-.68,1.19-1.36,2.12-2.53,2.95-3.68,1.83-2.55,3.22-5.18,4.13-7.8.03-.08.11-.32.12-.43,0,.03-.1-.04-.27-.1-1.57-.57-3.16-1.12-4.75-1.67-2.06-.71-4.12-1.42-6.15-2.18l-.36-.14c-2.7-1.01-6.39-2.4-7.75-5.53-.38-.88-.35-1.83.08-2.56.89-1.51,2.84-1.37,3.57-1.32,2.51.18,5.08.15,7.56.12,1.76-.02,3.52-.04,5.28,0,.3,0,.64.03.99.06,2.46.18,3.18-.01,3.35-.91.09-.47-.02-1.04-.15-1.58-.74-3.23-2.12-6.39-4.01-9.13-.47-.68-1.89-2.75-.59-4.43.47-.62,1.45-1.29,3.42-.99,3.11.48,6.16,1.98,8.81,4.34.49.43.88.77,1.22,1.05,1.4,1.18,1.91,1.66,3.1,3.9.32.59.09,1.33-.5,1.65-.59.31-1.33.1-1.65-.5-1.03-1.93-1.31-2.17-2.52-3.18-.35-.29-.76-.64-1.27-1.09-2.3-2.04-4.92-3.34-7.57-3.75-.71-.11-1.05,0-1.11.06,0,0-.19.31.67,1.55,2.05,2.99,3.57,6.44,4.37,9.97.17.76.34,1.65.16,2.58-.62,3.28-4.08,3.02-5.93,2.88-.31-.02-.61-.05-.88-.05-1.73-.04-3.46-.03-5.19,0-2.54.03-5.15.05-7.76-.13-1.15-.09-1.3.13-1.3.13-.02.04-.02.18.05.35.95,2.17,3.95,3.31,6.37,4.21l.36.14c2.01.76,4.05,1.46,6.08,2.16,1.6.55,3.21,1.1,4.79,1.68.93.34,1.56.95,1.79,1.73.23.78-.02,1.5-.16,1.9-.99,2.84-2.48,5.67-4.45,8.42-.87,1.22-1.85,2.45-3.09,3.87-.25.28-.57.57-.9.88-.98.89-1.41,1.39-1.24,1.81.14.35.57.65,1.09.77.66.14,1.4.02,2.04-.11,3.18-.66,6.25-2.35,9.38-5.18,1.35-1.22,2.59-2.53,4.04-4.12.28-.31.55-.62.8-.92,1.55-1.82,3.47-4.1,7.03-1.69,3.16,2.15,6.71,3.84,10.14,5.48,1.74.83,3.54,1.69,5.39,1.9.9.11,1.73-.12,1.86-.5.26-.73-1.19-2.13-1.81-2.73-.02-.02-.19-.18-.21-.21-2.6-2.88-4.95-6-7.22-9.02l-1.54-2.04c-.53-.7-1.2-1.57-1.4-2.69-.35-1.88,1-3.11,1.89-3.93.2-.18.4-.36.57-.54.59-.62,1.21-1.24,1.82-1.84.71-.7,1.41-1.4,2.09-2.13,2.19-2.38,3.39-4.55,3.64-6.66.1-.79-.09-1.53-.41-1.65-.3-.1-.93.13-1.27.26l-7.04,2.65c-.65.24-1.17.39-1.63.52-.99.28-1.44.4-2.34,1.33-.47.49-1.24.5-1.73.03-.48-.47-.5-1.24-.03-1.73,1.36-1.4,2.32-1.67,3.44-1.98.4-.11.86-.24,1.43-.45l7.04-2.65c.69-.26,1.84-.7,3.01-.26,1.43.56,2.2,2.22,1.95,4.23-.32,2.64-1.72,5.26-4.27,8.02-.7.76-1.43,1.48-2.16,2.21-.59.59-1.19,1.18-1.77,1.79-.21.22-.45.44-.69.66-.77.71-1.24,1.18-1.14,1.69.1.56.55,1.14.95,1.66l1.55,2.05c2.24,2.98,4.56,6.06,7.08,8.85,1.29,1.24,3.29,3.17,2.52,5.38-.65,1.87-2.81,2.32-4.44,2.12-2.25-.26-4.33-1.25-6.16-2.12-3.52-1.67-7.15-3.41-10.46-5.66-1.67-1.14-2.13-.71-3.79,1.25-.27.32-.56.66-.86.99-1.3,1.42-2.7,2.92-4.21,4.29-3.46,3.13-6.9,5.01-10.52,5.76-.54.11-1.2.22-1.89.22Z"/>
        <path class="cls-1" d="M76.02,60.32c-.67,0-1.22-.55-1.22-1.22v-.8c0-.67.55-1.22,1.22-1.22s1.22.55,1.22,1.22v.8c0,.67-.55,1.22-1.22,1.22Z"/>
      </g>
      <path class="cls-1" d="M73.2,146.4C32.84,146.4,0,113.56,0,73.2S32.84,0,73.2,0s73.2,32.84,73.2,73.2-32.84,73.2-73.2,73.2ZM73.2,2.44C34.18,2.44,2.44,34.18,2.44,73.2s31.74,70.76,70.76,70.76,70.76-31.74,70.76-70.76S112.21,2.44,73.2,2.44Z"/>
    </g>
  </g>
</svg>