<?xml version="1.0" encoding="UTF-8"?>
<svg id="Layer_1" data-name="Layer 1" xmlns="http://www.w3.org/2000/svg" viewBox="0 0 360 360">
  <path d="M190.41,282.73c-.46,0-.87-.3-1-.76-.11-.42-2.85-10.5-2.5-23.53.17-6.16,2.15-9.97,4.44-14.38,2.74-5.28,5.86-11.26,7.18-23.36,1.32-12.12-.98-18.35-4.17-26.98-3.57-9.66-2.4-14.25-1.54-17.6.58-2.26.92-3.63-.47-5.77-2.66-4.11-2.95-10.74-.68-15.43,1.31-2.7,4.02-6.04,9.54-6.57,5.64-.55,9.86.59,12.55,3.38,3.6,3.73,3.3,9.29,3,11.51-.61,4.58-3.73,7.86-6.75,11.03-4.42,4.64-8.24,8.65-4.94,16.23,6.32,14.5,2.86,42.86-7.12,58.34-9.85,15.28-6.58,32.5-6.54,32.67.11.54-.23,1.08-.77,1.21-.08.02-.16.03-.24.03ZM203.86,150.27c-.77,0-1.59.04-2.44.12-4.57.44-6.81,3.19-7.88,5.42-2.17,4.5-1.42,10.35.56,13.41,1.88,2.9,1.35,4.99.73,7.4-.79,3.09-1.87,7.33,1.48,16.38,3.29,8.89,5.66,15.32,4.28,27.92-1.36,12.48-4.71,18.92-7.4,24.09-2.27,4.36-4.06,7.81-4.21,13.49-.08,3.14.02,6.13.22,8.85.76-5.9,2.68-12.9,7.03-19.64,9.67-15.01,13.05-42.41,6.96-56.4-3.85-8.83,1.03-13.95,5.34-18.47,2.92-3.06,5.68-5.96,6.2-9.88.26-1.92.53-6.72-2.44-9.8-1.85-1.92-4.68-2.88-8.43-2.88Z" style="fill: #2c70b8; stroke-width: 0px;"/>
  <path d="M208.06,148.85c-.1,0-.2-.02-.3-.05-.5-.15-.8-.66-.71-1.17.02-.08,1.4-8.13-3.69-14.2-3.9-4.65-10.54-7.01-19.74-7.01-.11,0-.23,0-.34,0-21.93,0-28.95-12.68-35.73-24.95-2.11-3.82-4.3-7.77-6.9-11.22-4.29-5.69-10.96-8.85-17.43-8.25-5.22.49-9.53,3.41-11.82,8.03-.19.39-.61.63-1.04.57-.43-.05-.79-.36-.89-.79-.06-.27-1.54-6.76,2.48-11.69,2.99-3.67,8.17-5.41,15.35-5.21,13.3.4,18.88,9.37,25.35,19.76.8,1.29,1.62,2.6,2.47,3.93,1.34,2.09,2.51,3.99,3.58,5.74,6.81,11.08,9.36,15.23,24.56,17.16l1.02.13c6.7.83,20.65,2.55,25.55,11.23,2.58,4.57,2.31,10.43-.81,17.4-.17.38-.54.61-.94.61ZM183.61,124.35c9.86,0,17.04,2.61,21.34,7.77,2.59,3.1,3.69,6.58,4.12,9.49.81-3.8.46-7.07-1.06-9.76-4.39-7.77-17.64-9.41-24-10.19l-1.03-.13c-16.17-2.06-19.07-6.76-26.05-18.13-1.07-1.73-2.23-3.63-3.56-5.7-.86-1.34-1.68-2.66-2.49-3.95-6.41-10.29-11.47-18.42-23.66-18.78-6.55-.21-11.11,1.3-13.68,4.44-1.83,2.24-2.29,4.96-2.33,6.98,2.79-3.69,6.95-5.99,11.8-6.44,7.16-.67,14.55,2.81,19.27,9.06,2.69,3.56,4.91,7.58,7.06,11.46,6.79,12.28,13.21,23.89,33.92,23.89.11,0,.23,0,.34,0Z" style="fill: #2c70b8; stroke-width: 0px;"/>
  <path d="M179,116.36c-.16,0-.31-.03-.46-.11-.51-.25-.72-.87-.47-1.38,3.6-7.24,6.45-21.06-.44-29.42-2.16-2.63-6.02-4.84-10.1-7.18-8.99-5.15-19.17-10.99-15.69-23.74,1.78-6.52,4.93-10.72,7.89-13.37-3.44,1.44-7.28,3.73-9.77,7.28-2.51,3.58-3.26,7.94-2.23,12.94,2.29,11.09,8.96,14.92,15.41,18.62,5,2.87,9.72,5.58,12.01,11.34,5.22,13.09-.73,22.15-.98,22.53-.32.47-.96.6-1.43.28-.47-.32-.6-.96-.28-1.43.06-.08,5.57-8.58.77-20.61-2.03-5.1-6.45-7.63-11.12-10.31-6.53-3.75-13.93-7.99-16.41-20-1.16-5.59-.29-10.49,2.57-14.56,5.91-8.42,18.17-10.27,18.68-10.35.54-.08,1.04.28,1.16.81s-.21,1.06-.73,1.21c-.41.11-9.94,2.95-13.55,16.16-3.06,11.21,5.98,16.39,14.72,21.4,4.25,2.44,8.27,4.74,10.67,7.66,8.1,9.83,3.99,25,.7,31.65-.18.36-.55.57-.93.57Z" style="fill: #2c70b8; stroke-width: 0px;"/>
  <path d="M181.16,148.64c-1.36,0-2.83-.14-4.42-.45-4.68-.94-8-3.13-9.89-6.5-3.6-6.45-.56-14.84-.43-15.2.2-.53.8-.8,1.32-.61.53.2.81.79.61,1.33-.03.08-2.84,7.87.3,13.48,1.58,2.82,4.43,4.66,8.49,5.48,6.21,1.24,10.38-.57,14.05-2.18,3.89-1.7,7.58-3.31,12.46-.63-.38-.99-1.03-2.09-2.14-2.88-1.93-1.38-4.77-1.52-8.46-.44-6.02,1.77-14.02,3.11-17.97-.57-2.24-2.08-2.87-5.44-1.88-9.97.12-.56.66-.9,1.23-.79.56.12.91.67.79,1.23-.82,3.77-.4,6.47,1.27,8.02,2.53,2.36,8.21,2.39,15.98.1,4.34-1.28,7.8-1.03,10.27.75,3.31,2.39,3.5,6.59,3.51,6.77.01.4-.2.77-.56.95-.35.18-.78.15-1.1-.1-5.04-3.86-8.2-2.47-12.57-.56-2.89,1.26-6.31,2.76-10.87,2.76Z" style="fill: #2c70b8; stroke-width: 0px;"/>
  <path d="M213.73,148.52c-.39,0-.75-.22-.92-.57-.21-.42-.11-.92.24-1.23,1.18-1.05,2.53-2.02,3.97-3.05,3.86-2.76,8.24-5.88,11.33-12.11,2.46-4.96-2.99-9.22-8.77-13.72-3.25-2.54-6.62-5.16-8.54-8.01-5.22-7.71-3.97-20.92,8.65-30.24,5.6-4.14,14.06-18.33,14.15-18.47.2-.33.56-.52.95-.5.39.02.73.26.88.61,3.88,8.72-3.49,16.6-9.99,23.55-5.12,5.47-9.95,10.64-9.17,15.48.79,4.88,5.05,7.87,9.57,11.03,5.93,4.16,12.06,8.45,10.67,17.4-2.4,15.49-21.96,19.64-22.79,19.81-.07.01-.14.02-.21.02ZM234.43,64.07c-2.57,4.12-8.83,13.7-13.53,17.17-11.59,8.55-12.86,20.51-8.17,27.42,1.75,2.58,4.98,5.1,8.11,7.54,6.17,4.82,12.56,9.8,9.35,16.27-3.06,6.16-7.37,9.56-11.04,12.21,5.78-2.33,14.13-7.21,15.54-16.31,1.19-7.68-4.16-11.42-9.82-15.39-4.67-3.27-9.49-6.65-10.42-12.4-.94-5.84,4.23-11.37,9.7-17.22,5.78-6.19,11.75-12.57,10.28-19.29Z" style="fill: #2c70b8; stroke-width: 0px;"/>
  <path d="M205.5,168.38c-.25,0-.5-.09-.7-.27-.42-.38-.45-1.04-.07-1.46,2.63-2.87,3.35-6.8,1.88-10.24-.22-.52.02-1.13.54-1.35.53-.22,1.13.02,1.35.55,1.79,4.19.92,8.96-2.26,12.44-.2.22-.48.34-.76.34Z" style="fill: #2c70b8; stroke-width: 0px;"/>
  <path d="M175.53,213.67c-2.66,0-4.83-2.17-4.83-4.83s2.17-4.83,4.83-4.83,4.83,2.17,4.83,4.83-2.17,4.83-4.83,4.83ZM175.53,206.08c-1.52,0-2.76,1.24-2.76,2.76s1.24,2.76,2.76,2.76,2.76-1.24,2.76-2.76-1.24-2.76-2.76-2.76Z" style="fill: #2c70b8; stroke-width: 0px;"/>
  <path d="M164.27,191.15c-2.66,0-4.83-2.17-4.83-4.83s2.17-4.83,4.83-4.83,4.83,2.17,4.83,4.83-2.17,4.83-4.83,4.83ZM164.27,183.56c-1.52,0-2.76,1.24-2.76,2.76s1.24,2.76,2.76,2.76,2.76-1.24,2.76-2.76-1.24-2.76-2.76-2.76Z" style="fill: #2c70b8; stroke-width: 0px;"/>
  <path d="M186.8,301.03c-.49,0-1.84-.12-2.95-1.34-1.38-1.52-1.76-4.08-1.15-7.61.84-4.85,3-7.8,4.74-9.47-2.31.34-5.75,1.82-8.83,7.01-6.08,10.27-16.44,4.3-16.55,4.23-.49-.29-.65-.92-.36-1.41.29-.49.93-.66,1.41-.36.36.21,8.69,4.97,13.72-3.51,5.97-10.08,13.53-7.95,13.85-7.85.41.12.7.49.73.91.03.43-.21.83-.59,1.01-.19.09-4.82,2.39-6.11,9.8-.62,3.54,0,5.13.62,5.84.62.71,1.45.69,1.47.69.54.02,1.05.41,1.08.97s-.38,1.05-.94,1.09c-.03,0-.08,0-.17,0Z" style="fill: #2c70b8; stroke-width: 0px;"/>
  <path d="M195.69,298.21c-.13,0-.26-.02-.38-.07-.53-.21-.79-.81-.57-1.34.16-.42.79-2.64-2.58-3.93-5.4-2.08-2.84-11.08-2.73-11.46.16-.55.73-.86,1.28-.7.55.16.86.73.7,1.28-.02.07-2.09,7.58,1.49,8.95,1.82.7,3.05,1.75,3.65,3.12.77,1.76.18,3.33.11,3.51-.16.4-.55.65-.96.65Z" style="fill: #2c70b8; stroke-width: 0px;"/>
</svg>