<?xml version="1.0" encoding="UTF-8"?>
<svg id="Layer_1" data-name="Layer 1" xmlns="http://www.w3.org/2000/svg" viewBox="0 0 360 360">
  <path d="M266.23,281.22c-1.18,0-2.33-.77-2.93-1.99-.39-.8-.51-1.65-.62-2.39l-.07-.51c-.52-3.21-2.42-6.16-4.15-8.66-2.92-4.22-6.46-7.95-9.87-11.55-2.38-2.5-4.83-5.09-7.08-7.84-1.34-1.63-1.84-2.96-1.75-4.57,0-.15.05-.46.11-.85-1.56,1-3.26,1.65-4.79,1.24-1.5-.4-2.99-.84-4.47-1.27-6.05-1.77-11.75-3.45-17.97-2.91-.84.08-1.72.16-2.61-.17-1.02-.37-1.79-1.19-2.18-2.31-.34-.98-.34-2.1,0-3.06.54-1.48,1.73-2.73,3.64-3.81,5.86-3.33,12.7-2.96,19.31-2.59,1.73.1,3.45.19,5.15.22,1.09.02,2.32-.01,3.12-.57,1.2-.85,1.4-2.8,1.48-4.56.17-3.64.19-6.86-1.37-9.37-1.23-1.98-3.41-3.36-5.34-4.59-.28-.18-.47-.46-.54-.77-.98-1.38-8.96-5.77-12-7.44-1.45-.8-2.57-1.41-3.02-1.7-5.23-3.34-10.34-6.82-15.13-10.1-.56-.38-.7-1.14-.32-1.7s1.14-.7,1.7-.32c4.77,3.27,9.86,6.73,15.06,10.05.43.28,1.5.86,2.89,1.62,9.32,5.13,12.28,7.13,13.02,8.52,1.97,1.26,4.31,2.83,5.74,5.13,2.09,3.36,1.9,7.47,1.74,10.77-.08,1.69-.23,4.82-2.51,6.44-1.4.99-3.07,1.05-4.57,1.02-1.73-.03-3.48-.12-5.24-.22-6.26-.35-12.73-.7-17.97,2.27-1.39.79-2.22,1.61-2.55,2.53-.16.43-.16.97,0,1.42.08.24.29.67.71.82.38.14.92.09,1.48.04,6.76-.59,12.96,1.23,18.95,2.99,1.46.43,2.94.86,4.42,1.26,1,.26,3-.8,5.09-2.71.41-.37,1.02-.43,1.48-.13.47.3.67.87.51,1.4-.12.42-.57,3.13-.6,3.57-.04.66.02,1.43,1.2,2.87,2.19,2.68,4.62,5.24,6.96,7.71,3.48,3.67,7.08,7.46,10.11,11.84,1.89,2.73,3.96,5.95,4.55,9.67l.08.56c.09.62.17,1.2.39,1.66.2.4.53.66.77.62.35-.07.63-.92.63-1.95,0-8.96-4.02-19.66-10.74-28.6-.7-.93-1.46-1.86-2.23-2.81-3.2-3.93-6.82-8.37-6.96-13.98-.08-3.16,1.08-6.06,2.2-8.86.41-1.03.82-2.05,1.17-3.09,5.25-15.72,4.95-21.22,2.94-30.91-3.29-15.87-16.05-28.49-18.58-30.86-6.41-6.01-13.12-12-19.95-17.8-4.79-4.07-8.54-7.11-12.16-9.86-11.98-9.1-22.04-15.37-31.65-19.73-6.3-2.85-12.17-5.51-18.7-7.14-2.92-.73-5.93-1.36-8.84-1.97-4.01-.84-8.15-1.71-12.18-2.86-6.52-1.86-25.61-5.78-29.49-1.92-.37.37-.82,1.03-.42,2.46.98,3.52,3.56,6.87,7.26,9.43,2.52,1.75,5.42,3.08,8.22,4.36.91.41,1.81.83,2.71,1.26,19.88,9.51,35.31,25.99,50.24,41.92,3.6,3.84,7.32,7.81,11,11.57.47.48.46,1.25-.02,1.73-.48.47-1.25.47-1.73-.02-3.7-3.77-7.43-7.75-11.04-11.6-14.77-15.77-30.05-32.07-49.51-41.39-.88-.42-1.78-.83-2.67-1.24-2.9-1.33-5.9-2.69-8.6-4.57-4.16-2.89-7.08-6.72-8.22-10.78-.69-2.46.19-3.99,1.05-4.85,5.93-5.9,31.62,1.23,31.88,1.3,3.94,1.12,8.04,1.99,12.01,2.82,2.93.62,5.96,1.25,8.93,1.99,6.74,1.68,12.71,4.39,19.02,7.25,9.87,4.48,20.08,10.83,32.21,20.05,3.66,2.78,7.44,5.85,12.26,9.95,6.86,5.83,13.6,11.84,20.04,17.89,2.62,2.46,15.86,15.55,19.3,32.14,2.22,10.71,2.1,16.86-3.01,32.18-.36,1.08-.79,2.15-1.22,3.22-1.08,2.69-2.09,5.23-2.03,7.9.11,4.77,3.31,8.69,6.41,12.49.79.97,1.57,1.93,2.29,2.88,7.14,9.49,11.23,20.46,11.23,30.07,0,2.41-.98,4.03-2.62,4.34-.16.03-.32.05-.48.05ZM233.27,208.06h0s0,0,0,0Z" style="fill: #2c70b8; stroke-width: 0px;"/>
  <path d="M165.16,119.18c-.52,0-1-.33-1.16-.85-1.96-6.17-9.11-9.09-15.41-11.66-1.06-.43-2.09-.85-3.05-1.27-8.09-3.52-16.59-6.5-24.8-9.37l-1.24-.44c-.64-.22-.97-.92-.75-1.55.22-.64.92-.98,1.55-.75l1.24.43c8.25,2.89,16.79,5.88,24.97,9.44.95.41,1.96.82,3,1.25,6.47,2.64,14.52,5.92,16.82,13.18.21.64-.15,1.33-.79,1.53-.12.04-.25.06-.37.06Z" style="fill: #2c70b8; stroke-width: 0px;"/>
  <g>
    <path d="M171.02,118.6s.03-.05.04-.07c.31-.47,1.68-.19,2.09,0,1.02.45,1.7.82,1.7.82,0,0,1.57,1.54,1.58,1.56.63.62-.89.83-1.23.84-.84.03-1.68-.25-2.4-.67-.55-.32-2.18-1.63-1.78-2.47Z" style="fill: #2c70b8; stroke-width: 0px;"/>
    <path d="M175.06,122.97c-.94,0-1.93-.29-2.88-.84-.03-.02-3.25-1.96-2.27-4.03l.1-.19c.89-1.36,3.09-.73,3.63-.49,1.07.48,1.78.86,1.78.86l.28.21,1.59,1.56c.48.47.63,1.09.41,1.67-.43,1.1-2,1.24-2.47,1.26-.06,0-.12,0-.18,0ZM173.27,119.92c.05.04.1.07.15.09.2.12.45.24.72.34h-.01c-.17-.1-.46-.25-.85-.43Z" style="fill: #2c70b8; stroke-width: 0px;"/>
  </g>
  <path d="M193.39,255.45c-.38,0-.76-.05-1.15-.17-1.73-.51-2.66-1.94-3.48-3.21-.55-.84-1.06-1.64-1.74-2.08-.26-.17-.56-.31-.86-.45-.86-.41-1.93-.91-2.43-2.08-.56-1.3-.05-2.53.36-3.52.27-.63.52-1.24.41-1.64-.09-.34-.49-.7-.92-1.08-.59-.52-1.25-1.11-1.59-2.01-.5-1.33-.04-2.6.33-3.63.12-.33.24-.66.33-.99.41-1.61-.19-3.23-.81-4.93-.4-1.1-.82-2.24-1-3.46-.36-2.39.09-4.71.51-6.96.14-.71.27-1.41.38-2.11.44-2.89.23-5.09-.62-6.54-.4-.67-1.08-1.19-1.8-1.74-.86-.65-1.83-1.39-2.46-2.52-1.4-2.5-.11-5.26.92-7.47l.18-.39c2.8-6.07,2.96-13.38.44-19.56l-.32-.76c-.54-1.28-1.11-2.6-1.21-4.1-.14-2.04.61-3.86,1.34-5.61.25-.6.5-1.21.71-1.82.86-2.52.98-5.2,1.11-8.04.07-1.45.13-2.9.3-4.33.66-5.68,3.19-9.85,6.94-11.42.62-.26,1.34.03,1.6.65.26.62-.03,1.34-.65,1.6-4.14,1.74-5.2,7.19-5.46,9.46-.16,1.37-.22,2.77-.29,4.16-.13,2.89-.27,5.87-1.24,8.72-.22.66-.49,1.31-.76,1.96-.65,1.56-1.25,3.04-1.16,4.52.07,1.09.53,2.16,1.02,3.3l.33.79c2.78,6.8,2.6,14.84-.48,21.51l-.19.4c-.88,1.89-1.79,3.84-1,5.25.38.69,1.07,1.21,1.81,1.77.83.63,1.78,1.35,2.43,2.44,1.16,1.97,1.46,4.63.93,8.15-.11.73-.25,1.47-.39,2.2-.41,2.14-.79,4.16-.5,6.14.15.97.5,1.94.88,2.98.69,1.89,1.47,4.03.88,6.37-.1.41-.25.82-.4,1.23-.28.78-.53,1.45-.35,1.93.13.34.52.68.93,1.05.62.55,1.39,1.23,1.66,2.28.32,1.2-.15,2.31-.52,3.2-.27.65-.52,1.26-.37,1.61.14.32.67.57,1.23.84.4.19.79.38,1.14.61,1.1.72,1.82,1.82,2.45,2.79.68,1.04,1.26,1.94,2.12,2.2,1.1.33,2.29-.6,2.78-1.62,1.25-2.55.79-6.61.38-10.19-.18-1.55-.34-3.02-.37-4.31-.13-5.99.03-12.07.47-18.06l.13-1.79c.56-7.82,1.13-15.9,4.28-23.09,3.09-7.06,1.79-15.89-.46-21.8l-.42-1.09c-1.2-3.05-2.56-6.52-1.12-9.79,1.4-3.18,4.95-5.01,10.55-5.45.67-.08,1.26.45,1.31,1.12s-.45,1.26-1.12,1.31c-4.64.36-7.5,1.71-8.51,4-1.03,2.34.08,5.17,1.16,7.91l.43,1.11c2.42,6.36,3.79,15.91.41,23.64-2.98,6.8-3.54,14.67-4.08,22.28l-.13,1.8c-.44,5.91-.59,11.91-.46,17.82.03,1.19.19,2.59.36,4.09.45,3.91.95,8.35-.61,11.54-.79,1.62-2.55,3.05-4.52,3.05Z" style="fill: #2c70b8; stroke-width: 0px;"/>
  <path d="M151.58,224.73c-.46,0-.9-.08-1.31-.24-1.61-.61-2.41-2.16-2.97-3.59-.82-2.07-1.5-4.21-2.03-6.39-.84-3.43.36-6.48,1.51-9.42,1.29-3.3,2.52-6.42.78-9.93l-.21-.41c-.3-.58-.65-1.23-.76-2.02-.26-1.78.77-3.28,1.59-4.48l.19-.28c3.05-4.49,4.11-10.32,2.83-15.59-.24-.97-.49-1.99-.16-3.04.46-1.46,1.75-2.2,2.79-2.79l.54-.31c2.53-1.53,3.35-4.2,4.22-7.04.32-1.04.64-2.09,1.04-3.1.25-.62.96-.93,1.59-.68.63.25.93.96.68,1.59-.38.94-.68,1.93-.98,2.9-.97,3.15-1.96,6.41-5.29,8.41l-.6.35c-.77.44-1.5.85-1.67,1.39-.12.4.02.97.17,1.58,1.47,6.09.28,12.65-3.15,17.69l-.2.29c-.64.94-1.31,1.91-1.19,2.75.05.37.27.79.5,1.23l.24.46c2.21,4.48.67,8.42-.7,11.89-1.06,2.71-2.07,5.27-1.41,7.95.5,2.06,1.15,4.11,1.93,6.07.37.93.84,1.93,1.56,2.2.97.37,2.25-.62,2.62-.94.61-.52,1.34-1.32,1.36-2.14,0-.27-.06-.6-.14-.95-.08-.38-.16-.77-.18-1.15-.11-1.69.7-3.12,1.41-4.38.27-.47.54-.95.75-1.44.51-1.16.69-2.47.89-3.86.12-.88.25-1.75.45-2.61,1.23-5.2,3.91-10.05,6.49-14.73,1.84-3.34,3.74-6.78,5.04-10.24.24-.63.94-.96,1.57-.71.63.24.95.94.71,1.57-1.36,3.62-3.3,7.15-5.18,10.56-2.51,4.55-5.1,9.25-6.26,14.12-.18.78-.3,1.58-.41,2.38-.21,1.49-.43,3.02-1.07,4.49-.25.56-.55,1.11-.86,1.66-.6,1.06-1.16,2.05-1.1,3.02.02.27.08.54.13.8.1.45.2.96.19,1.51-.04,1.39-.78,2.72-2.22,3.94-1.23,1.05-2.54,1.6-3.76,1.6Z" style="fill: #2c70b8; stroke-width: 0px;"/>
</svg>