<?xml version="1.0" encoding="UTF-8"?>
<svg id="Layer_1" data-name="Layer 1" xmlns="http://www.w3.org/2000/svg" viewBox="0 0 360 360">
  <path d="M101.87,220.35c-.67,0-1.22-.55-1.22-1.22,0-8.22,24.23-22.19,35.31-23.58,9.79-1.22,12.69-8.19,20.46-26.81l1.63-3.9c7.77-18.53,20.85-19.81,36-21.29,3.14-.31,6.39-.62,9.68-1.11,9.96-1.48,13.84,4.78,18.33,12.03l.67,1.09c.36.57.18,1.33-.39,1.68-.57.35-1.32.18-1.68-.39l-.67-1.09c-4.36-7.05-7.49-12.13-15.89-10.9-3.35.5-6.63.82-9.8,1.13-14.96,1.46-26.78,2.62-33.99,19.8l-1.63,3.89c-7.94,19.02-11.22,26.9-22.41,28.29-11.47,1.44-33.18,15.28-33.18,21.15,0,.67-.55,1.22-1.22,1.22Z" style="fill: #2c70b8; stroke-width: 0px;"/>
  <path d="M269.61,214.06s-.07,0-.11,0c-.67-.06-1.17-.66-1.11-1.33,0-.08.64-7.61-1.98-15.85-3.47-10.89-10.73-17.82-21.57-20.6-3.19-.82-6.14-1.96-8.78-3.41-.59-.32-.81-1.06-.49-1.65.32-.59,1.06-.81,1.65-.49,2.46,1.34,5.22,2.41,8.22,3.18,14.63,3.75,20.75,14.2,23.31,22.31,2.75,8.69,2.09,16.4,2.06,16.73-.06.63-.59,1.11-1.21,1.11Z" style="fill: #2c70b8; stroke-width: 0px;"/>
  <path d="M218.42,223.36c-.13,0-.28-.02-.43-.06-.31-.09-1.06-.46-1.11-1.75h0c0-.15,0-.3,0-.44.04-2.11.86-4.26,2.52-6.56,1.79-2.48,3.87-3.78,6.02-3.78,1.97,0,3.79,1.25,4.53,3.11.86,2.16.03,4.7-1.96,6.04-2.58,1.72-5.62,2.5-8.57,3.26l-.42.11c-.14.04-.34.09-.57.09ZM218.71,221.48h0s.24-.08.24-.08c2.79-.72,5.69-1.46,8.01-3.01,1.28-.86,1.82-2.48,1.28-3.84-.45-1.15-1.62-1.95-2.83-1.95-1.95,0-3.54,1.64-4.53,3.02-1.41,1.96-2.14,3.82-2.17,5.52v.34Z" style="fill: #2c70b8; stroke-width: 0px;"/>
  <path d="M211.69,222.08c-.39,0-.91-.16-1.45-.78,0,0,0,0,0-.01l-.27-.33c-1.27-1.66-1.97-3.92-2.1-6.71-.14-3.04.68-5.36,2.37-6.7,1.54-1.23,3.75-1.38,5.48-.38,2.02,1.17,2.95,3.67,2.21,5.96-.95,2.95-2.85,5.45-4.69,7.87l-.26.34c-.13.18-.36.47-.75.63-.12.05-.3.1-.53.1ZM213.25,208.35c-.68,0-1.35.22-1.88.64-1.53,1.21-1.76,3.48-1.67,5.18.11,2.41.69,4.32,1.72,5.68l.22.27.14-.22c1.74-2.3,3.55-4.68,4.4-7.33.47-1.47-.1-3.07-1.38-3.81-.47-.27-1.01-.41-1.54-.41Z" style="fill: #2c70b8; stroke-width: 0px;"/>
  <path d="M159.06,223.91c-.36,0-.88-.15-1.35-.83,0,0,0-.01-.01-.02l-.18-.28c-.89-1.48-1.26-3.37-1.12-5.63.16-2.49,1.04-4.31,2.55-5.27,1.4-.88,3.25-.81,4.59.19,1.57,1.15,2.12,3.32,1.29,5.15-1.03,2.29-2.77,4.14-4.46,5.92l-.23.24c-.11.12-.36.39-.75.49-.08.02-.2.05-.35.05ZM161.1,213.11c-.41,0-.82.11-1.17.33-1.25.79-1.61,2.52-1.7,3.83-.12,1.89.16,3.42.85,4.56h0c1.57-1.65,3.19-3.36,4.08-5.36.47-1.05.17-2.28-.71-2.92-.4-.29-.88-.44-1.36-.44Z" style="fill: #2c70b8; stroke-width: 0px;"/>
  <path d="M190.46,224.1c-.22,0-.4-.05-.52-.1-.4-.16-.63-.46-.76-.63l-.29-.38c-1.83-2.41-3.72-4.91-4.66-7.84-.74-2.28.19-4.79,2.21-5.95,1.73-1,3.93-.84,5.48.38,1.69,1.34,2.51,3.66,2.37,6.7-.13,2.79-.83,5.04-2.1,6.7h0s-.27.34-.27.34c-.54.63-1.06.79-1.45.79ZM191.46,222.42h.02-.02ZM188.9,210.37c-.53,0-1.07.13-1.54.41-1.28.74-1.86,2.34-1.38,3.81.85,2.64,2.64,5.01,4.38,7.3l.18.23.2-.25c1.04-1.36,1.62-3.27,1.72-5.67.08-1.7-.15-3.97-1.67-5.18-.53-.42-1.2-.63-1.88-.63Z" style="fill: #2c70b8; stroke-width: 0px;"/>
  <path d="M197.94,222.64c-.36,0-.88-.15-1.35-.83,0,0,0,0,0,0l-.19-.29c-.89-1.47-1.26-3.36-1.12-5.63.16-2.5,1.04-4.32,2.55-5.27,1.4-.87,3.25-.8,4.59.18,1.57,1.15,2.12,3.32,1.29,5.15-1.02,2.29-2.76,4.12-4.44,5.89l-.25.26c-.11.12-.36.39-.75.49-.08.02-.2.05-.35.05ZM199.98,211.83c-.41,0-.82.11-1.17.33-1.25.79-1.62,2.52-1.7,3.83-.12,1.89.17,3.42.85,4.56h0c1.57-1.64,3.19-3.36,4.08-5.35.47-1.05.17-2.28-.71-2.92-.4-.29-.88-.44-1.36-.44Z" style="fill: #2c70b8; stroke-width: 0px;"/>
  <path d="M184.27,225.86c-.23,0-.42-.05-.56-.08l-.45-.11c-2.94-.76-5.98-1.54-8.55-3.26-2-1.33-2.82-3.87-1.97-6.04.73-1.86,2.55-3.1,4.53-3.1,2.16,0,4.24,1.31,6.02,3.78,1.63,2.26,2.48,4.47,2.52,6.56h0c0,.15,0,.3,0,.44-.05,1.3-.8,1.66-1.12,1.76-.15.05-.29.06-.42.06ZM177.28,215.09c-1.21,0-2.37.8-2.83,1.95-.54,1.37,0,2.99,1.28,3.84,2.31,1.54,5.2,2.29,7.99,3l.26.07v-.32c-.03-1.71-.76-3.56-2.17-5.52-.99-1.38-2.58-3.02-4.53-3.02Z" style="fill: #2c70b8; stroke-width: 0px;"/>
  <path d="M199.66,208.98h-.04c-.51-.02-.9-.45-.88-.96.08-1.7-.15-3.98-1.68-5.18-.94-.75-2.36-.85-3.42-.23-1.28.73-1.86,2.33-1.38,3.81.16.48-.11,1-.59,1.15-.47.16-1-.11-1.15-.59-.74-2.29.19-4.79,2.21-5.96,1.74-1,3.93-.84,5.48.38,1.69,1.34,2.51,3.66,2.37,6.7-.02.49-.43.88-.92.88Z" style="fill: #2c70b8; stroke-width: 0px;"/>
  <path d="M174.88,211.83c-.49,0-.89-.38-.92-.88-.14-3.05.68-5.36,2.37-6.7,1.54-1.22,3.74-1.38,5.48-.38,2.02,1.17,2.95,3.67,2.21,5.96-.16.48-.66.74-1.15.59-.48-.16-.74-.67-.59-1.15.47-1.47-.11-3.07-1.38-3.81-1.07-.61-2.48-.52-3.42.23-1.53,1.21-1.76,3.49-1.68,5.18.02.5-.37.93-.88.96h-.04Z" style="fill: #2c70b8; stroke-width: 0px;"/>
  <path d="M256.89,204.78c-.29,0-.57-.1-.8-.3-1.45-1.27-2.45-3.47-3.5-5.79-1.03-2.28-2.1-4.64-3.42-5.52-2.64-1.76-7.59-1.48-7.64-1.48-.75.06-1.25-.47-1.29-1.14-.04-.67.47-1.25,1.14-1.29.24,0,5.82-.33,9.14,1.88,1.9,1.27,3.12,3.95,4.29,6.55.9,1.99,1.83,4.04,2.88,4.96.51.44.56,1.21.11,1.72-.24.28-.58.42-.92.42Z" style="fill: #2c70b8; stroke-width: 0px;"/>
  <path d="M165.4,193.01c-.4,0-.79-.2-1.03-.56-.37-.57-.24-1.38.33-1.75.56-.37,1.28-.26,1.65.31l.07.11c.37.57.2,1.32-.36,1.69-.21.13-.43.2-.66.2Z" style="fill: #2c70b8; stroke-width: 0px;"/>
  <path d="M171.03,188.6c-.39,0-.78-.19-1.02-.54-.37-.56-.26-1.38.3-1.75.57-.38,1.28-.28,1.65.28l.08.11c.37.56.22,1.32-.34,1.69-.21.14-.44.21-.68.21Z" style="fill: #2c70b8; stroke-width: 0px;"/>
  <path d="M177.11,185.25c-.4,0-.79-.2-1.03-.56-.37-.57-.24-1.38.33-1.75.56-.37,1.28-.26,1.65.31l.07.11c.37.57.2,1.32-.36,1.69-.21.13-.43.2-.66.2Z" style="fill: #2c70b8; stroke-width: 0px;"/>
  <path d="M175.89,190.27c-.4,0-.79-.2-1.03-.56-.37-.57-.24-1.38.33-1.75.56-.37,1.28-.26,1.65.31l.07.11c.37.57.2,1.32-.36,1.69-.21.13-.43.2-.66.2Z" style="fill: #2c70b8; stroke-width: 0px;"/>
  <path d="M181.67,186.47c-.39,0-.78-.19-1.02-.54-.37-.56-.26-1.38.3-1.75.56-.38,1.28-.28,1.65.28l.08.11c.37.56.22,1.32-.34,1.69-.21.14-.44.21-.68.21Z" style="fill: #2c70b8; stroke-width: 0px;"/>
  <path d="M233.33,185.33c-.23,0-.47-.07-.68-.21-.56-.37-.71-1.13-.34-1.69.38-.56,1.17-.77,1.73-.4.56.37.75,1.08.38,1.64l-.08.11c-.24.35-.62.54-1.02.54Z" style="fill: #2c70b8; stroke-width: 0px;"/>
  <path d="M227.71,180.92c-.23,0-.47-.07-.68-.21-.56-.37-.71-1.13-.34-1.69s1.17-.77,1.73-.4c.56.37.75,1.08.38,1.64l-.08.11c-.24.35-.62.54-1.02.54Z" style="fill: #2c70b8; stroke-width: 0px;"/>
  <path d="M221.63,177.58c-.24,0-.48-.07-.69-.21-.56-.38-.7-1.14-.32-1.7.38-.56,1.17-.76,1.73-.38.56.38.74,1.08.36,1.64l-.08.11c-.24.35-.62.53-1.01.53Z" style="fill: #2c70b8; stroke-width: 0px;"/>
  <path d="M222.85,182.59c-.23,0-.47-.07-.68-.21-.56-.37-.71-1.13-.34-1.69.38-.56,1.17-.77,1.73-.4.56.37.75,1.08.38,1.64l-.08.11c-.24.35-.62.54-1.02.54Z" style="fill: #2c70b8; stroke-width: 0px;"/>
  <path d="M217.07,178.79c-.24,0-.48-.07-.69-.21-.56-.38-.7-1.14-.32-1.7.38-.56,1.18-.76,1.73-.38.56.38.74,1.08.36,1.64l-.08.11c-.24.35-.62.53-1.01.53Z" style="fill: #2c70b8; stroke-width: 0px;"/>
  <path d="M197.72,152.69c-.39,0-.78-.19-1.02-.54-.37-.56-.26-1.38.3-1.75.57-.38,1.28-.28,1.65.28l.08.11c.37.56.22,1.32-.34,1.69-.21.14-.44.21-.68.21Z" style="fill: #2c70b8; stroke-width: 0px;"/>
  <path d="M201.59,156.74c-.39,0-.77-.19-1.01-.53-.38-.56-.27-1.37.28-1.75.56-.38,1.28-.29,1.66.27l.08.11c.38.56.24,1.32-.32,1.7-.21.14-.45.21-.69.21Z" style="fill: #2c70b8; stroke-width: 0px;"/>
  <path d="M203.96,152.28c-.39,0-.78-.19-1.02-.54-.37-.56-.26-1.38.3-1.75.57-.38,1.28-.28,1.65.28l.08.11c.37.56.22,1.32-.34,1.69-.21.14-.44.21-.68.21Z" style="fill: #2c70b8; stroke-width: 0px;"/>
  <path d="M206.46,160.6c-.39,0-.78-.19-1.02-.54-.37-.56-.26-1.38.3-1.75.56-.38,1.28-.28,1.65.28l.08.11c.37.56.22,1.32-.34,1.69-.21.14-.44.21-.68.21Z" style="fill: #2c70b8; stroke-width: 0px;"/>
  <path d="M208.96,155.82c-.39,0-.78-.19-1.02-.54-.37-.56-.26-1.38.3-1.75.57-.38,1.29-.28,1.65.28l.08.11c.37.56.22,1.32-.34,1.69-.21.14-.44.21-.68.21Z" style="fill: #2c70b8; stroke-width: 0px;"/>
  <path d="M213.25,175.27c-.61,0-1.19-.43-1.27-1.04-.09-.67.31-1.28.97-1.37l.14-.02c.64-.09,1.28.37,1.38,1.04.09.67-.37,1.29-1.04,1.38-.06,0-.12.01-.17.01Z" style="fill: #2c70b8; stroke-width: 0px;"/>
  <path d="M206.87,172.89c-.62,0-1.2-.44-1.27-1.06-.08-.67.32-1.27.99-1.35l.13-.02c.65-.1,1.28.39,1.36,1.06s-.39,1.28-1.06,1.36c-.05,0-.1,0-.16,0Z" style="fill: #2c70b8; stroke-width: 0px;"/>
  <path d="M214.84,160.26c-.61,0-1.18-.43-1.27-1.04-.1-.67.3-1.28.97-1.37l.13-.02c.64-.09,1.29.37,1.38,1.04.1.67-.37,1.29-1.04,1.38-.06,0-.12.01-.18.01Z" style="fill: #2c70b8; stroke-width: 0px;"/>
  <path d="M74.47,186.09c-5.8,0-10.18-.76-10.67-.85-.66-.12-1.1-.76-.98-1.42.12-.67.76-1.09,1.42-.98.31.06,31.16,5.41,38.46-13.28.02-.06,3.4-9.88-.97-14.25-4.79-4.79-10.67-4.78-15.72.02-.36.34-.89.43-1.34.23s-.74-.66-.72-1.15c0-.16.71-15.19,17.74-14.87,10.4.24,15.28,6.34,20.44,12.8,1.82,2.28,3.71,4.65,5.91,6.85,2.5,2.5,5.23,3.4,7.5,2.46,1.99-.83,3.27-2.9,3.26-5.29,0-1.72-.77-6.02-7.74-8.87-.42-.17-.71-.56-.75-1.01-.04-.45.17-.89.55-1.14.32-.21,8.02-5.07,17.63,2.88,9.7,8.02,3.46,19.47,3.4,19.59-.33.58-1.07.79-1.66.47-.59-.33-.8-1.07-.47-1.66.22-.4,5.29-9.8-2.82-16.52-5.3-4.38-9.8-4.3-12.4-3.64,5.98,3.38,6.71,7.94,6.71,9.89,0,3.38-1.86,6.34-4.77,7.55-3.23,1.34-6.93.25-10.17-2.99-2.3-2.3-4.23-4.71-6.1-7.05-5-6.26-9.32-11.67-18.59-11.88-10.12-.23-13.57,5.71-14.69,9.49,6.35-4.17,12.55-1.85,16.52,2.11,5.46,5.46,1.7,16.37,1.53,16.83-5.17,13.22-20.12,15.68-30.52,15.68Z" style="fill: #2c70b8; stroke-width: 0px;"/>
  <path d="M86.08,199.82c-.55,0-1.05-.38-1.19-.93-.16-.66.25-1.32.9-1.47,21.46-5.17,26.46-23.19,26.51-23.37.17-.65.84-1.03,1.49-.87.65.17,1.04.84.87,1.49-.05.19-5.37,19.6-28.3,25.12-.1.02-.19.03-.29.03Z" style="fill: #2c70b8; stroke-width: 0px;"/>
  <path d="M176.83,166.52c-.67,0-1.22-.55-1.22-1.22s.55-1.22,1.22-1.22c.23,0,24.14,0,112.8-.41h0c.67,0,1.22.54,1.22,1.22s-.54,1.22-1.22,1.23c-88.67.41-112.58.41-112.81.41Z" style="fill: #2c70b8; stroke-width: 0px;"/>
  <path d="M267.96,174.64c-.67,0-1.22-.55-1.22-1.22s.55-1.22,1.22-1.22c.06,0,6.33,0,29.56-.41.72.04,1.23.52,1.24,1.2s-.52,1.23-1.2,1.24c-23.26.41-29.54.41-29.6.41Z" style="fill: #2c70b8; stroke-width: 0px;"/>
</svg>