<?xml version="1.0" encoding="UTF-8"?>
<svg id="Layer_1" data-name="Layer 1" xmlns="http://www.w3.org/2000/svg" viewBox="0 0 360 360">
  <path d="M235,219.03c-10.58,0-21.49-.66-32.6-1.96-15.02-1.76-17.23-2.35-20.3-3.17-1.96-.52-4.41-1.17-11.24-2.33-11.18-1.9-22.44-6.05-33.46-12.34-.58-.33-.79-1.08-.46-1.67.34-.58,1.09-.78,1.67-.46,10.77,6.14,21.76,10.2,32.66,12.05,6.94,1.18,9.44,1.85,11.45,2.38,2.97.79,5.12,1.36,19.96,3.1,15.8,1.86,31.21,2.38,45.79,1.58l3.27-.18c13.09-.69,27.93-1.47,39.42-8.11,1.13-.66,2.28-1.4,2.97-2.42.63-.93.76-2.11.32-2.85-.18-.3-.45-.66-.74-.7-.64-.06-1.91,1.06-2.64,1.75-.24.22-.46.42-.66.6-2.54,2.22-6,2.62-8.79,2.94l-17.2,1.99c-.47.05-.89-.15-1.14-.52-.26-.37-.29-.85-.08-1.25,1.37-2.66,4.27-4.05,6.83-5.27.9-.43,1.77-.85,2.53-1.3,3.5-2.1,4.43-3.42,4.66-3.89,1.55-3.1,5.56-6.16,9.52-7.26,2.73-.77,5.18-.53,7.07.66.33.21.65.46.97.71.54.43,1,.76,1.47.82.35-.02.77-.41,1-.93-.02-.53-1.36-3.01-1.85-3.46-2.79-2.55-5.69-2.88-7.6-3.09-2-.23-4-.12-6.11-.02-1.5.08-3.06.14-4.61.1-2.89-.1-5.5.06-8.02.21-6.27.39-11.7.71-18.39-2.95-4.58-2.5-8.93-5.48-13.13-8.36-3.3-2.25-6.7-4.58-10.17-6.65-10.99-6.55-23.51-10.95-36.19-12.7-4.01-.55-5.93-1.97-8.74-4.24-2.21-1.79-5.26-2.58-7.96-3.27-1.56-.4-3.03-1.02-4.45-1.62-1.6-.67-3.11-1.31-4.71-1.65-1.28-.27-3.45.05-4.5.95-.44.38-.63.81-.6,1.34.05.75.13,1.37.21,1.94.21,1.54.39,2.87-.31,5.16l-.07.25c-.6,1.97-1.51,4.94-3.99,5.87-1.42.53-2.95.44-4.31.35-.7-.05-1.4-.09-2.05-.04l-20.08,1.61c-3.31.26-5.77-.74-8.44-2.33-2.01-1.2-3.57-1.5-4.63-.92-.68.38-1.18,1.16-1.7,1.99-.35.54-.7,1.09-1.1,1.57-2.48,2.94-7.1,3.19-10.6,2.44-1.57-.34-2.82-1.22-4.03-2.07-.62-.43-1.23-.87-1.87-1.2-1.54-.8-3.12-1.54-4.69-2.28-.8-.37-1.59-.75-2.38-1.13-4.64-2.24-9.18-4.41-13.79-6.3-2.36-.97-4.82-1.28-7.44-1.61l-.69-.09c-.69-.07-2.94.07-4.1.37.47.37,1.02.65,1.58.94.92.47,1.86.96,2.66,1.81,5.33,5.64,6.56,14.48,6.84,18.02.24,3.06-1.07,6.19-2.23,8.95-.32.76-.63,1.5-.9,2.22-1.26,3.38-2.89,6.61-4.46,9.74l-.36.72c4.11.38,8.22-1.73,12.2-3.75,1.33-.67,2.63-1.34,3.89-1.89,1.52-.66,3.04-1.32,4.56-1.97,3.29-1.41,6.69-2.88,9.97-4.42,5.05-2.38,8.59-1.18,13.06.33l1.12.38c.64.21.98.91.77,1.55-.21.64-.9.99-1.55.77l-1.13-.38c-4.26-1.45-7.07-2.4-11.24-.44-3.31,1.56-6.74,3.04-10.05,4.46-1.52.65-3.03,1.3-4.54,1.96-1.23.54-2.48,1.18-3.77,1.83-4.42,2.25-9.44,4.8-14.62,3.87-.2-.03-.84-.14-1.24-.72-.26-.38-.47-1.01,0-1.92l.74-1.47c1.54-3.07,3.14-6.24,4.36-9.49.28-.75.6-1.52.94-2.31,1.1-2.63,2.24-5.35,2.05-7.82-.54-6.83-2.85-13.01-6.18-16.53-.51-.54-1.24-.92-2.01-1.32-.89-.46-1.9-.98-2.71-1.85-.94-1-.63-1.91-.46-2.25,1.08-2.12,7.06-1.81,7.12-1.8l.68.09c2.65.33,5.4.68,8.06,1.77,4.67,1.92,9.25,4.1,13.93,6.36.78.38,1.57.75,2.36,1.12,1.6.75,3.21,1.51,4.78,2.33.77.4,1.47.89,2.16,1.38,1.06.74,2.06,1.45,3.14,1.68,2.81.6,6.44.49,8.22-1.63.34-.4.62-.86.91-1.31.63-1,1.35-2.13,2.57-2.81,1.87-1.04,4.25-.72,7.07.95,2.39,1.43,4.32,2.21,6.99,1.99l20.08-1.61c.8-.07,1.61-.01,2.4.04,1.22.08,2.37.15,3.29-.19,1.36-.51,2.03-2.7,2.52-4.3l.08-.25c.55-1.77.42-2.7.23-4.11-.08-.62-.18-1.3-.23-2.12-.08-1.3.42-2.46,1.44-3.34,1.75-1.5,4.7-1.9,6.6-1.5,1.83.39,3.52,1.1,5.15,1.79,1.4.59,2.72,1.15,4.11,1.51,2.93.76,6.26,1.62,8.88,3.74,2.7,2.18,4.15,3.25,7.54,3.72,13,1.8,25.83,6.31,37.1,13.02,3.53,2.11,6.97,4.46,10.3,6.73,4.16,2.84,8.45,5.79,12.93,8.23,6.07,3.31,10.92,3.03,17.07,2.65,2.57-.16,5.22-.31,8.25-.22,1.45.05,2.95-.03,4.4-.1,2.12-.11,4.31-.21,6.5.03,2.1.24,5.61.63,8.98,3.72.74.68,3.21,4.51,2.43,6.25-.62,1.41-1.82,2.32-3.13,2.38-1.3,0-2.3-.72-3.09-1.34-.25-.2-.5-.4-.76-.56-1.63-1.03-3.68-.78-5.11-.38-3.25.91-6.76,3.54-7.99,6-.73,1.46-2.61,3.1-5.59,4.89-.82.49-1.76.95-2.73,1.41-1.31.63-2.64,1.27-3.73,2.05l13.99-1.62c2.45-.28,5.49-.64,7.46-2.36.18-.16.38-.35.59-.54,1.19-1.12,2.83-2.64,4.65-2.39,1,.14,1.84.76,2.5,1.86.95,1.58.8,3.73-.39,5.48-.96,1.42-2.38,2.36-3.77,3.16-12,6.93-27.14,7.73-40.51,8.43l-3.26.17c-4.46.25-9.01.37-13.61.37Z" style="fill: #2c70b8; stroke-width: 0px;"/>
  <path d="M238.47,218.71c-.24,0-.48-.07-.69-.21-2.18-1.5-4.44-3.04-6.3-5.09-1.52-1.68-3.36-4.39-3.48-7.77-.1-2.96,1.19-6.04,3.62-8.67.31-.33,7.57-8.07,12.83-4.09.54.41.64,1.17.24,1.71-.41.54-1.18.64-1.71.24-3.45-2.62-9.5,3.74-9.56,3.81-1.16,1.24-3.08,3.8-2.97,6.93.07,2.06,1.08,4.26,2.84,6.21,1.67,1.84,3.8,3.3,5.87,4.71.56.38.7,1.14.32,1.7-.24.35-.62.53-1.01.53Z" style="fill: #2c70b8; stroke-width: 0px;"/>
</svg>