<?xml version="1.0" encoding="UTF-8"?>
<svg id="Layer_1" data-name="Layer 1" xmlns="http://www.w3.org/2000/svg" viewBox="0 0 360 360">
  <path d="M192.02,245.59c-.61,0-1.14-.46-1.21-1.08-.21-1.9-.42-3.8-.62-5.7-.43-2.83-1-5.65-1.57-8.42-.62-3.02-1.25-6.15-1.69-9.25-.57-3.61-.52-7.28-.47-10.82.02-1.21.03-2.41.02-3.62-.32-2.08-.67-4.16-1.05-6.23-.49-1.34-1.1-2.61-1.74-3.88-2.57-5.14-5.72-9.76-9.36-13.74-1.35-1.49-2.82-2.96-4.37-4.38l-.43-.39c-1.59-1.44-3.39-3.08-3.96-5.42l-.29-1.19,2.37-.58.29,1.19c.39,1.61,1.83,2.92,3.23,4.19l.44.4c1.6,1.47,3.13,3,4.52,4.53,2.7,2.95,5.15,6.25,7.29,9.83-1.17-4.71-3.25-9.19-5.27-13.53-1.25-2.7-2.55-5.49-3.63-8.33-.39-1.13-.76-2.23-1.13-3.33-1.39-4.14-2.83-8.43-4.82-12.38l-1.15-2.39c-2.92-6.07-5.93-12.35-9.11-18.42l-.57-1.08,2.16-1.13.57,1.08c3.2,6.1,6.23,12.4,9.15,18.49l1.14,2.37c2.06,4.09,3.53,8.46,4.95,12.68.37,1.09.73,2.18,1.11,3.27,1.04,2.73,2.32,5.48,3.55,8.14,2.14,4.6,4.34,9.36,5.55,14.49.7,2.93,1.32,5.89,1.87,8.86.57,1.61.99,3.33,1.1,5.27.01.47.02.93.02,1.4,1.31,8.52,2.18,17.11,3.03,25.51.22,2.16.44,4.32.66,6.48.29,1.93.52,3.87.63,5.81.04.66-.46,1.23-1.11,1.29-.04,0-.07,0-.11,0Z" style="fill: #2c70b8; stroke-width: 0px;"/>
  <path d="M189.49,245.76l-5.53-28.03c-.03-.07-6.07-20.26-6.27-21.99-.21-1.15-1.61-7.28-3.37-14.5-1.22-5-3.5-14.08-5-18.71-1.9-4.87-6.58-33.8-7.03-37.27l-.16-1.21,2.42-.32.16,1.21c.56,4.29,5.16,32.27,6.9,36.77,1.55,4.77,3.84,13.92,5.07,18.95,1.69,6.91,3.16,13.3,3.41,14.72.19,1.44,5.58,19.69,6.22,21.75l5.56,28.15-2.39.47Z" style="fill: #2c70b8; stroke-width: 0px;"/>
  <path d="M189.74,247.22l-.43-1.14c-1.03-2.72-2.07-5.43-3.11-8.15l-1.51-3.95c-2.69-7.01-5.37-14.02-8.12-21-.39-.99-.78-1.96-1.17-2.92-1.1-2.73-2.24-5.55-3.19-8.51-1.82-5.7-4.21-12.31-8.08-18.13-2.31-3.49-5.17-6.7-7.93-9.82-1.13-1.27-2.26-2.55-3.36-3.84-3.39-3.99-7.51-9.38-9.31-15.71l-.34-1.17,2.35-.67.33,1.17c1.67,5.87,5.59,10.99,8.82,14.79,1.09,1.28,2.21,2.54,3.33,3.8,2.82,3.18,5.74,6.46,8.14,10.09,4.03,6.07,6.49,12.88,8.37,18.74.92,2.88,1.99,5.53,3.13,8.34.39.97.79,1.95,1.18,2.94,2.76,6.99,5.44,14.01,8.13,21.02l1.51,3.95c1.04,2.72,2.08,5.44,3.11,8.16l.43,1.14-2.28.86Z" style="fill: #2c70b8; stroke-width: 0px;"/>
  <path d="M190.45,245.55c-.53,0-1.02-.35-1.18-.89v-.04c-.14-.36-1.14-1.17-1.68-1.6-.75-.61-1.47-1.19-1.85-1.8-4.2-6.56-8.97-14.02-12.46-22.08-.95-2.03-1.77-4.17-2.57-6.23-1.04-2.71-2.12-5.51-3.5-8.08-.48-.89-1.03-1.76-1.58-2.63-.95-1.52-1.93-3.09-2.64-4.82-.33-.78-.68-1.58-1.03-2.38-2.21-5.04-4.5-10.24-4.66-15.98.05-2.93-.04-5.26-1.65-6.9l-.86-.87,1.74-1.71.86.87c2.46,2.5,2.4,5.88,2.36,8.6.14,5.21,2.33,10.19,4.45,15.02.36.81.71,1.61,1.05,2.42.63,1.55,1.52,2.97,2.46,4.47.57.91,1.14,1.83,1.65,2.77,1.45,2.71,2.56,5.58,3.63,8.36.78,2.03,1.59,4.13,2.51,6.11,3.43,7.92,8.14,15.29,12.3,21.79.04.06.1.14.18.22l-.54-1.91c-3.98-14.12-10-35.45-13.92-46.79-.86-2.43-3.39-5.93-6.07-9.62l-.9-1.24c-3.15-4.37-6.33-8.96-7.6-12.99-.53-1.71-1.16-3.7-1.81-5.73-1.36-4.27-2.76-8.68-3.49-11.4l-.32-1.18,2.36-.63.32,1.18c.72,2.66,2.12,7.05,3.46,11.29.65,2.04,1.28,4.03,1.81,5.75,1.16,3.67,4.21,8.09,7.25,12.29l.89,1.23c2.79,3.85,5.42,7.48,6.4,10.25,3.95,11.42,9.98,32.79,13.97,46.94l1.8,6.36s.02.07.03.1c.16.65-.22,1.31-.87,1.48-.11.03-.21.04-.32.04Z" style="fill: #2c70b8; stroke-width: 0px;"/>
  <path d="M198.43,243.51s-.09,0-.14,0c-.56-.06-1-.5-1.08-1.06-.26-2-5.8-42.23-6.35-44.17-.66-1.99-1.86-18.03-1.89-18.71-.07-2.72-.97-34.34-1.07-37.47-.13-4.84-2.19-23.09-3.57-27.5-1.24-3.86-4.33-9.12-5.25-10.64-.46-.77-1.08-1.54-1.74-2.35-1.32-1.62-2.82-3.46-3.18-5.72l-.19-1.21,2.41-.38.19,1.21c.26,1.62,1.42,3.05,2.66,4.56.69.84,1.4,1.71,1.94,2.63.95,1.57,4.16,7.03,5.48,11.16,1.45,4.68,3.54,23.11,3.68,28.16.1,3.12.99,34.75,1.07,37.44.1,2.09,1.31,16.65,1.78,18.07.31.99,1.89,11.9,3.4,22.68-.02-5.17.04-9.39.05-9.5l-.28-24.04c.04-.4,3.1-23.43,3.41-24.63.76-3.01,6.31-11.77,7.91-13.88l.74-.97,1.95,1.48-.74.97c-1.72,2.27-6.89,10.6-7.49,13-.26,1.11-2.92,20.95-3.34,24.18l.29,23.91c-.03,1.74.08,24.88.55,27.21.9,1.53-.05,4.72-.07,4.76-.18.49-.64.8-1.15.8Z" style="fill: #2c70b8; stroke-width: 0px;"/>
  <path d="M197.2,245.64l-.05-1.22c-.04-.8-3.89-82.51-4.22-84.83-.03-.11-2.98-16.85-2.71-18.51.08-.81.15-4.61.23-8.64.14-7.51.26-12.94.5-14.38.37-2.81,1.15-19.37.7-21.55l-.24-1.2,2.39-.49.25,1.2c.58,2.83-.37,20.06-.68,22.41-.25,1.42-.37,8.43-.48,14.06-.09,4.92-.15,7.99-.25,8.92-.09,1.38,2.31,16.01,2.68,17.71.33.91,4.23,84.37,4.26,85.2l.05,1.22-2.44.11Z" style="fill: #2c70b8; stroke-width: 0px;"/>
  <path d="M197.2,246.93l-.06-1.22c-.38-7.67-.66-19.71-.93-31.35-.27-11.63-.55-23.66-.93-31.29,0-.08,0-.17.01-.25.45-2.83,2.62-18.3,2.57-21.36.06-1.76.32-3.99.63-6.57.69-5.83,1.55-13.08.2-16.73-.92-2.48-1.87-4.56-3-6.54-2.26-3.9-4.03-6.65-7.92-9.1-1.12-.77-2.2-1.45-3.13-2.03-.84-.53-1.55-.98-2.04-1.33-1.13-.88-8.84-2.42-10.22-2.55l-10.15-.32.08-2.44,10.22.32c.16.01,9.94,1.5,11.62,3.1.33.22,1,.65,1.8,1.14.95.6,2.05,1.3,3.16,2.06,4.32,2.72,6.34,5.83,8.7,9.93,1.2,2.11,2.2,4.31,3.17,6.91,1.56,4.2.66,11.78-.06,17.86-.29,2.42-.56,4.71-.61,6.3.05,3.25-2.16,18.87-2.58,21.59.37,7.67.66,19.65.93,31.23.27,11.63.55,23.66.93,31.29l.06,1.22-2.44.12Z" style="fill: #2c70b8; stroke-width: 0px;"/>
  <path d="M196.49,248.64c-.53,0-1.02-.35-1.17-.88-1.29-4.41-3-11.59-4.66-18.54-1.65-6.93-3.36-14.1-4.63-18.46-.09-.22-15.27-40.45-15.46-41.08-.28-.66-4.35-7.62-7.32-12.71-3.46-5.92-5.59-9.58-5.87-10.2l-1.32-2.81c-2.99-6.38-12.09-25.8-12.68-26.81l-.61-1.05,2.08-1.25.63,1.04c.42.7,4.25,8.79,12.8,27.04l1.33,2.82c.26.59,3.18,5.58,5.76,9.99,4.49,7.68,7.24,12.4,7.52,13.15.37,1.09,15.34,40.78,15.46,41.08.54,1.85,1.15,4.15,1.8,6.7-1.58-9.8-3.19-19.93-4.77-29.9-2.99-18.89-6.09-38.43-8.85-54.54-.5-1.95-4.7-16.23-5.69-17.75-.93-1.92-5.53-8.63-6.53-9.98l-.72-.98,1.96-1.45.72.98c.98,1.32,5.71,8.2,6.69,10.24,1.3,1.99,5.76,17.68,5.95,18.43,2.79,16.22,5.88,35.76,8.87,54.66,3.34,21.1,6.8,42.92,9.92,60.82.11.64-.29,1.25-.93,1.4-.09.02-.19.03-.28.03Z" style="fill: #2c70b8; stroke-width: 0px;"/>
  <path d="M122.8,253.04c-4.83,0-10.15-.37-16.11-1.22-.67-.1-1.13-.71-1.04-1.38.1-.67.73-1.12,1.38-1.04,25.02,3.58,38.01-1.37,51.75-6.59,12.9-4.91,26.24-9.99,50.02-7.12,8.77,1.05,19.61,4.41,29.18,7.36,9.5,2.94,18.49,5.72,22.81,5.39.67-.06,1.26.46,1.31,1.13.05.67-.46,1.26-1.13,1.31-4.8.32-13.56-2.36-23.71-5.5-9.47-2.93-20.2-6.24-28.75-7.27-23.18-2.79-35.65,1.96-48.86,6.98-10.31,3.92-20.89,7.95-36.86,7.95Z" style="fill: #2c70b8; stroke-width: 0px;"/>
  <path d="M231.86,115.47c-3.22,0-5.84-2.62-5.84-5.85s2.62-5.84,5.84-5.84,5.85,2.62,5.85,5.84-2.62,5.85-5.85,5.85ZM231.86,106.23c-1.88,0-3.4,1.53-3.4,3.4s1.53,3.4,3.4,3.4,3.41-1.53,3.41-3.4-1.53-3.4-3.41-3.4Z" style="fill: #2c70b8; stroke-width: 0px;"/>
  <path d="M147.46,219.67c-3.22,0-5.84-2.62-5.84-5.84s2.62-5.85,5.84-5.85,5.84,2.62,5.84,5.85-2.62,5.84-5.84,5.84ZM147.46,210.43c-1.88,0-3.4,1.53-3.4,3.4s1.53,3.4,3.4,3.4,3.4-1.53,3.4-3.4-1.53-3.4-3.4-3.4Z" style="fill: #2c70b8; stroke-width: 0px;"/>
</svg>