<?xml version="1.0" encoding="UTF-8"?>
<svg id="Layer_1" data-name="Layer 1" xmlns="http://www.w3.org/2000/svg" viewBox="0 0 360 360">
  <path d="M182.23,252.65c-40.36,0-73.2-32.84-73.2-73.2s32.84-73.2,73.2-73.2,73.2,32.84,73.2,73.2-32.84,73.2-73.2,73.2ZM182.23,108.69c-39.02,0-70.76,31.74-70.76,70.76s31.74,70.76,70.76,70.76,70.76-31.74,70.76-70.76-31.74-70.76-70.76-70.76Z" style="fill: #2c70b8; stroke-width: 0px;"/>
  <g>
    <path d="M181.76,200.93c-.67,0-1.22-.55-1.22-1.22v-53.13c0-.67.55-1.22,1.22-1.22s1.22.55,1.22,1.22v53.13c0,.67-.55,1.22-1.22,1.22Z" style="fill: #2c70b8; stroke-width: 0px;"/>
    <path d="M181.48,224.48c-.67,0-1.22-.55-1.22-1.22v-1.48c0-.67.55-1.22,1.22-1.22s1.22.55,1.22,1.22v1.48c0,.67-.55,1.22-1.22,1.22Z" style="fill: #2c70b8; stroke-width: 0px;"/>
  </g>
</svg>