<?xml version="1.0" encoding="UTF-8"?>
<svg id="Layer_1" data-name="Layer 1" xmlns="http://www.w3.org/2000/svg" viewBox="0 0 360 360">
  <path d="M71.93,216.11c-1.01,0-1.98-.01-2.66-.05-2.72-.15-5.2-.45-7.58-.91-2.17-.42-4.44-1.07-7.14-2.04-.98-.35-1.95-.74-2.9-1.16-.76-.34-7.46-3.39-7.82-6.13-.09-.7.18-1.34.77-1.81.79-.63,1.83-.84,2.65-1,.55-.11,1.01-.18,1.48-.25.4-.06.8-.12,1.2-.2,2.88-.54,5.76-1.07,8.64-1.58,0,0,.22-.04.22-.04,4.66-.84,9.87-1.09,15.92-.78.34.02.65.03.85-.04.37-.14.66-.73.94-1.3.17-.34.47-.79,1.21-.83h.05c1.38,0,6.59,2.25,7.08,3.07.15.25.19.55.12.82.06.02.1.03.11.03l6.85,1.73c1.54.39,3.11.78,4.66,1,1.06.15,2.22.23,3.64.26.36.01.65,0,.89-.05.39-.1.8-.33,1.23-.59.34-.2.69-.4,1.04-.55.96-.43,1.95-.8,2.93-1.13,1.17-.39,2.38-.72,3.59-.98.63-.13,1.25-.25,1.89-.34.68-.1,1.1.13,1.33.34.3.28.45.67.42,1.12-.04.52-.33.89-.47,1.07-1,1.31-2.19,2.47-3.53,3.45-.24.18-.44.31-.58.44.71.78,1.39,1.55,2.05,2.35.14.17.31.34.49.52.65.67,1.45,1.5,1.59,2.57.09.69-.24,1.06-.44,1.23-.55.45-1.18.24-1.52.12l.1-1.05-.44.96c-.31-.08-.61-.16-.91-.25l-1.11-.34c-1.91-.58-3.88-1.18-5.78-2.08l-.21-.1c-.39-.18-.77-.37-1.18-.5-1.08-.34-2.31-.21-3.48-.02-.42.06-.79.2-1.23.37l-.32.12c-.25.09-10.17,3.15-11.18,3.44-.55.16-1.15-.15-1.31-.7s.12-1.11.67-1.27c1.04-.3,10.75-3.3,11.14-3.43l.29-.11c.5-.18,1.01-.37,1.63-.47,1.41-.22,2.93-.37,4.42.09.5.16.98.38,1.45.6l.21.1c1.77.83,3.58,1.39,5.5,1.97l.63.19c-.21-.22-.42-.43-.59-.64-.75-.9-1.53-1.77-2.31-2.63-.1-.11-.39-.42-.43-.9-.03-.41.12-.7.22-.89.36-.6.86-.96,1.3-1.28.89-.65,1.66-1.33,2.33-2.06-.06.01-.12.03-.18.04-1.14.24-2.27.55-3.37.92-.92.3-1.84.66-2.75,1.06-.28.12-.55.29-.83.45-.52.3-1.1.64-1.78.81-.52.13-1.04.12-1.43.11-1.5-.03-2.74-.12-3.88-.28-1.66-.23-3.28-.64-4.85-1.04l-6.89-1.74c-1.7-.45-1.88-.5-2.09-1.02-.12-.3-.09-.64.07-.91l.02-.03c-1.18-.61-3.38-1.58-4.38-1.83-.43.81-.94,1.59-1.88,1.94-.6.23-1.2.19-1.68.17-5.89-.31-10.95-.07-15.46.75l-.24.04c-2.86.51-5.73,1.03-8.61,1.57-.42.08-.85.15-1.28.21-.43.07-.87.13-1.3.22-.69.14-1.45.28-1.84.6.1.8,3.77,3.17,6.59,4.42.91.4,1.83.77,2.76,1.1,2.6.94,4.76,1.56,6.83,1.96,2.29.44,4.68.73,7.3.87,1.66.09,5.23.03,6.32-.01.55-.01,1.05.42,1.08,1,.02.57-.42,1.06-1,1.08-.68.03-2.31.06-3.86.06ZM83.44,202.52h.02-.02Z" style="fill: #2c70b8; stroke-width: 0px;"/>
  <g>
    <g>
      <path d="M201.31,227.31c-.97,0-1.74-.86-2.01-1.16-1.12-1.25-1.91-2.8-2.55-4.15-.55-1.16-1.03-2.35-1.5-3.54-.4-1-.79-2-1.24-2.99-.78-1.7-1.75-1.94-3.69-2.41l-9.17-2.29c-6.38-1.61-11.73-3.02-17.1-4.67-5.11-1.58-9.6-3.2-13.74-4.95-2.36-1-4.65-2.06-6.79-3.16-.23-.12-.51-.24-.82-.38-1.5-.66-3.55-1.57-3.87-3.39-.08-.47.17-.94.61-1.13.44-.19.96-.05,1.24.34.84,1.13,6.63,1.59,9.56,1.15-.93-1.09-2.44-1.98-3.71-2.73l-.29-.17c-.84-.5-1.71-.93-2.59-1.37l-1.15-.58c-.36-.18-1.1-.56-1.39-1.37-.09-.25-.11-.54-.04-.83,0,0,0,0,0-.01.34-1.36,2.59-2.61,9.26-5.13.65-.25,1.14-.43,1.36-.53,10.19-4.56,18.19-7.46,25.93-9.39,4.64-1.16,9.27-1.95,13.77-2.35,1.49-.13,1.73-.65,2.44-2.17.16-.34.33-.71.53-1.1,1.12-2.18,2.28-4.43,3.66-6.58,2.56-3.96,5.49-6.81,8.7-8.45.33-.17.73-.15,1.04.06.31.2.49.56.47.93-.25,3.91.9,6.96,3.52,9.33,2.93,2.67,6.94,3.92,9.7,4.64,1.87.48,3.74,1,5.61,1.51,2.81.77,5.72,1.57,8.57,2.25,3.27.77,5.3-.42,8.13-3.06,3.65-3.4,7.99-6.89,12.54-7.01.39-.05.79.22.96.59.18.37.12.81-.15,1.12-1.36,1.57-2.07,3.84-2.76,6.03l-.61,1.86c-.97,2.81-1.06,3.85.38,4.47,1.83.79,3.67,1.6,5.5,2.4,6.4,2.81,13.02,5.72,19.69,8.07l.44.15c4.18,1.48,9.39,3.31,13.48,1.99,2.99-.97,4.98-2.27,5.92-3.86,5.04-8.63,9.86-16.09,17.76-20.05.43-.22.97-.11,1.27.28.31.38.3.93,0,1.31-6.65,8.11-10.34,18.35-10.4,28.84-.03,5.58.95,10.7,2.92,15.24.28.65.59,1.3.9,1.95.83,1.75,1.68,3.55,2.11,5.52.1.46-.13.95-.55,1.16-1.15.57-3.99-2.4-4.02-2.43-.88-1.01-4.18-5.24-4.31-5.44-.01-.01-.02-.04-3.88-6.51-.49-1.07-1.79-3.81-2.45-4.75-.95-1.37-4.47-3.55-10.95-2.06-1.32.3-2.43.55-3.4.76-4.65,1.03-6.05,1.34-11.89,3.66-2.69,1.07-5.37,2.11-8.07,3.16-3.58,1.39-7.17,2.78-10.73,4.22-.33.13-.74.3-.87.5-.17.25-.11.81-.07,1.12.25,2.27.72,4.54,1.41,6.74.04.14.13.45.24.85.25.9.99,3.57,1.33,4.23.25.24.38.59.31.95-.1.56-.65.94-1.21.83,0,0,0,0-.01,0-2.99-.56-5.3-3.35-6.99-5.39-2.95-3.57-4.86-5.86-9.15-5.41-2.85.3-5.75.75-8.56,1.19-6.24.98-12.7,2-19.14,1.4-.32-.03-.65-.07-.98-.11-2.72-.31-3.95-.28-4.33,1.33l-.58,2.49c-.4,1.71-.79,3.42-1.22,5.13-.38,1.56-.73,2.96-1.94,3.26-.14.03-.27.05-.4.05ZM145.72,196.76c1.73.85,3.54,1.68,5.41,2.47,4.07,1.72,8.49,3.32,13.54,4.87,5.33,1.64,10.65,3.04,17,4.64l9.15,2.29c2.09.51,3.89.95,5.08,3.56.46,1.01.87,2.05,1.28,3.08.46,1.15.91,2.3,1.44,3.41.61,1.27,1.28,2.61,2.23,3.66.14.15.25.26.33.33.15-.36.3-.98.41-1.39l.05-.2c.42-1.69.82-3.39,1.21-5.1l.58-2.5c.84-3.58,4.3-3.18,6.59-2.91.31.04.63.07.93.1,6.18.57,12.51-.43,18.63-1.38,2.83-.44,5.76-.9,8.66-1.21,5.42-.58,7.95,2.5,10.89,6.06,1.06,1.28,2.34,2.82,3.75,3.82-.2-.66-.43-1.47-.71-2.46-.1-.37-.18-.65-.22-.78-.73-2.33-1.24-4.73-1.5-7.14-.06-.57-.18-1.63.42-2.51.49-.72,1.25-1.03,1.81-1.26,3.58-1.44,7.17-2.84,10.76-4.24,2.69-1.04,5.37-2.09,8.05-3.15,5.99-2.38,7.56-2.73,12.21-3.76.97-.21,2.07-.46,3.39-.76,7.55-1.73,11.8,1.01,13.12,2.9.9,1.3,2.5,4.81,2.58,4.98h0s3.69,6.19,3.8,6.37c.07.08,2.94,3.79,4,5.05-.27-.62-.56-1.24-.86-1.87-.32-.67-.63-1.34-.93-2.01-2.09-4.81-3.13-10.21-3.09-16.08.05-9.08,2.71-17.97,7.56-25.58-4.89,4-8.53,9.78-12.31,16.25-1.2,2.05-3.58,3.66-7.07,4.79-4.76,1.54-10.33-.43-14.81-2.01l-.43-.15c-6.74-2.38-13.4-5.3-19.83-8.12-1.83-.8-3.66-1.61-5.49-2.4-3.45-1.49-2.28-4.84-1.52-7.05l.59-1.8c.48-1.52,1-3.17,1.77-4.67-3.19.98-6.39,3.67-8.96,6.07-2.68,2.49-5.46,4.65-10.02,3.56-2.89-.69-5.82-1.49-8.64-2.26-1.86-.51-3.72-1.02-5.58-1.5-2.98-.77-7.31-2.14-10.58-5.11-2.63-2.38-4.04-5.44-4.21-9.11-2.3,1.54-4.44,3.83-6.37,6.83-1.33,2.07-2.46,4.27-3.56,6.4-.19.37-.35.71-.49,1.03-.75,1.61-1.45,3.12-4.13,3.36-4.4.39-8.92,1.17-13.46,2.3-7.62,1.9-15.51,4.76-25.58,9.27-.24.11-.78.31-1.48.58-4.26,1.61-6.86,2.78-7.74,3.49.03.02.07.04.11.06l1.13.57c.92.46,1.84.92,2.72,1.44l.29.17c1.92,1.13,4.31,2.54,5.24,4.76.22.52-.02,1.12-.54,1.35-1.09.48-3.83.75-6.57.6Z" style="fill: #2c70b8; stroke-width: 0px;"/>
      <path d="M205.99,196.33c-.88,0-1.76-.16-2.61-.59-.51-.26-.72-.88-.46-1.39.26-.51.88-.72,1.39-.46,1.5.76,3.4.19,5.25-.36l.46-.14c3.14-.93,6.54-1.51,11.02-1.88,10.62-.89,19.78-.79,28.4.33-7.48-2.45-15.18-4.05-22.99-4.78-5.32-.49-10.7-.58-15.99-.25l-.71.04c-3.44.19-8.63.49-9.85,4.22-.18.55-.76.84-1.31.66-.55-.18-.84-.76-.66-1.31,1.66-5.07,7.95-5.43,11.71-5.64l.7-.04c5.4-.33,10.89-.25,16.31.25,10.47.97,20.75,3.49,30.56,7.48.35.14.6.47.64.85.04.38-.13.75-.45.97-1.13.76-2.44.52-3.31.36-9.9-1.79-20.34-2.13-32.86-1.08-4.34.36-7.61.92-10.61,1.81l-.46.14c-1.32.4-2.74.82-4.17.82Z" style="fill: #2c70b8; stroke-width: 0px;"/>
    </g>
    <path d="M172.99,201.76c-.66,0-1.32-.02-1.95-.04l-1.04-.03c-.57-.01-1.03-.49-1.01-1.06s.54-1.01,1.06-1.01l1.06.03c4.21.14,7.09,0,8.34-3.12.43-1.08.62-2.37.57-3.94-.13-4.35-1.96-8.61-5.03-11.7-.41-.41-.4-1.06,0-1.47.41-.4,1.06-.4,1.47,0,3.43,3.46,5.48,8.23,5.63,13.1.06,1.87-.18,3.43-.72,4.78-1.57,3.92-5.08,4.47-8.39,4.47Z" style="fill: #2c70b8; stroke-width: 0px;"/>
  </g>
  <path d="M57.04,191.47c-.75,0-1.49-.01-2-.04-2.05-.12-3.92-.34-5.72-.69-1.64-.31-3.35-.8-5.39-1.54-.74-.27-1.48-.56-2.2-.88-.95-.42-5.74-2.65-6.02-4.8-.08-.62.16-1.18.67-1.6.64-.51,1.49-.68,2.1-.8.42-.08.77-.14,1.12-.19.3-.04.6-.09.9-.15,6.18-1.17,11.78-2.12,17.73-1.75,2.52.15,5.02.49,7.45,1,1.45.31,2.89.67,4.32,1.04,1.44.37,2.88.74,4.34,1.04,1.03.22,2.2.4,3.44.42.45,0,1.07-.01,1.5-.16.15-.05.33-.16.52-.29.24-.15.49-.31.75-.42.73-.32,1.47-.61,2.22-.86.89-.3,1.8-.55,2.72-.74.47-.1.95-.19,1.43-.26.62-.09,1,.13,1.21.32.28.26.42.64.4,1.05-.03.46-.28.78-.4.94-.77,1.01-1.68,1.89-2.71,2.64-.08.06-.15.11-.21.15.46.51.92,1.03,1.36,1.56.1.12.22.25.35.38.51.53,1.15,1.19,1.26,2.08.08.64-.23,1-.42,1.15-.52.43-1.13.22-1.39.14-.41-.11-.67-.18-.93-.26l-.85-.26c-1.43-.44-2.92-.89-4.36-1.57-.43-.2-.71-.34-1.01-.43-.76-.24-1.65-.15-2.49-.01-.32.05-.59.16-.89.27l-.23.09c-.3.11-7.8,2.41-8.45,2.6-.56.16-1.12-.16-1.28-.71-.16-.55.16-1.12.71-1.28.82-.23,8.08-2.48,8.33-2.56l.2-.07c.42-.15.82-.29,1.27-.37,1.09-.18,2.27-.29,3.44.08.39.12.76.3,1.13.47,1.31.62,2.54,1.02,3.81,1.41-.5-.6-1.03-1.18-1.55-1.76-.12-.13-.36-.41-.39-.85-.03-.4.15-.71.21-.81.29-.49.71-.79,1.04-1.03.39-.28.75-.58,1.08-.88-.59.15-1.18.32-1.76.51-.7.23-1.38.49-2.04.79-.16.07-.31.17-.46.27-.28.18-.6.38-.99.51-.67.22-1.39.25-2.12.26-1.39.04-2.74-.22-3.89-.46-1.49-.31-2.96-.69-4.43-1.07-1.41-.36-2.81-.72-4.24-1.02-2.32-.49-4.73-.81-7.14-.96-5.7-.34-11.17.58-17.22,1.72-.32.06-.65.11-.97.16-.32.05-.65.1-.97.16-.38.07-.79.16-1.07.28.56.75,2.88,2.19,4.69,2.99.67.3,1.36.57,2.06.82,1.94.7,3.55,1.16,5.08,1.46,1.7.33,3.48.54,5.44.65,1.23.07,3.9.03,4.71-.01.56-.01,1.06.43,1.08,1,.02.57-.42,1.06-1,1.08-.53.02-1.74.05-2.91.05Z" style="fill: #2c70b8; stroke-width: 0px;"/>
</svg>