<?xml version="1.0" encoding="UTF-8"?>
<svg id="Layer_1" data-name="Layer 1" xmlns="http://www.w3.org/2000/svg" viewBox="0 0 360 360">
  <path d="M158.73,257.1c-6.49,0-13.54-.44-21.44-1.56-49.22-7.03-62.07.49-62.2.57-.57.36-1.32.18-1.68-.38-.36-.57-.2-1.31.37-1.68.52-.33,13.37-8.14,63.85-.93,21.34,3.05,36.48.96,51.12-1.07,13.94-1.93,28.35-3.92,48.04-1.55,25.12,3.03,30.29,2.61,48.08-1.1.65-.14,1.31.28,1.44.95.14.66-.29,1.31-.95,1.44-18.12,3.78-23.38,4.21-48.87,1.14-19.38-2.33-33.63-.37-47.42,1.54-9.41,1.3-19.03,2.63-30.36,2.63Z" style="fill: #2c70b8; stroke-width: 0px;"/>
  <path d="M158.61,265.6c-14.21,0-23.55-2.22-23.68-2.25-.66-.16-1.06-.82-.9-1.47.16-.65.82-1.05,1.47-.9.18.04,18.46,4.38,42.79.72l5.73-.87c18.61-2.82,27.96-4.24,43.04-2.87.67.06,1.17.65,1.11,1.33s-.72,1.18-1.33,1.11c-14.78-1.34-24.03.06-42.45,2.85l-5.74.87c-7.32,1.1-14.11,1.49-20.05,1.49Z" style="fill: #2c70b8; stroke-width: 0px;"/>
  <path d="M145.23,232.75c-7.98,0-14.23-6-16.52-8.53-5.35,5.68-11.04,8.37-16.79,8.1-9.79-.5-16.29-9.45-16.56-9.83-.39-.55-.26-1.31.28-1.7.54-.39,1.31-.27,1.7.28.06.08,6.11,8.38,14.72,8.81,5.41.26,10.66-2.53,15.77-8.32l.98-1.11.9,1.17c.07.09,6.83,8.69,15.52,8.69h.01c5.07,0,9.89-2.93,14.33-8.69l.99-1.28.96,1.3c.06.08,6.02,8.02,14.54,8.39,5.39.22,10.79-2.61,15.96-8.47l1.05-1.19.88,1.32c.05.07,5.05,7.41,12.88,8.05,5.39.45,10.9-2.32,16.43-8.21l1.02-1.09.87,1.22c.06.08,5.71,7.93,13.98,8.36,5.43.3,10.71-2.57,15.91-8.47.45-.51,1.22-.55,1.72-.11.51.45.55,1.22.11,1.72-5.73,6.5-11.77,9.62-17.89,9.29-7.48-.41-12.87-5.82-14.92-8.25-5.76,5.76-11.6,8.44-17.44,7.95-6.98-.58-11.83-5.54-13.76-7.9-5.39,5.7-11.14,8.46-16.91,8.2-7.61-.34-13.2-5.7-15.38-8.17-4.68,5.61-9.83,8.45-15.32,8.45Z" style="fill: #2c70b8; stroke-width: 0px;"/>
  <path d="M176.15,254.69c-.67,0-1.22-.55-1.22-1.22v-65.63c0-.67.55-1.22,1.22-1.22s1.22.55,1.22,1.22v65.63c0,.67-.55,1.22-1.22,1.22Z" style="fill: #2c70b8; stroke-width: 0px;"/>
  <path d="M217.64,189.06h-84.48v-84.48h84.48v84.48ZM135.6,186.62h79.6v-79.6h-79.6v79.6Z" style="fill: #2c70b8; stroke-width: 0px;"/>
  <path d="M175.78,179.37c-17.33,0-31.43-14.1-31.43-31.43s14.1-31.43,31.43-31.43,31.43,14.1,31.43,31.43-14.1,31.43-31.43,31.43ZM175.78,118.96c-15.98,0-28.98,13-28.98,28.98s13,28.98,28.98,28.98,28.98-13,28.98-28.98-13-28.98-28.98-28.98Z" style="fill: #2c70b8; stroke-width: 0px;"/>
  <path d="M155.27,169.67c-.31,0-.62-.12-.86-.36-.48-.48-.48-1.25,0-1.73l41.39-41.39c.48-.48,1.25-.48,1.73,0s.48,1.25,0,1.73l-41.39,41.39c-.24.24-.55.36-.86.36Z" style="fill: #2c70b8; stroke-width: 0px;"/>
  <path d="M197.28,157.24h-44c-.67,0-1.22-.55-1.22-1.22s.55-1.22,1.22-1.22h44c.67,0,1.22.55,1.22,1.22s-.55,1.22-1.22,1.22Z" style="fill: #2c70b8; stroke-width: 0px;"/>
  <path d="M161.98,147.54c-2.59,0-4.7-2.11-4.7-4.7s2.11-4.7,4.7-4.7,4.7,2.11,4.7,4.7-2.11,4.7-4.7,4.7ZM161.98,140.58c-1.24,0-2.26,1.01-2.26,2.26s1.01,2.26,2.26,2.26,2.26-1.01,2.26-2.26-1.01-2.26-2.26-2.26Z" style="fill: #2c70b8; stroke-width: 0px;"/>
  <path d="M196.47,152.52h-34.95l11.27-11.27,23.68,11.27ZM167.41,150.07h18.24l-12.36-5.88-5.88,5.88Z" style="fill: #2c70b8; stroke-width: 0px;"/>
  <path d="M176.65,140.83c-.17,0-.35-.04-.52-.12-.61-.29-.88-1.01-.59-1.62l4.22-9,17.23,6.89c.63.25.93.96.68,1.59s-.96.93-1.59.68l-15.09-6.04-3.24,6.91c-.21.44-.65.7-1.11.7Z" style="fill: #2c70b8; stroke-width: 0px;"/>
</svg>