<?xml version="1.0" encoding="UTF-8"?>
<svg id="Layer_1" data-name="Layer 1" xmlns="http://www.w3.org/2000/svg" viewBox="0 0 360 360">
  <path d="M175.3,263.08c-12.77,0-23.16-10.39-23.16-23.16,0-8.68,4.79-16.56,12.51-20.57.6-.31,1.34-.08,1.65.52.31.6.08,1.34-.52,1.65-6.9,3.58-11.19,10.63-11.19,18.4,0,11.42,9.29,20.72,20.72,20.72s20.72-9.29,20.72-20.72c0-7.73-4.26-14.76-11.11-18.36-.6-.31-.83-1.05-.51-1.65.31-.6,1.05-.82,1.65-.51,7.66,4.02,12.41,11.88,12.41,20.52,0,12.77-10.39,23.16-23.16,23.16Z" style="fill: #2c70b8; stroke-width: 0px;"/>
  <path d="M175.25,254.47c-8.04,0-14.59-6.54-14.59-14.59s6.55-14.59,14.59-14.59,14.59,6.54,14.59,14.59-6.54,14.59-14.59,14.59ZM175.25,227.73c-6.7,0-12.15,5.45-12.15,12.15s5.45,12.15,12.15,12.15,12.15-5.45,12.15-12.15-5.45-12.15-12.15-12.15Z" style="fill: #2c70b8; stroke-width: 0px;"/>
  <path d="M185.31,221.47h-.03c-.67-.01-1.2-.56-1.19-1.23,0-.6,0-119.11,0-120.31,0-4.88-3.97-8.85-8.85-8.85s-8.85,3.97-8.85,8.85v120.29c0,.67-.55,1.22-1.22,1.22s-1.22-.55-1.22-1.22v-120.29c0-6.23,5.07-11.3,11.3-11.3s11.3,5.07,11.3,11.3q0,120.28,0,120.36c-.03.66-.57,1.17-1.22,1.17Z" style="fill: #2c70b8; stroke-width: 0px;"/>
  <path d="M175.25,227.73c-.67,0-1.22-.55-1.22-1.22v-111.46c0-.67.55-1.22,1.22-1.22s1.22.55,1.22,1.22v111.46c0,.67-.55,1.22-1.22,1.22Z" style="fill: #2c70b8; stroke-width: 0px;"/>
  <path d="M203.91,144.74h-9.49c-.67,0-1.22-.55-1.22-1.22s.55-1.22,1.22-1.22h9.49c.67,0,1.22.55,1.22,1.22s-.55,1.22-1.22,1.22Z" style="fill: #2c70b8; stroke-width: 0px;"/>
  <path d="M203.91,165.47h-9.49c-.67,0-1.22-.55-1.22-1.22s.55-1.22,1.22-1.22h9.49c.67,0,1.22.55,1.22,1.22s-.55,1.22-1.22,1.22Z" style="fill: #2c70b8; stroke-width: 0px;"/>
  <path d="M203.91,184.07h-9.49c-.67,0-1.22-.55-1.22-1.22s.55-1.22,1.22-1.22h9.49c.67,0,1.22.55,1.22,1.22s-.55,1.22-1.22,1.22Z" style="fill: #2c70b8; stroke-width: 0px;"/>
  <path d="M203.91,204.8h-9.49c-.67,0-1.22-.55-1.22-1.22s.55-1.22,1.22-1.22h9.49c.67,0,1.22.55,1.22,1.22s-.55,1.22-1.22,1.22Z" style="fill: #2c70b8; stroke-width: 0px;"/>
</svg>