<?xml version="1.0" encoding="UTF-8"?>
<svg id="Layer_1" data-name="Layer 1" xmlns="http://www.w3.org/2000/svg" viewBox="0 0 360 360">
  <path d="M140.99,147.3c-2.2,0-4.35-.45-6.09-1.85-1.46-1.19-2.28-3.34-1.11-4.89,1.08-1.43,3.07-1.28,3.82-1.23l.53.04c1.4.11,2.73.21,3.99-.02,2.22-.42,4.19-1.93,6.02-3.44,3.05-2.52,5.41-4.77,6.99-7.55,1.98-3.49,2.56-7.73,1.57-11.62-1.84-7.22-8.79-12.29-15.79-11.53-3.41.36-6.68,1.62-9.47,3.62-.5.36-.98.74-1.46,1.12-.79.62-1.6,1.26-2.5,1.82-2.4,1.5-5.19,2.27-7.66,2.95-3.07.84-6.13,1.69-9.2,2.53,4.34-.01,10.78.01,20.7.05.67,0,1.22.55,1.22,1.23,0,.67-.55,1.22-1.22,1.22h0c-10.74-.04-26.96-.08-28.44-.01-1.23.32-8.03,1.98-11.06,2.72-.66.15-1.3-.24-1.47-.88-.17-.65.21-1.31.86-1.48,9.32-2.58,18.65-5.16,27.98-7.72,2.42-.66,4.92-1.35,7.02-2.66.8-.5,1.54-1.09,2.28-1.67.51-.4,1.02-.81,1.55-1.19,3.13-2.25,6.81-3.65,10.63-4.06,8.22-.91,16.28,4.99,18.42,13.36,1.14,4.5.48,9.39-1.81,13.43-1.87,3.29-4.74,5.9-7.56,8.23-2.08,1.71-4.34,3.42-7.12,3.95-1.58.3-3.13.18-4.63.06l-.52-.04c-1.16-.09-1.56.09-1.68.26-.22.29.13,1.06.69,1.52,2.62,2.11,7.21,1.17,10.55.49l.39-.08c1.07-.22,1.34-.45,1.4-.73.16-.65.82-1.05,1.48-.89.66.16,1.05.83.89,1.48-.49,1.96-2.52,2.38-3.29,2.53l-.39.08c-1.94.4-4.24.87-6.49.87Z" style="fill: #2c70b8; stroke-width: 0px;"/>
  <path d="M257.02,207.58c-.9,0-1.6-.51-1.95-.77-1.43-1.05-2.53-2.34-3.59-3.6-1.01-1.19-1.96-2.3-3.13-3.17-2.29-1.69-5.41-2.05-8.43-2.39l-1.22-.14c-4.42-.53-8.77-1.54-12.97-2.98.02.64,0,1.42-.05,2.38-.03.64-.55,1.14-1.19,1.15-3.16.05-6.45-.52-9.62-1.08l-1.78-.31c-.93-.16-2.2-.37-3.29-1.07-.27-.17-.52-.37-.76-.57-.22-.17-.43-.36-.68-.49-.81-.44-1.95-.27-3.15-.09l-.54.08c-2.86.4-5.85.18-8.86-.68-.65-.19-1.03-.86-.84-1.51s.85-1.03,1.51-.84c2.68.76,5.32.97,7.86.61l.51-.08c1.48-.22,3.16-.47,4.69.36.37.2.7.46,1.03.73.18.15.36.29.55.41.62.39,1.44.56,2.38.72l1.8.32c2.65.47,5.38.96,7.98,1.03,0-.87-.01-1.88-.08-2.3-.19-.31-.24-.71-.1-1.08.24-.63.95-.93,1.57-.71,4.61,1.76,9.43,2.95,14.34,3.54l1.2.14c3.34.38,6.79.77,9.6,2.85,1.4,1.03,2.49,2.31,3.54,3.55,1.02,1.2,1.98,2.33,3.18,3.21.33.25.46.29.5.3.19-.18.65-1.16,1.07-4.63.05-.39.09-.72.12-.92.07-.43.37-.78.78-.93.4-.15.86-.08,1.2.2.2.16.47.13.66.08.48-.13.93-.53,1.1-.97,1.07-2.88-1.64-7.47-7.44-12.61-2.38-2.11-5.04-4-7.62-5.82-1.89-1.34-3.84-2.73-5.69-4.2-3.19-2.54-6.14-5.43-8.99-8.22l-2.33-2.27c-7.25-6.99-15.37-13.71-24.13-19.97l-2.63-1.9c-7.16-5.17-14.56-10.51-23.1-12.92-3.87-1.09-7.22-1.36-10.25-.8-3.53.65-6.54,2.5-8.24,5.08-.37.56-1.13.72-1.69.35-.56-.37-.72-1.13-.35-1.69,2.06-3.13,5.65-5.37,9.84-6.14,3.41-.62,7.12-.35,11.36.85,8.96,2.53,16.54,8,23.87,13.29l2.63,1.89c8.86,6.33,17.07,13.13,24.4,20.21l2.35,2.28c2.8,2.75,5.7,5.59,8.8,8.06,1.8,1.43,3.72,2.8,5.58,4.12,2.63,1.86,5.34,3.79,7.82,5.99,4.74,4.19,9.99,10.24,8.11,15.28-.43,1.16-1.51,2.13-2.75,2.47-.35.1-.71.14-1.05.12-.33,2.61-.92,6.05-3.31,6.16-.04,0-.07,0-.11,0Z" style="fill: #2c70b8; stroke-width: 0px;"/>
  <path d="M189.32,195.4c-.05,0-.11,0-.16,0-.7-.09-3.05-.46-4.05-1.31-.55-.47-.97-1.05-1.41-1.67-.31-.44-.66-.91-1.09-1.39-.38-.42-.51-.53-.56-.56.03.03-.06.04-.18.04h-.52c-.67.01-1.22-.53-1.22-1.21s.55-1.22,1.22-1.22h.42c1.11-.07,1.62.18,2.64,1.32.49.55.89,1.09,1.25,1.6.37.52.7.97,1.02,1.25.29.24,1.61.59,2.77.74.67.09,1.14.7,1.05,1.37-.08.62-.61,1.06-1.21,1.06Z" style="fill: #2c70b8; stroke-width: 0px;"/>
  <path d="M166.91,181.99c-.31,0-.62-.12-.85-.35-.88-.86-1.99-1.5-3.17-2.17-1.25-.72-2.55-1.45-3.65-2.53-.55-.53-1.02-1.13-1.5-1.74-.57-.72-1.11-1.4-1.75-1.91-1.16-.9-2.65-1.17-4.23-1.45l-.5-.09c-2.48-.46-4.43-.93-6.15-1.46-3.27-1.02-7.48-2.51-11.12-5.04-2.54-1.78-4.67-3.95-6.42-5.84-1.69-1.83-3.62-4.04-5.09-6.59-4.04-6.99-5.7-20.01,1.71-26.26,2.07-1.74,4.59-2.7,7.95-3,.64-.06,1.53-.14,2.4.12.81.25,1.44.73,1.99,1.15l.42.32c1.36.98,3.38,1.23,4.91.61,1.99-.8,4.31-2.34,4.83-3.16-.55-.06-1.68-.09-4.04.03l-.49.02c-.88,0-2.36-.32-3.57-.63-.47-.12-.91-.24-1.26-.31-.66-.13-1.09-.78-.96-1.44.13-.66.79-1.09,1.44-.96.38.08.87.2,1.39.33.99.26,2.22.57,2.89.56l.44-.02c4.62-.23,5.59.01,6.15.68.5.59.68,1.33.49,2.08-.68,2.75-6.34,5.05-6.4,5.07-2.29.92-5.21.56-7.24-.9l-.48-.36c-.42-.33-.82-.63-1.21-.75-.39-.12-.88-.08-1.47-.03-2.87.26-4.9,1.01-6.59,2.44-6.3,5.32-4.69,17.07-1.17,23.17,1.35,2.34,3.17,4.42,4.77,6.15,1.66,1.8,3.67,3.85,6.02,5.49,3.36,2.34,7.35,3.75,10.44,4.71,1.63.51,3.5.95,5.88,1.4l.48.09c1.8.32,3.66.66,5.29,1.92.88.68,1.54,1.52,2.17,2.33.41.52.81,1.04,1.29,1.5.88.86,1.98,1.49,3.15,2.16,1.26.72,2.56,1.46,3.66,2.54.48.47.49,1.25.02,1.73-.24.25-.56.37-.87.37ZM147.1,122.69h0Z" style="fill: #2c70b8; stroke-width: 0px;"/>
  <g>
    <circle cx="136.76" cy="112.4" r="1.56" style="fill: #2c70b8; stroke-width: 0px;"/>
    <path d="M136.76,115.19c-1.53,0-2.78-1.25-2.78-2.79s1.25-2.78,2.78-2.78,2.79,1.25,2.79,2.78-1.25,2.79-2.79,2.79ZM136.76,112.06c-.19,0-.34.15-.34.34,0,.38.68.38.68,0,0-.19-.16-.34-.34-.34Z" style="fill: #2c70b8; stroke-width: 0px;"/>
  </g>
  <path d="M163.96,202.68c-.09,0-.17,0-.26-.03-.66-.15-1.08-.8-.93-1.45.5-2.26,1.26-5.88,1.34-6.58.06-.51.39-1.42,1.06-3.27.71-1.93,1.89-5.16,1.89-6.14,0-.67.55-1.22,1.22-1.22s1.22.55,1.22,1.22c0,1.31-.88,3.83-2.03,6.98-.39,1.07-.88,2.41-.93,2.72-.12,1.04-1.25,6.23-1.38,6.82-.12.57-.63.96-1.19.96Z" style="fill: #2c70b8; stroke-width: 0px;"/>
  <path d="M166.12,203.36c-.43,0-.85-.23-1.07-.64-.32-.59-.11-1.33.49-1.65l1.03-.56,3.6-4.58c5.11-6.66,5.39-6.75,5.81-6.89.64-.22,1.33.14,1.54.78.17.52-.03,1.08-.46,1.38-.51.51-2.89,3.52-4.96,6.23l-3.76,4.78c-.1.13-.23.24-.37.32l-1.25.68c-.19.1-.39.15-.58.15Z" style="fill: #2c70b8; stroke-width: 0px;"/>
  <path d="M122.35,255.44s-.09,0-.14,0c-1.43-.16-2.88-.36-4.34-.57-3.19-.45-6.49-.91-9.63-.91-.67,0-1.22-.55-1.22-1.22s.55-1.22,1.22-1.22c3.31,0,6.7.47,9.97.93,1.18.16,2.35.33,3.52.47,1.75-2.68,4.02-5.08,6.23-7.41.92-.97,1.83-1.93,2.69-2.9l9.28-8.83c3.53-3.43,7.51-7.36,7.91-7.87.05-.11.25-.38,2.85-3.48,1.96-2.35,5.62-6.71,6.01-7.42.31-.85,1.61-3.49,7.19-13.46.33-.59,1.08-.8,1.66-.47.59.33.8,1.07.47,1.66-3.1,5.54-6.53,11.83-6.98,12.92-.07.57-.72,1.46-6.48,8.34-1.23,1.47-2.5,2.98-2.68,3.24-.05.12-.26.54-8.26,8.3l-9.22,8.76c-.8.91-1.73,1.9-2.67,2.89-2.3,2.43-4.67,4.94-6.34,7.67-.22.36-.62.58-1.04.58Z" style="fill: #2c70b8; stroke-width: 0px;"/>
  <path d="M208.4,254.65c-.65,0-1.19-.51-1.22-1.17-.48-10.48-1.24-21.07-2.27-31.49-.28-2.84-.55-5.18-1.23-7.48-1.6-5.33-5.17-10.91-8.32-15.84-.71-1.12-1.41-2.21-2.07-3.27-.36-.57-.18-1.33.39-1.68.57-.35,1.33-.18,1.68.39.66,1.05,1.35,2.14,2.06,3.25,3.24,5.06,6.91,10.8,8.6,16.46.75,2.5,1.03,4.97,1.33,7.94,1.03,10.46,1.79,21.1,2.27,31.62.03.67-.49,1.24-1.16,1.27-.02,0-.04,0-.05,0Z" style="fill: #2c70b8; stroke-width: 0px;"/>
  <path d="M245.8,263.97s-.09,0-.13,0c-.67-.07-1.15-.67-1.08-1.34,1.3-12.13,2.58-24.26,3.87-36.39l1.51-14.24c.07-.67.68-1.16,1.34-1.09.67.07,1.16.67,1.09,1.34l-1.51,14.24c-1.29,12.13-2.57,24.26-3.87,36.39-.07.62-.6,1.09-1.21,1.09Z" style="fill: #2c70b8; stroke-width: 0px;"/>
  <path d="M254.67,174.84c-.66,0-1.21-.53-1.22-1.2-.23-11.99,2.09-23.48,4.34-34.59,1.8-8.88,3.66-18.06,4.17-27.38.04-.67.62-1.21,1.29-1.15.67.04,1.19.61,1.15,1.29-.52,9.5-2.4,18.77-4.21,27.73-2.22,10.98-4.52,22.33-4.29,34.06.01.67-.52,1.23-1.2,1.24h-.02Z" style="fill: #2c70b8; stroke-width: 0px;"/>
  <path d="M230.69,260.83c-.61,0-1.14-.46-1.21-1.08-2.49-21.44-1.62-43.2-.78-64.24l.3-7.63c.86-22.81-.96-44.9-5.56-67.51-.13-.66.29-1.3.95-1.44.66-.13,1.3.29,1.44.95,4.64,22.81,6.48,45.08,5.61,68.09l-.3,7.64c-.83,20.95-1.69,42.61.77,63.86.08.67-.4,1.28-1.07,1.35-.05,0-.1,0-.14,0Z" style="fill: #2c70b8; stroke-width: 0px;"/>
  <path d="M239.59,257.09c-.56,0-1.06-.38-1.19-.95-10.02-43.49.32-87.03,10.32-129.13l1.27-5.33c.16-.65.8-1.07,1.47-.91.66.16,1.06.81.91,1.47l-1.27,5.33c-9.93,41.83-20.21,85.09-10.32,128.02.15.66-.26,1.31-.92,1.46-.09.02-.18.03-.27.03Z" style="fill: #2c70b8; stroke-width: 0px;"/>
</svg>